<mxfile host="app.diagrams.net" modified="2022-01-27T06:46:59.810Z" agent="5.0 (Macintosh; Intel Mac OS X 10_15_7) AppleWebKit/537.36 (KHTML, like Gecko) Chrome/97.0.4692.99 Safari/537.36" etag="AvZuz969HNNfGirzzpWT" version="16.4.7" type="github">
  <diagram id="af6M2LxUGo8uEkX9Ks5h" name="Page-1">
    <mxGraphModel dx="1773" dy="550" grid="1" gridSize="10" guides="1" tooltips="1" connect="1" arrows="1" fold="1" page="1" pageScale="1" pageWidth="827" pageHeight="1169" math="0" shadow="0">
      <root>
        <mxCell id="0" />
        <mxCell id="1" parent="0" />
        <mxCell id="ozzDfrlE34gS3G6YLqRV-1" value="" style="whiteSpace=wrap;html=1;aspect=fixed;" vertex="1" parent="1">
          <mxGeometry x="140" y="200" width="200" height="200" as="geometry" />
        </mxCell>
        <mxCell id="ozzDfrlE34gS3G6YLqRV-2" value="公共内容" style="rounded=1;whiteSpace=wrap;html=1;" vertex="1" parent="1">
          <mxGeometry x="180" y="220" width="120" height="60" as="geometry" />
        </mxCell>
        <mxCell id="ozzDfrlE34gS3G6YLqRV-4" value="个性化内容" style="rounded=1;whiteSpace=wrap;html=1;" vertex="1" parent="1">
          <mxGeometry x="180" y="310" width="120" height="60" as="geometry" />
        </mxCell>
        <mxCell id="ozzDfrlE34gS3G6YLqRV-5" value="" style="endArrow=classic;html=1;rounded=0;exitX=1;exitY=0.5;exitDx=0;exitDy=0;" edge="1" parent="1" source="ozzDfrlE34gS3G6YLqRV-2">
          <mxGeometry width="50" height="50" relative="1" as="geometry">
            <mxPoint x="400" y="290" as="sourcePoint" />
            <mxPoint x="450" y="280" as="targetPoint" />
          </mxGeometry>
        </mxCell>
        <mxCell id="ozzDfrlE34gS3G6YLqRV-6" value="" style="endArrow=classic;html=1;rounded=0;exitX=1;exitY=0.5;exitDx=0;exitDy=0;" edge="1" parent="1" source="ozzDfrlE34gS3G6YLqRV-4">
          <mxGeometry width="50" height="50" relative="1" as="geometry">
            <mxPoint x="310" y="260" as="sourcePoint" />
            <mxPoint x="450" y="290" as="targetPoint" />
          </mxGeometry>
        </mxCell>
        <mxCell id="ozzDfrlE34gS3G6YLqRV-13" style="edgeStyle=orthogonalEdgeStyle;rounded=0;orthogonalLoop=1;jettySize=auto;html=1;exitX=1;exitY=0.5;exitDx=0;exitDy=0;" edge="1" parent="1" source="ozzDfrlE34gS3G6YLqRV-7">
          <mxGeometry relative="1" as="geometry">
            <mxPoint x="660" y="280" as="targetPoint" />
          </mxGeometry>
        </mxCell>
        <mxCell id="ozzDfrlE34gS3G6YLqRV-15" value="内容" style="edgeLabel;html=1;align=center;verticalAlign=middle;resizable=0;points=[];" vertex="1" connectable="0" parent="ozzDfrlE34gS3G6YLqRV-13">
          <mxGeometry x="-0.375" y="2" relative="1" as="geometry">
            <mxPoint as="offset" />
          </mxGeometry>
        </mxCell>
        <mxCell id="ozzDfrlE34gS3G6YLqRV-7" value="merge后的内容" style="rounded=1;whiteSpace=wrap;html=1;" vertex="1" parent="1">
          <mxGeometry x="460" y="250" width="120" height="60" as="geometry" />
        </mxCell>
        <mxCell id="ozzDfrlE34gS3G6YLqRV-8" value="merge" style="text;html=1;strokeColor=none;fillColor=none;align=center;verticalAlign=middle;whiteSpace=wrap;rounded=0;" vertex="1" parent="1">
          <mxGeometry x="380" y="270" width="60" height="30" as="geometry" />
        </mxCell>
        <mxCell id="ozzDfrlE34gS3G6YLqRV-9" value="&amp;nbsp; &amp;nbsp; &amp;nbsp;卡&lt;br&gt;&amp;nbsp; &amp;nbsp; &amp;nbsp;片&lt;br&gt;&amp;nbsp; &amp;nbsp; &amp;nbsp; 内 &lt;br&gt;&amp;nbsp; &amp;nbsp; &amp;nbsp;容" style="text;html=1;strokeColor=none;fillColor=none;align=center;verticalAlign=middle;whiteSpace=wrap;rounded=0;" vertex="1" parent="1">
          <mxGeometry x="113" y="277" width="60" height="30" as="geometry" />
        </mxCell>
        <mxCell id="ozzDfrlE34gS3G6YLqRV-11" value="卡片模板文件服务" style="ellipse;shape=cloud;whiteSpace=wrap;html=1;" vertex="1" parent="1">
          <mxGeometry x="160" y="440" width="150" height="80" as="geometry" />
        </mxCell>
        <mxCell id="ozzDfrlE34gS3G6YLqRV-12" value="" style="endArrow=classic;html=1;rounded=0;exitX=0.933;exitY=0.45;exitDx=0;exitDy=0;exitPerimeter=0;" edge="1" parent="1" source="ozzDfrlE34gS3G6YLqRV-11">
          <mxGeometry width="50" height="50" relative="1" as="geometry">
            <mxPoint x="340" y="500" as="sourcePoint" />
            <mxPoint x="660" y="290" as="targetPoint" />
          </mxGeometry>
        </mxCell>
        <mxCell id="ozzDfrlE34gS3G6YLqRV-14" value="样式布局、事件" style="edgeLabel;html=1;align=center;verticalAlign=middle;resizable=0;points=[];" vertex="1" connectable="0" parent="ozzDfrlE34gS3G6YLqRV-12">
          <mxGeometry x="0.415" y="-1" relative="1" as="geometry">
            <mxPoint as="offset" />
          </mxGeometry>
        </mxCell>
        <mxCell id="ozzDfrlE34gS3G6YLqRV-16" value="" style="shape=image;verticalLabelPosition=bottom;labelBackgroundColor=default;verticalAlign=top;aspect=fixed;imageAspect=0;image=data:image/png,iVBORw0KGgoAAAANSUhEUgAAAggAAAGmCAYAAAAZAnxgAAAAAXNSR0IArs4c6QAAIABJREFUeF7sXQecFUXS/79dcgYxoIJIEFFBjKCCoqcYz3CGM5/ZM5zenZ6ed5jOnLOCOZ1ZPwMGTCcIEiWDCpJUJAfJ7LI736+6p2d6+nVP97ywu7Az9/PY915Ph+rqqn9XVVdn1m/Y6CF9UgqkFEgpkFIgpUBKgZQCEgUyKUBI+SGlQEqBlAIpBVIKpBRQKZAChJQnUgqkFEgpkFIgpUBKgSwKpAAhZYqUAikFUgqkFEgpkFIgBQgpD6QUSCmQUiClQEqBlAJ2CqQWBDuN0hIpBVIKpBRIKZBSoNZRIAUItW7K0wGnFEgpkFIgpUBKATsFUoBgp1FaIqVASoGUAikFUgrUOgqkAKHWTXk64JQCKQVSCqQUSClgp0AKEOw0SkukFEgpkFIgpUBKgVpHgRQg1LopTwecUiClQEqBlAIpBewUyFRWVqaplu10SkukFEgpkFIgpUBKgVpFgRQg1KrpTgebUiClQEqBlAIpBdwokAIENzqlpVIKpBRIKZBSIKVAraJAChBq1XSng00pkFIgpUBKgZQCbhRIAYIbndJSKQVSCqQUSCmQUqBWUSAFCLVqutPBphRIKZBSIKVASgE3CqQAwY1OaamUAikFUgqkFEgpUKsoUHCAsGHDRmwo24iNFRWoqPAALz1FWas4Kh1sSoGUAikFUgoUjAKZkhKUlgB16tRB/fqlqFe3TsHqtlXkDBAymYyxroqKSqxZuwFr15WjQYP6qFevDlBSamvb/LsHqK0xmKHpQkaDP4KymnpMjarvmNpT8Q6RxYSBBMnE79R9eQjUBn2ulDqlklmuu9SAteR3grbM06UlgW4MMVOefG41dNLVr6elh5DOMQPT0UdX3IRZtUynGWqSOpXXKwx8nJyg8W+UCF6z4HPiPU8ZD82BzNemv+N6oPK+XDbuN1c6VMW2IzH/x/CPjq9d906M/kJIOKxrdb5caWosR/u8vCup3gpkGUw9SToeIrt4xyTzXcQKq8cvKOqR/9X1LQOP6QkPldhYVoby8nI0blQfjRrWRUkJrfTsx3NlLsu05AwQqAPUh3XryxkwqFuvHlBCyMaBg6uXVwrfunEyfFqYSBJIYr9Lopy2PolFY0AJ1z9BRYkXgo44AbAJVkgstjO0KS8x8X4cr0jLTV55RlqqNCwEK7os+cKzU0FqVLvOyJ8BAeoIIJUaC9jOR93ZpCZRFa1YAHS5Tmem07EE62a0ZWrTznohz2sFpgach1iNa0BqI2wnoRyLAadcWPNVaWZloq14hEKQJ0cZFaORgT/9sSQcgdKAv7vyd0qeiiILwqRVX0mEfyNMpeF20nFqFzWoMeMvHCJRVnmP5tKvm80LnzcZJKsAgTWpMLzYTDKezdD75ShBBZo0qov69eqw+uRNfLUCBGqcrAYEDDZWEC6oB2T0SKbqWaDmtBi3K1dRJJ943neBG8TfwYiETJABQoycyKJEkrKqPNIwbSDOZERsJH9SzG4QjlaAEC5Gvi4tSl6eJG3d6pdx43ATyW6l4vqeJbUCvgl/4QBeCB8mYNgHXb28RyQOSZgJsci+Dd7hlgbGQkzo+Y8POGR5JlPIpNhlGmRjmVBZCpaNimpfyCZa6mbmJzrJAjhRtRIddJujYGxSA3FQhvdSQ7VIRSHaEcpHBhfOAM02UIlkfJm4c66t6rjfGdgsUlNGa68vKVS+jAd1vrz2u6uCv2DKY0RGZI1KjYs/dWQQ9ZZkKlCCcjRqkEGjBmRNyAQgodoAAjW8cSOBgzJUeqXI1KlbvNnMh8tqyLs6l4Ss+E1m9iz3hC/b/c0I2wkmUSH5kiNuvUbATjEAgqXzUXEa7SlXeronW/HrlYRrOXep5i777KDKJLiZhU8RXMEOQ90Z+cwmAEIWtdTdjAwQfLDKWvMbjAjKxMqXqBNSiLrG3CA0j0HFuQAEMxNxGtppbV9D8TMrduE6FwsHY/6aDk05SpO6Pmbzp72fLiWi6i7gs0KQydJ8MQFCgOcKPI44V7O0NAKZbQMiqjRRwQfxCs1JSaYSpShDo/pA44b1ApBQbQCBxxuUoaKyFCWldYzi14UF0zJuFMgW9OF7ubiaYpnZ2iWxM3VXc8WEMtkATAEIUoEoGNMLVhns8H67lnMECIkEk72wAIysn9md5wLJ/z50PUn8E5lv3TZXBPKEdBAWBJkvhZJllmjJHE3mUK4Ydfsr0TjtfORYnihA0PM4r4/VTK4T9r6dXlnsrXbNL5BTXdZtrzpOqTeGfsj9jfSJWXMyWVOeW7+ti94vELZne0P1rwea0faizz7amUwqcmLayoVVTNXZwAHZ1mMxqOB9zfgiMXbS7zJ9SjIeSrABjepn0LRxPWZFKBQfJIpBoHud1m8ox/oyD6Wl9VLLgQOz24rIu9YslOgzVlBGZpAcZKGtLy6/B8omcQSXS+25lzHoRimANEowXdCtblHFl+MCP9GTIHCWdlKyqVE75WyHrokqlDplAgihK0G1usjuLuEvNQMvDkJ8IWiJj0lCK05bs1ISPYp4iVScpATYCT2crcCi1C2kAgnHbGYWWckEwMvvks71aKJjcfrNW8sC4wJMSZaqWJyTRGYJa4rUhhV/OTBXxNqZpD8OdeuKkILnIFbiAmWNuG7YgnIKbajmOiWVKEEZmjUuRYP6daseIFAnyjdWYNXqcpTWrZ/GHOTIMElfy3fB25hPVnD5tqVdIAVUGElpJ5dXlX8SgMB2zBKhCg2SXOhum8dcaFOIcYg6SP4JGSjXa/pb9Ddup8NpLlsuchml2zuF2nHFt2YGCC48IOrWBbUled+NItmlgpMUuVaQw3uVSQG4pY1YMCnAiAY4uMpJ1X1UotSlbmRc5i3LJSVZHOg3stLRYYYSVKKkcj1atWgYkVc5kD14xdmCQG+sXlOGjV4JMiUUd5A+VU0BYiZ1x5ptYo8/dqmrIxTWUZSr+56+U3c0cUxeDMWWK93jFKIOQMjfCYBgAhq6sq79dBUSLuWoTZvit/3u2m+5LRkgyMpfNXeaIq1VwBYKUjeAkIQn48ZXXKBgBwiqMpDXj/q3aX0mmb9EZX1l58qHieo2FC40QEgi62yyVtflQgMEEzChMwH8hCNNSiUy7JBAhlkRGtb10LgRWfjzf5wBArkXlq1Yh7oNGqWuhfzpXrAaXACCymQuZnFdvWqnBdhQUTlXHLx0ChCSTbWOljZFoAolm7WkJgAEex8F/8S4GDT61oUnayJAiO9T9lrK2lUmY7OcSmuBQZHN9FUJEGwyz7b71ylz2YIQJydtExLUneHAgH9WiU8uTw+Z8tVovUUTW5VOvzsDhPUbNmLthkqU1qnvVHFaqGZSwNWCoPbeJJBUAFAdgquqKF0MxcpBlOrfTwqusgMAo8KowHZaheBEF50FwUURCwuDORFbdiCeDqjK35kAsMvOt7osCLnycFUC8UQAQcdyOYCJYgEEHb1tACEOqButDXTSwH/RBSBoLUY+KAgtBqZEZpzoJViPZo0Kk3HRGSD8tmo9MqX1QfGS6VM7KOAiUE2C2cWyoQMhpjZrkiUi6ey7AItw3H50vi9xogrLFK2vSuPwpEk+rg/XceYLEPTCWg7f1QMcHRi1WcfUXSDbhwWm82wNVni+Ky5Yk8fjOn+u5ZzXZvbGNudTpNrkQ64droJyLjLSZkUQcxbE8FBcge9OLi1VrQVhPFR225y36mQqULekDE2bNMibAs4AYeny1ahbv2lBTgvn3eu0gqJRIMmOJE4Ym0zlLguqaIPbBCpWwUScgg9/y1Y6ricybCRxARi5AAT3dqOBijpAGueWMSlMHe8GAZeBe6xwx8XCfm9eACFu5yzGnA/IYpap4pPMxo6xv8e5Hhj3SoBJB1A5j0rpyfz4AqJbiaRxTVY2VQ7QscfSyjVo2aJxXuOil50BwqIlq1G/UVOnBk1EcHo5LVStFLABBL1g5V02BdSI31xAQz7CJI5wLrv46iC8rV9JgyJVJWcaU1ywoMnMrjtfHQRvUqhUEdAfr9JdQ8Txpw5cyN+pglaem8K5HtzHkis/FmEagq7EyfbgN6XjbArlmCTps22MmyJAUMfE3LqG482hy5cDBJ4NUT5aHKILe36D4OAvSirWoHWrKgQICxatRMMmzW3zGWEkm7nPubK0YI2mQJzvLg5w6ACFcUeSNwVyTfCUd8PaCuxBevFHK3U7e/m77DmJ7objTmXo+hYHGmiABA5ycDFbiZsUIOhAgM3CIN6J0izKL4UDC8UHCEz/FmMyLLMllF2o9PgLEeDgJ7Tiys6ewHJTAAjxG5PwVx1IYKDAP6qYfVsB55WonIybWF6eeLVk4yps2dptQx/Xf2cLggtAKNbuzypF0gI1ggKxpjZJLup2IXHfFXdwsq+7uC3JtScBCDY3g0nZR3MIRAWL+Z1sGsTtXEQ9xQAIfNxmF4NttpLGKMhKNc6yk581YfMACDrgL9M7nvZ8Xl0AAgOfVUMyGzvl9HsWUBegiIECcSJBvq02DFrOlqc21FfDAYKNgqnrwUahTft3E0AwWQVczcHqrrCQuyMS9nFXmRd7RkyKSO6XTVnFK/tQaETpmL9/XRVX4nOSAPbs8Mqwl1GAUBgLkKuFStDfBQzYTb+uXFQ4TVjINaLrfVKAYNo80oi1fWU/+BaI0HLuSsiscq6eqkhqY78W13dNnVPHRxYDbjUQb1AeA/m0jliz/PcQbNVwgNCoKXcxJGU+HZrMeabTFzdrCrjwViEsVZsjT+qVWah0dL/nQ0uTuNIpfV1Z3Xkok9U55IvCKVGXheQCEIQQd+Hd+DYLN7b8++JCnWRldH1SAUKwLkXVwohk042WrrheAGVyA+QaKBlYSWSLATuKKIfWCIsKH2TchiWeH6vdgtBMuk4yRDdJd45xc+kqsDZHAZ9suW2+pU2WJt2uJYqwozxpC5p0AbtJ+MyVd6ti5tSAO7nN0CKhya8vXfRSuJ0xRaJnWzJMzgNdWT5XhVOghZoDEy2zc1u4aLjCja8mAoQsmkskka1PEUop14zkOm9VDRDkuAtmLaDkRkxY+SCAQ4FEw3EFqzwGYXV1xCBwgCALHy4UQ+SjmkPNg9ITJ07IbqrCOhEXpIVNlxJGKCMLQJVnxGeVX3JV4DaedBXGaj1xroNc2MBmQdDVGReQWEiA4G+NGCLRuSJEW9QfdklVAChk0JdMoOZCw2DjmtD1VBw6msarAxv6sq68mQ+tCv1upM8uuMqhA0mq0VrAHFiPFakMbj1noIAnN5LdCXJPHCqVxlbjAYJwMcTNR5xP1xRsZbJAOMx7VhGTssilrvSdzZ8CKtAIFUR07DZwYftdro3KUupy8RQjBiLOglCMWdW7L7LjHGygg6wHal18juj/ok4JfpW0OppkQledl2IpVFfhrnCdYarcAQKjnEU7JuHdYvCOsU66iTOJZq/SzkUbo34Kb0iJn9xIF2OVaxeT8E+1WRAaNW3GJszmIzGdseZISggA/d3oqlnYxrwmM7LtPd1E5fJOrhOevlc4CnCedKtP576Is0bI6N/k4jDxkiqci81fSa11ar9dwL1NwUcVrr/Wg9vnMqFRVWN1FDCAuRg0miH7KyGSI626MYJfqtBWHFPjSQR8ogFYC0fvsig2D1q7k6RAEQFCHO6IC5wV3Q9iKKWKhMWAyyKdnSzJ4MOySXmnGgGCWx4EncshIKwPEOTI65BpOWgQjxD8mwqKzG3607eqggIqD+mApeySkAWpzVWR1AVRFUKa1mAIaBzRk+NEuAgsdX0zgwnpfTrexlyxPGl7BHD4soG5GJS+6NvctNK+u9DNcQqci6lxG0nctM6NFLNgkUCCKRhWFxejKyvzJwMGkeRGhSNILjyzSQEEvouKRmfKO5UoAQJcprVShKZGqtVN6OkWhKuA3uQWU+H4crOrKSlAUAmgAwwykA0BMP8rztpQVXxVLGCtcxWa3YeavZqyAGUwIQvjyPdZg6HNhAh8DGcrydouFn1MiycXYZ/PQuTtlWitazrXmm6NVDWNssZbJICQC10DTiaLpX+jYpj1MJAAWVXbeFL8rpbLlV9qPEBQKZTEjGcrm+1bDc2MJjOzjsltk5YLA6Xv1HwK6FwMtl7bXBhxLgoTsKhKwVuMtnSgPwRJpoC57I0Cg/qBoo9mYxTbBSGYVYEZdWWGArqqAJiNb+TfcxX2SdrQy10OEFS+1wEEFdhG+59PT/J4t4YBBGZhCIIPA870B6g/l6OzVsoUCecn6pbIlWc2OYCQB3sEr5qFQ3ZUaJyLQ1geUoBQiFmp3XXYdlw2N0ZVUS/sp8nz6maNK1Z/dWtb/k62Kpg2EGH5cMdcDGCUKw1yFfa5the+lx2DIH6Li8dRN1vVRssaARA832LAISvRJgShIejlNArXkm7DGk9HXdBtcg5IAYKSTCJuN5NN3qgwdAUKruWST2f6xqZKgTiAECdg8+Ulm5UteycZqAQJcMuBnTUPIPDdLL/hhv6RoY3sosweq7A7hO5KLrTl3Vk0uJHPR25BZXF90e/o47k9SRCo27qRM/RF34izjFUbIMgiWtWfZJBZIXpPAr9Iif4nwm1DkBWuoTj3omnOhEzIFUjKMqVWAoQQ9UbNlCaCm0CDnNKS4T19wLSEEN2WYVqq9lJAJxDidg/5msCTAAS9r1mkLRZzVhiAYIpDcOUM3ZqNAAO/IpOFUBeToKjE4GNUDqhWSDs9xBzScVXXY6ouwr8qAYJMmzg3mev8FaNc0K8qOu4YgCY/uZEACBFaSQAh1EvZPJN8I5CfBUHwNAcI1XBZU2M/1XIcI1TFPC4tA4at8LBgA+BV8qhoxki+OYr+ZlHTFA7t7z7YQvbL8bIcWcvv/TavEl4FUOFleMIr//dKvxKKCG5RHzhp7wx22qYYy8EMWIrTWlprVVNA3rWpuzSd4k+yQ9WNJZfdjFqPq6DLFyDodtzyvp5lw1OCnmX62Gil61+20tb7kQMoZdhQuPKRC0hwrcutnB3scJry2kwxM6KMKy+49c1eKrJGJOVS6H6wdvzLk0RyI+FOsPdSn+UzWR/N4CD+rhW5dyJot5YDhI8WeRi3Eij382d6lZR4xjdFklL3s1kRQCCgQMqe3VUvfmOKn525YmWpTPlaD6vm0yTxiVJBhAASNB1tmmXw4GlR354LExW6TJyJsNBtpfUVhgK5AAQuuM2Bf9lpfbOFfWF6b68liXXDXhvH+Gz8fobFuHdcAYIqcNXssHFxSsmEfnZvaypAkHsqgwXd9y7zVqgyWa4O1VOUZ0OifkpuFM16yF0JjPesJ+YKoQuiAEHmybi8QtHhpwCB0ePVecD3a7iFgJS7DA64OcFX/FTYlzCVFbwceyRgIMqvXeJhw2oZHHDWoPq9St8kS23xw9x4/eKowHZF4Co/qwLHVQAlKceGXBWmnTwXa21+vbrmJ45vo6b8qp8dBtZ9cESrraJARBJAwgRmRO4AscYM2CxCEJNSVakmD0EFC0IpuO4Y3cq5WRCSzG6BpiFJkxH5FbjofHkeJ0NVd16krJ+7gOhI4CAai+LWvULcD6LGDzDN48J0kjXNh9FcvdV2F8OrvwDTVvKwI2EBCFwFgSXBtxgwBS/dPe67H+i9wIVQ7mHVIg+oEFYICSj476oujNd8gKAivWiwk4iXiFPQ8gIOtbgaK+HGrmmpTZkCOsFrVmLZsTgmF4UQOKa4nJBmYXZTHQBNEsxnihOwCT9VaYqsirRKBL7PdY5NLpAoYIikwDE2FRdjwscYfdXkTkoyltzjEwoHEgrhskoyZnlzI9M06Idu8xMMV9oVkcVYilUtKREnE2TujwbDxvWzEMBArj9q/XK72txkjeIAoRoua3KJQchCzAm5wYWVX/4JmEoAIXAfCGXvcSuBiEWQXBABGJDcDMKSULbGQ9lKj7sm2LsicIEmSsQq+LEOZE1ABq9dxHuabd6NKnmZwTkpolt5ExDIN5DN1cKQcHrS4kWiQLF2ZXGKOnso2ZlM5TLZOyzzatXtjnMlnVxXviBB7LB0OzTRDp+LMBGTrt+69Wnb9MVZD3Kljdt7LlLVraZi8Wm8Mua/ammexDrKjid6zFrAgg8dhuwbpDUlC+FWCKu1ucey9GrMRNR6gPDiXN+C4IMB0rkUYyBbBZhil60EckCiDwQYQKjwUPabh40U8Ki4E3g8gg8QKjN8B+NfsvPKRTzNaxxACCdVsGI2OAiv+PDhQxEDcVLQ4CARqqlIsQSv3WoQHXBcPIMoGVX+biDB1WQaryj4TY/FfKIWQPPYXAGCbl7FOnSJR3BzI9go4qIKbXVkyye3N/IvZVobEdur1oUqIi95fAGjpR99TnEFLom69QBB+PrzH1vSGlx4JgUIc4ApK0TwIYeQ4e6fxwjw2AG+YWd/+6caIq4CimHY4KFsdSW8jWGQI7c2CBcFAQQ/FiGwLACvXKwHCPKEuwpnIQSon6vXedhYATRrlEGd0uj5bFUobSgHVq0DNlYCjesBjRuEgTY6xisWQFi5FvhtLUf4TRsCzRslZfu0fBxAyGfeTDxoUjxxO2vdO9EAKv08mtwkMuBwVYT5AgSbmZ73VaieZIrV5naw7QJt9KX3XRRE9iwkG0c8SKv6taquDXk9aC2tzLTM5RH9x48qchOER0qB4QR76GHAn3IWjUyGWanzWZMqBdW6uDWBbT+ziO0y/5sUQCgGO037DViywXcpMZBIypy7AIQFn7sKQtTL3E/SZ/YLgYeNHvsv3JoI05EUVRrUzSugeo7q7oI/zaNXhWZ5BTB5LvD5JA/09/5dMti3E9CoftTXvGY9MGUuMHORh8UrgRVrMwxQNKoPNKkP7NQG6NkZaN64GJTX1/neaGDkj0DDusABXYDfda+6tjeXloplQUhCH52Z0ySQzJYzNXg3e2vnCgZ0fc8XILjSQ7gZXMvrhL6QFaY6TMBJ972LYjD3tXAAQW6junhWblcFCKQFGDDwLQb+Xp+pWhs4NNEvOEnjXyZm5g2dGSMX2stHNcJeufJArQcIm0NAvjzZxLgr1gBPfQYMnsQxzp7tgUv6ATtuHY6Wdurvjs5g2PfAwt88rC3jt+PJz9bNgN3bA4d187BHBznPfVjKisBjEkgJoSfvlh54H/hwItC4PnDivsDZfXMVq+l71SV0+bzypD8yUJCVlU5AZSv7/AGCEXzQ7k1HILZjzEUQZ/NbSAOhUHLjSZcYIpWecW4YN9qb+loY2qi1VxevinYZjYW11z+JIG5V5PYBXbyXH18mXvYHpQWtAhBIAw/HHAb0SipctjX4f+e3kYwCMjfNt9kCBFf89fEvwOxVYY4DmjQWGiDFGYgESYElQcQoMEnI8yBUlntAWSU/Jul/LywJrLogVoFwqc9Yfif7H1uam+RQ3hICadlqYMAnwBfTeIGu2wJ/ORLosh3//NsaDw8MAsbPyWD1hrASshrQzv23dUBZBf++tATYbXsPFx0K7Lx9YYNpUoBQkGnPqqQYwtZm2jeNxAYQ1JM7oh55DDLYUNuJuiXsQs8UKCaL3qAWX6jbZsmkMuXehJHqblHltjbj6E2/ucUzhbUkpaO5f7kBiGLwLOujZgMtfxUABFTSXZV+giM/wFYKPgxBlQIWZC+SBBBUEKbjO952lGfD9aKjY3LamlwMtd6C4AoQnp0OTFnKp0lNkBSABF+5h8AhTJQUxCds8FBZ5gc3+oBA5EVgQY8S6AiOShJ/VAKvXFIYgCAWbflGYMwM4IWhHtZuAE7plcHB3YAmDXmJpz8D3hhJZ8GBOiUe9ukA/KEn0KYVULc0A3I9DJkG/HcYj0kgkHDwrsCl/SieIVfRJQsj/rdOKAgLAoGVPygWhEL66vIfRc2swUXQ5kLHXAFCLlSKCmMuRE3jykWxybIhiBDwt+my4HR1Qej2dfK7vM4S35rin5gqkJXCX0lCNQVxBSlA8EliAQjEWOxGRZohFnKWYf/GHUuwKVeT+0HHT+a69FeQy+tJt46zv0tdDLnIoOCdZ78HJhJAUE4myMcbBdCjFMvB9yypEg9iBMUdbKAoxTDZEgW4BqCg0o+YZhkX5dMMHEAWGiBQuxWVQBn1C0DdOhnU8ZN3LFrh4U9PZFBWDtSvA/Tu4uHCQ4EtmkaP/hAw+HxiBvd9yEnVaWvg0sO5y0F1aRAAWr0WWLIqg1ZNsmMWBNOqMpECIxeu4DEPLRsDpaXA/e9xFwMBBHIxnCW5GGTmn78cLF5imxY0vrxYYLN6WReEpYKxXABCVRIp6ooQYDJ0WdA3bkeCOf+7+ItVszB9pmRKWaZ6icBC9OoAgrxjFABBPWVUOJrqlYCufp2bJw5kJQdgyXe5aj9dQG5utItCQ+opuRF41kNflku3K7q2oQfPCqg1uLRU61jIq2aAIMtR3Xp3oZ8N5Iixb7YuBtfJfWoaMGmp7yoQuQt8qMfTLIdHHlkgIh1RlE4ysEXvAwSRN4GCHHlZ/33fJUG+LDnREgMllM3RZkEwWU4Na7GiwmOxBU9+xoMtf78XcPRefPf/2MfAO2NCpX/NcUBHw10Q68o8XPcSMGNRhinssw4Ejtmbv0ugYM16D68NK8EXU4DFq/j3pRkPWzYFjtkrg349PKb4eQQw90cT7WYuyODtkcDIGQhcHO1agQGVYd95GDyZt3fivh4DCExYV3qYvwwY+BkwcQ6wppwPvkEdYOdtgRN7AXt2AOrXjc58TVeGrnyaS7mkwqOm0cpF0OVGl2zgoCpCEfltcm+w8n4HdcuTkjJFhbDJPZdwcfsDdolLyIU2ce/YYkj4uzqh5GbPLdZ8h2Pygw59KwELPowZcCGtZlz2hdk8s0FRyJPhb2HvIrES0stxNIuu59wub0oBwlRg4hI5RkDs/D1mdmpcFyAHwAp2BJAfS5GtC6TxMhR/sLFSciNwYdC8IVC3BFi2phJlG3kuBfJFsmn3AQQVfO2ycAusXUr8pE3kYTsUA3eXb/QweALpO5BhAAAgAElEQVTwwEe8wKn7A6fsx3f2f33Ww+RfMqhbChyzB3D5UeYVQgy9aAUdO+T1tG7GLQ3ENDN+BZ4YDEz6hfvkyA1B7gna1ZP1gZ6eHUnpe2i/VajkJ84GBnyWwcxFvAz1g/7bsJFfe9qgjofVZRwg/GFfjwUpVnoZjJnh4YlPgV+WcyFEwICQ/4aN3FrSshFwYk8OYJo0KOzRoUIL2uqoT8Te2YRwdSgeEz1sfdW95yLU48qo1jHehka4WtBU1OcsXAzaHhuGH78Tr4p5cqVTdACFBwj5jTVUvHyjwq0GYS99y4EG27jwkm0tB/Jcuf/DrW7/3IQBQ9oAvfy7q8VAB1w2mUyKtslI8rsQPk9NASYull0MfJdb4gHbNwUO65BBk3rAK5OAX1eqmRV5SuVMeSXql3hoUCeD1evBjhYSALj4wAzaNAfeGedh0s8AxQYwQS2yM7LABw+vCoBgkAksH4fysK8SAgTKK3D6gx4Wr86wUwJ/PhQ4aq8kVONlV671cO97wKiZGQYGWjX20HU7YKtmGSxaCfzwq4elq7k/75g9PFzcD2hYD+x0BQVHDp9Ofj4PWzcHdtkOzOLw81JgwtwM1pTxNoSL4eyDgZ8XAw9+5GHCXD7oHVoDPXbg1oM5S4Dvf+WBlQQSrjsB6LEjj5vIRcEkp8bm8YbZx++rSNNGtwqGn2QeXQSvq+ILrQo+QCCrgGa8qouB6hflouV1Al8pERgmai5AyFXZZJPO7o7Qzb0NMDAgwHEdE7bCgumHh/NAxKAz/LZdnTx14SUb+8snZeSZdq3bJQ2zDSjIfdQB4Lj5rLUWBMF4T07mACG0DHBu2Zp2pLtk0Gs7YOFq4MFvgNnLpbgCX7lnKjw0La3EPjtksNNWGXz5g4cZC2hX6+G240vQtU0GMxZ6eGmEh8k/AxX+6QCKZ+AxChm8ehkPUhSMr7MW6BjRtLzIgvCJZEE4zbcg0LjOeAwscLFZQ+CaY4H9uthYPPv3TycAAz+nvAm0+/dw6WHAkXvyWAdKtvTpBA+vjwCWruYWgTvPAHbZHpgwB/j3awSgMmjTwmMui4N24W6B9WUZvDwEeH0kX6zCxXDGQcB/h2bwzmhg1Xpulbn9NDpRweeCQMcb3wDvfwusLweO3gM492Cghe/aYHJCkepJFpQ8+lzfS07hwrxhikfQ1e5qYShMz5LVkgQguNYsXAdqeZsADVhJcgRrYxD8TkcD0+J3hEIGuIxXjedxeceVNnHlCgcORCvJQQIbu7SmGQ4I7kskC0GY2TBDOz3liTsCahq7Om7XOvK5FCyc03zBot694BLIupkBBLcjROFkZzBgIjCRzN1+8CD926xeBifsDPTdEVhbDrz/HfD5j+C7W+n2xkylh2allejVHjhxjxK0bpzBo19VYNh0CqDz0G27DC46qATbNM9g2jwPLw2vxPfzo2mYiQlevzx0MagLXwDhQgAEMsWfTQChjAOEfx4H9Nwpmdgg2j04CPhkIne57LWDh9vPBOqUhky8bJWHRz4Gvv6Bu1T+dCBwam8Prw/P4PkhvD3KrXDJ4ZQpMXyPcjNc/jQwb0UIEI7vCdw3iOdroGenrYDzDo0eX5ryk4cPviUrAllsPNx+OtC2dXgXgCw8bbuPOGoUEyAIBZ1sNuJLuwIE2b+ZTNGE6811R8QBm87fah5Lkj651O1SRu6NTinqFISuXr6PEEpKH4cg82Q8j8X58t1knx4caoIxg1wWDLYErxUeIETrFw3J68HEnwIn0L/MtuPHFBBAUI8PyuO25YiIm9sA1viTps65Sh/XkzB6oCrobgdRMatHa0k15SjR9aNGuhjchbG8MMKFaEPBDHVmMhgw3sOEhSImIIP6pcCRnYBj/J31/2YB700Dlq0N3RA8lsBDvQzQczsPJ+0JtG+VwdifyFJQiV+W+SccAPTtApy5XwmaNQC+meHhvyM8zCM/Op1s8N0Nr19RJ+BnHUBIqjRMFgQ6LfDHBz2WMZF26JcfDhzWI1ntG8o93Po28M10vrAvPgQ4pXe0DqLNs18Ab4+mGIEM+nYFrjkeePhD4JNJQL1S4OT9PLbTVxfjrW8C//sudDHQ8cyHPqKcDbwNsiBs2Sza3ur1HguSrKjMoF6ph4fOBTq3SXLNaTIauJROqvCTlnfpg2sZHYDiipzXYAZV2TsTl51VcgXtOhI38GGyHri3oi+p22UKd4MPidiLUbpmK33+uwpwmbnRb1hWgNx+kZSm8gjirCkiWFMtny+tst+PKkHZoqXnP5FCmHAB0cr/nPHTGnHzbABu1JMsLqdgbGO0WZvo/fwAAucDt6ug3HlSlJTnXeYfeVybgQXBDRREGZx/ojcHjPMwfgH3l9NsdtoCuLY3928PmQ28MwVY6CdSCpIdVfJAl51be7hwvww6bAl8Nx94eWQFflhAsQZUcwkLSmxYx8Ph3TI4eZ8SFoz33NeV+Gwy38WLPAlvXFEaZmzPByz6gzQBBApS/PNAD9MXZtgRx5N6Auf9zrwMyOIw9kfgG3/3Tkccu7UD7hkEfDuLv3fN74HD98iu49WhHl4dAazZkMGe7YBbTgfu+j9g6A88GRMFTp55UPZ7BCLe+zYECPvvDGaNmPKLbbmGv995moe9OnFTo7wY2HJTvjMfgSvARLh3uUaUVEGKHSBkKyad0DQNLqlSi1oS4nbT8eRM2m7SydEKWxIvSlQxH0+o6ISi5zyqWhtkgCD3KD8FolMWFuoVMbYne82ZLAkMEPjglcVo+cBACFKm/MRAYhJeqcdbVRkRRwsXgMCxnnqixY0/eanCza88NpvlQ+aLGmlBUEmYj2lYrUuIFmK+x8aCWRDYpRke0GMboP/BPDp+8HTgjYnAyvVh7IE4wbBVYw9XHwx02ZpH1r88shLfzuWXI3Hwyk881Ml4OLBLBhf2LUGzhhm88HUF3h1LRwRDAfDmlVUHEEhJD57M2W63tjyob+sWeoZdXwbc/AYwbg7QoC5wZh/g2H083PYOMPwHvvzOOwigOAH5IeYb+Cnw3ljKyJjB4d2AK4+hY5fAu2N5ciYCJxccmr3L/8/rwJAfQoBw2O4UoAiM9QHJmb2B7jvEL7COW3vsxIbuDLfLmfiw9toFEuKsGCYzv4ugsZlsbVYHeTcZzk3uAEEoYhMXqebXfACCaEun3lUAFu2XzHu6sQbaz/8jP161WVXCeY7G9BQebKmWBJ76mttMOJiiREYs66HQnwwMSJ9li0qss8GeIyN5HghFFjowjzy7+nWW39zKfCUDIh04ytKVnocaCRBUF0Mhg3JkgPDoGGCCiAvwgJb1gYv2BfZty4HBh98D708Fyy5ID+2q6ejjVX097LMDHWEE3hpXic+nUmIiJYiR7kFoB1x2aAm2agbMXgQ88XklJv0UJksiwPHW30qNAYoO/JVVJM6CQJczXfECf4XcHsfvTfEBQIN62V47Cka8/0N+KqN9a36fw14dPZZL4cPxGZaOeYdWHp6+BCiRYhDmL/fw8EfA6Jl8BZMb4oT9gHdHAQM+Z+yKA7vyzIxbNg+Zn06AnPmwh1XrRR4E4KT9gHs/AIZ8x/t84j7AxYdHh/zjfOCziTxgkaw05xziYavmZheDux/VbWEWEryqk+nuasuFU9zfcY0DyMdfb+qNHiC49z1QpWHqgtibDPMFCDoh62pqDunnChBEa8ny9CfnWTmOIlRpxQMIYRuk/HnOAslRIywGBjYI+mUBCNnrLbrbzxcgWLnUPxkj+stPLSS3ilvbiSkQJw+r1cWgMmkS/7trAJagi1qeIXoPeHQ0MP5X6ZgjnalvCFzcC+jZjiv918YB700ltwA/4XDtIRn03YnM5x47wvjWWI8BB/bQbY0sxwEFKQI3nlCCxvUzmLvEw8AvPYydyf22wX+VGbxzlX/dszSJSWihzn0cQKCyN/u7dPq7fh0PB+8CnNYbaNOSshlmsGYDMGgs8MyXPB0zuVMO2ZXf59CkYQbDpgEPf0KnFHjLp/Tk2RgJJFCg4ZvfeOzUwfqN5MrwMOACoO2WGfy4wMOVz/G4hKb1gbMPBI7em59ioD7f+U4GX/nuDPmY44tfAW+P4kmVKCPk/WcDu7bjbS/+jfeT3Db07LMj8Lffm60iunUSZyqMCoj4e3xURWabQ5MJ3wSGdUK9OgCEzZoQKmSu5GxWBp1VJ9tHrM9toZMhup25Tg7E9StOMdgsHjoeY+lTHFGWWk7d6WXv/LgZOo4WMkiKUyZxPKnrvq2vMi+Y/NzR/oQKsoTlPOZ5aNjjhtcj1bmvbQmQaBZuHBAy/SZbZUy8RnMpEijxtRIO0rbe5bWfHPCFZKqRAKFJs+ZxfBrxc9kELSdsdnU64SnKCYDwyEhgwq88mETEGNC/bZoBZ+0F7NsOWLIauOMzDzMXAx1bZ/DwSR5zQXzxfSWeGwZQyuDwMqZQ+T9wRgY7bZNhxx5fGlbJrjEWcQcMIPig4p2rsi0ILmM2EdAGEH5dCtz4poe5S3liI/E0bwA0qgcsXSMua+IJkLq1zeCvRwHttuQl6YTGAx/wYML15RmQ8YAyIW6/BblbPJbTgE441KsDnLqfh9P78COQlHnx2S+BQeN4/gQCDzttw/MnUOIkymkgHhkgEAh46GNg1AyeyprgFN0fQTSiHAiUxIoeeufKo4DeOwP1lIyKscyW4EedkNPFNSThyQTNV2tRR/2WuI9xApbphUjciK8rJGtAXINcBqjCIQdNk3hU0RdkJZBnVcoNmaK26JiSyg/T3OoUjyvQSTpO4W2nNvl/0dtAk9ZnK6/jO6HUTb/JdbqY6HV9UAGxcD/xNrXXhvnVFJZvXeax2iwILgAhjsllhpbLxQkx+Tc/PggPjQDGzVNcA74FoF0L4OhduM/rtW95EiAyy19/RCUWrgSeHkZJg/yjj/4sM6L7N0KeuV+GpQF+a5SHcbMlq0HEggC8d40fgyDdHpZ0gcuMqAKE0/enUwPROxLmL/Xw5BfAhJ8yWLvB48mdFIjevKGHLtsCZ/TOoJvi91+wjHbuHkbPymDV+jBamAt0jx2j3L9zBmf39dipA7Eo5iwEnvoCLCcEC9SU2mxY10Oj+hlmmWhSn8cpnNWXL4pxM+nyKWDGfB4fIj9kVaC8B0ftAZywb2EulLIJF93vekUnIv2TmQ5dLQOu5XIZj/qOvLssFFiQd1miPZvZOknboYKTQULugla3I43jhWBMCQPV4uYrujOtGoBArWRZYZNMhGFAQskyQCBC8oLpicqVQvCwXIfLzl9Xnss4TayEpoMm65jMRzRKfhRWDkgMHOGSjMydb1141FSmWmIQbADBxgwmM6LNkqBaEB76xgcIfgplNlH+pUv+0VoWbMgikP3vG2Y2wvNKmPmdtrTslQAghEGKDH1R3IIfuMjaZmV5ek/hZnj/Wj/kpkAAgXb442dT8iDOUORC2G8noGH9kKrUN/LZj5iewfT5HhavBMsCSTt/CkhsWN9Drw4Z9N0tvAVSnROynHw4jjIgeli9LsMSFZG7oEUjD/t2Avp0zaBxg+hb1C7dqfDlFOC7X4GV63gfKbNjlzYeOrfJ4NNJZMnwcEAXoM8u4aJYsBx4bzQwdym5d/hlTZShkTIyUkwDBS/KY7TxUKF/1ym7ME1vCBC40AhUh9INNyEggEGhzIwutKgJACG66+Fmdf1OiNPRBqDidlE2JWD7PaJcigQQoorbjXd0c23aZOm/18cj2HmIK0FWJ4895IpWii9U1G5ufgV7R1iJpAAhWLHKJV5xboy4rsgQIKxDjT3RuRzceNtGhk3agmAbnB7tRL/VMbcMEIhJHxwOfPszV9bMDCjdtcDiCeS7F9idCB7q+rnZefZFnlZVuAxkEECJlAQIEP/y40vRC6Dev66wFoSktKP+0ImF5asp5iIDSsncvLEXSX4UVycBkuWryZIANG3ALRXyDYsqy4vFua6M3wBJBKQ7HlQwwQS8pmHq69JV3JLQvBG3GNQp7I3ZSUloLK9TaFGhHjV/R8FDNj+rANimAAs2EKWiAmwec+qaqzDWuSXCBsOdqQtAUMuYYhBs5XRtCfNyTsTwX+L1yrvPfGrTx9lErK/+B2cTe6BQ+dXKLOjQEmSY3wiq5m2xIUjCk3LZ7CvB5X7r5lMciQ2lYj7rsNYDBEFu2Y8WZXTgga+BsQwg+MqcKX2+wxPKniwH4nMd9iH7tAJPnRxaBngSpLBOOogj6mMTI3HHBwpAyMe9UDVLI/dWNKEisZW57ImS1pl775O/qQIEfu5db54Mfa5RaBS3c69tAEE/A9GETbYgwlChSpBBI2lNCjApQIgTxJsiQBAAn3GpYhlhtGFeVv/EAUt7LJIY+YA/SGaUPZvVxc/JVzbXGWZey+ZJFRwIWKcDGnrAZwcIOsuiOjZ9e4aVVV3HHPN1MbhMqOqGCHfx/G36fN8Qj1kQmIugMgoMhFUgBAQeu86Y8iXw8vJpBP9v4auTQER4DbS+1x/8M+piEEE60Z2my4hrfpmkynxTBwimxSl/L5s6+eINAYL6G38vjFivLh7JZ+dSDC5Vd3E683E2WGPUMwY4q/arOJN0rmOqiQBBHostSFEFCCKroagjU8IzFOg2PVEeCt0WwbuJAlFznYHivafjySAg0W+WeVt8oJENJIX0C10zvExJhJ4yHVWXo26dulgOBFWo7CYZg5DLtAbuBXF7FwGE/3kY85NQ9FJsgK/8BTggJU9ImP7jWRcl64ASf6BaH0RKZVOfB/1LDxBqmhDOheZV8U5S0FEVfUrahs487WL+Dhdy0hbzK19TedNk5o8XviEgE2fQaXzZxwujgXrOJnbNTjsCEH0HgczHSXi60C4GG0BQz+lzWnGwVUrWAZ7akENZA8KXd9964GaPH8mPg6vubXl8cYDQxruh8o8CBJMMMFljkgAEZvEsX40tWzfNm2CZSrKzOzwLFq1EVVgQ1K6oAIFZEL4Exs7l5/0Dy4AIIPRBAlPwlR47zSC7CYJjkRIsZK4EAg+UmVEEOwaQWG84+vBffh4EEazjH/OpqULYYYqrtIgT01Vpj5I3FgcQTJHQulaqmmequj0bZe1Cli8yW7/NCizsgQ0g2IIYQzWaPSrXxEpcLfuPksq5EOZ6nQVBBgjCOiDKydYCnSKSaaanXzQoT52nQozJxkOF/j1fgBACADHTbgDBNg4noEDWjY21DSCI9eQB93wOjJnjuwxELgQJGDBF70sUHyQHAYncuuB726SARkIb8g1u4URJqsyP5KX7AhhA8EFBGN3L34oTZJviYrExrfy7SfGrm5LNASCoQkAGBerfLjQ0mR1d3nUtY1OyrvUUo5zqDjB95m3bHVk2a44JmPA1HPrj5c9iX6HmQHR1O8gGaNYC+794BZs/rflYWLpj1TwgncKSxym3qfPZZ5vi/VnJcjFkuyHCC5ni4Fb+o9bNY9JaXXNh6F1ZcobH5KcYdDyo23ioY6qVLoZgLQF4ahjwxQ9AeTm/j4HFC8hxBMLVIF7ycyQEcQn0vbAU+G4HHeOEfuVQndEi27ZlCZ651H/D/0ledzYQYDqelJR5+Y7JTVgmrbuml3cFGDo14vpuddGgWErcVq9+5xmlgl4QZlNK3s0Xko6hYrIDhCTtxoERWSibAIIvUrJgi8xrkZNBYpNSkJMMeo5mSQ39SRVts48K+ElCJ5ey6tybrBKhm8WlVlEmDnDoedUGduTf1b4msQoFPWT05Scakq+D+NtWRX0yv2YDXQBlq2qHi0FlC6I9Zf17dQwwm7L/VXBLQvSoY5jxkMpHTifIJx2EeU8jOXnQYfbCa9U4g/MPyaB7ex8xa3g7DiC4CGHX5VKbAYIrjXTlajNAsAee+XxtCDarbQAhcvRStixIjGVzW4ibAbMAgj8Zcqped76Wd98CtnATJ5ddGWYtKCyMcuudTima3XFR60lUyUZUu5I/I3zPpT1Rk8tpGSEfcpUTIfBJTn2d4o+z4OgsCrXKghAyDP9LnjSyHNBnBhB8IEB/s//83wg4sM8xpn9+0xjdS+DjvgxYumI6/0tH9QUQp3LyaQXqj4zMBc4wBfmw/vvBQXLZXEzLNitFuCB8ujlweyHBi5soqZ5SDqTIZraorCpax227/Hwa1vFeoXlS1JdPP03vFsN6YAM8qvIRO0q+P4wemwvrCt2MJrdT1CWhXjYk1my8/UuWMyS/mCJRXAahHJCzgxZjduKPENrpHAJTzkMc6IRyMqRRCMhMYDbchWcHrcYrbWo3zl1kBYM+aXm/kwOEXGcmCsBqUZBiHEAQoID+Ff48ClxkoEE6zigARBC568cSsM++FY7AADfJASX0t/+9f/dI8FkHEOIAgdp/xjYS35gUgquydgUKuTLepvSeTvHn5WLw+UOlgRJXVlASmYBjIRoxAQSZR23Wr2ICGNsYawJAUA3cehOy/hhmMD4/D0GwU81iXP5FJlMSyTjJ54adx4qc5efWAiv1/ALWgraKpN/5OHVBjAkqYUXVTVLIk9mrWg+6uFB34U+bH58y2AsAaASrMQMM+1BIWsdTVAYItdqCQDMnJkD+l4EACb0FVgT/y+D3iJ1PAggCKAjrgQ8AAwChpFTmvrwo6jUyk8TjKphQhbaoQwUINsGtW2QuiyXpQq7J5fMFCOpyNlka8ln2NutFVc2Zztpls2SpPOgCTl2sakl5qqpoxNdUXGId3nObz13ddXpKoiK9QhE7aB8scMQgPNs8q6HLziQpcROVjwKERK9qCut5Mlwxut17qOztAMEGDMg6RBtD2XkTNyadpSE3d1G+lAuDagU/1po8CCGSDImoCllmQfABQuRfEW/guyFMAk6gb99C56cWlcCDrxHk9SgrCds6tQlJk2BOYkWIAwguFov8WbT6a9hcAIKL4s2X2nEAIQ4I2HjSxms6X3TSsVQHQIgzkccBBFUp0efglnlpIPzPUDUJOorTEuJzvqCgKngr6XzGKmGfRjrlHokP8U+n6eqKljNbJARAcOm/6E90Lm12B5eacytT6y0IqgKULQk8TagEIETWRHHfQnTtZc9AcAkJ/4kWkWyyY2BAQgRJrAcu0x0HEFyEoU4omwR1dQoImx/ShVZVWaY6LAgyIK7quRLWLBvY1PGka19VgMDXm7tNxmU9FJJHCgNohMuAj1P4ubP6KVsrRLyTSF4kCvsWVNOat9HHdZ5caViVa1rXVmhFzrY0CFrLPCaDOXVuBUCwWRpEffQ+j22THU/uvOxKY1s5dRy10sWgAwh8tenJF/ladRzKr8gFhaUgbkbE/Du6F2yTa/vdZH0w7QB1Lgy5jUILCFv/o7/HTUSymjbV0jYXQxaf18CBykAispRcBue/IAu14gMEme+S8WAhAIJQVHEBbsx6GegW/kcS4C/K2wBCodmpKgGCru8yQFD5SMdjepDBeSIRQABZgih3jtqrFCAUmsfS+mIooFoX4ohlMxsnVT42c3E6cckp4KJDq1rIJx2FK08K15+s7HQK18XP78L35jKuzid9DbmCmSh40sUyZOcxMRlTdDRX13sc38RtDGxuIxt/hEqXzbSteMF+l8fL+xAFVnFggPNk2FdhDRCnQXSWrsg7Hs/kK4abZC4KRgAN2BZgtNbFIBSaqJt7fTLD5qNwbAKrWBaJfIXWpjq/TFny0+xM+OQzdzINijVPJjpTv+k0kEhiZi6n9wmr5U2uCZU+hRynqEsFCLlYFQQIktdTAs+KkZ0LwR810R2ZHyC0r34beNDVwDjVDzCV3RAmMCHq4GXzB06hTAytYLq2a62LwT7taQkbBXR+5iSCKolAkpV8IQW3bYyb/O8ih0fE7CyfCS8ccCgmrWy8YtqZq8I7zvds6r8JYCbhSR3PuoCD6I6a95CfOig8tU3xIHwnaXdTyD0yzZeOltUJ4G18ZaOyje9kxS525P4kBh7tyspK6xXwYT948GIcT7ps6KL8aD7SmQIEGwekv8fuOFRGtfk6dULEldmFoEqnJAEFxIkcx5wZcTVXJzCzCXKboDb57PmOLHvU8g4r2x8tFDX/19Y3rtTDADSz8jRrfXq/GKBAN98mF0SuazvOpSFoI9OxKvnMZe7MayKqWJPELTDrgQgylTqhS8aUDSTD2zts7qJ4q5g4WhrDw7XpsqYEYjUtWgAKqL40W5U6ZrYJYJswsf1u69Mm/7s4lSMpqOhuRPoUcUNoIm6rmRj5CfNo5+MC4rgJn6kuY+6C3Ppi3qmJ9mSFWVWAoFjT6mJhNK1527rPt8+h0s3dFJNPvAsDB9KphTh+5LQI406Ei0Hljzha6jZmNneGD39rz3XP+TJV+n4yCtgAQi6AwNSDXM2Umz2ASAAQoru5mgcQCqk0TALZFkSYBBjYeVI+TscBiU7ob4pAIc4qY5vHYq9J3rdkJ1D0lhZ74ivte3HHUzUvZLvJsk+mxNHUxIdOACG1ICRTemnpwlHABCBchLAsREx+zTg/qIufrnAjrcaagrwe/rXkQVfCnZNs/lZN7nYlV3Vjc+EL197YAII5IY5yNpk1GApsncnXpU+bIgiIG5e6toU1wWUO8wUI9t24vufZ7epARDSoL8mxWgFLqH8uJ5BEL6PWjuQWD9sajgcKtfAuBpcFm5apPgrogIPLd6pJ0yW2Icko8xVcSdoqVNlAEPlCSYxB5y8Nzeq8dRU42HZ+heqzqR4X5VKMPuitCtmX+HD6cIqbFMfmBgSS0jtuU2Azmbu2ZZsDl40DbysKEELXUwgK1T7Fuq4SWg6y6za3q5bV8Vnc+jGBhDRI0ZXr0nJVRgGba0JWVEkXgg1Nxw2yJgAEm/DLEir+F7TvqDTcBaCP7I/ucUzBfFXGFI7BgOKSnaQ7u7hx2NwOUWAgwFXynV5V0rK62nJZ26JvJoUm86suDiA7qC86F/kABJlu8vFEW3ChKCtiD3T0jxtX2OfC8FW220J2d8k3glazBaGYQjcfZVBdC85t/+UAACAASURBVCht140CSYKbXHdtVbFDzZff8wEIJrOmTgHqhGxV0Mc2+zbXUFL62Noz/Z7djrgQSY4jyN/PnWv/Nof3VHeN+KxTpNEgvmxwK4M4OQFT/HpU3Qmcqvr4imzFrduVi/sWkgOEwgCDEHxFLV0mUMXoWr4KW7ZumjdLZSors5NF6mpdsGglmjZvHvxUCMGTr+DNe/RpBVVKgUIBBNktYdu5JB1gTeBJWUUlAQhxAqwqM9zJ/SiEnEg6h+byIWWjAFQWvMINUVjhXrgx1OyaXOZbAINcAYJKgeiazV49IUANd9kma1VSgJA9Gzy9Im+zuDxktrp4QFk1AQTbbkDHvmpwGmVXM+0Q5e9dmK1mL5e0d8WigI4Pkyh3l7K5+ldNdbu0GVGuBSZedawnHZgz7ehMsiNpeXUXy0R1QlnNhW/Clwo8X5tqdYXgszhrmLqOdFbnsA/ZENsVHBjvzvAbpD6KY49hnfocHTIPFoI+8bxRTQChSbPm2oUW56NyIYYKIFzfUQWHTgCnLotNVcxYloC07k0xDSaloLNkxFk3XBWUK7hNAhSSRE7bZtplXdnqSPq7Khtc+pAPMIsDGUn6ngKEJNTS7KNzYFxbHIJoReeLF/E2psA9rqD1OTLi3hFt6sCCPjbBDBDyo6j7255XWX15EJIjcfvAbALTpORt79lbTktsqhTQ7RJdxqL3RWb7KG285QoGTArLRVEyYOIyKMcyJv+w4+s5F7PR3GVHqMqAOAukDewlGYjrPCWpc3Mumw+9XAGCSr8QzOmTWsnKXWc90AEE9cpn02c5PqEq3Ao23mFWDc9DtVzWJMcg2Dqq+93EPKadvzBPJnkvl36l79QeCrjuaHVKKxf3Wr4AoZggoapmPU5hm8ADG7ePjnRgwGRlSLqBsdEgH4Vnq3tz/L266EXtmoJddQG9Mu2jv7um4abrnsM2Q351dUvpoL/ru2bO2SQAgmlhu+76bDuOuIXlshvZHBdmOqZ4ChSDJ3Oluc06Yaq3WNaEXMeRy3sua1tW8pG/HRo00UgVva60rC6F5zDUGlukOmgW16btlIzecmFOsU2EJ4uCAAjh+3QahnOajQaZDOfAaLncAYI8hhpvQbAJYxvKdxEifJKiBM5V8IqVlu/7NXbFph0z7kaFlcpGItuCF/yoLvo465ipTfGOqxKz9V23W6quHAlR2RBePKMeY1PHlKuCD9a2UmES2soKIAmta1NZl/VRLHrk0rZ67FLuG1fy6qVOISeJ2ANRR3gqg0mB2GGG8kAcsZX1WC0BCIViBFl4m8yUqlXChVnSmIZCzVDtqsfmntDxlStA0L3raoRMsmuOCsbqnT9+N57/SLsGFzHpOuYkI7QfKXXpWZIWN5+yLnK3GKPNNZhUZ1WIAw18A8DnX3YtRK0POv7gOTbi6GP7PY5uuviJ6rEgLF6Jps3CPAjFmOx4QkRlSZx/Mrpj0sog9mWcb9RUh6mP+UxyVdMyba8wFDCBU5kXTNYym5WN8aemmzoR5KosRblcQHWuFDNaC2PiC3JtK9/34qwK1aUA8x1TVb3vqgBNm7Nc+5krQODyP7wBlLcf5lAwnWwgkFAhDTa0Hsi5NNT4mXi3g6vu0G4iNIRPAYKEyFzdFXI5EzMnmahUYOS6pDef90wWBZUnXcCsqS5VaRUaIBRjNiJ99D9sCntvm9shXfN6bqlOuuQCENSgRJ1bQLUwyJ9VgCCsCwIsqFSSr3ouNK30QKaaUi3ne4qhGMIolzrjLAdxZmTdzlBXVxImSEFJLjO4ab2TD0BwGWlSC4LOeubSjlqGeHdTUPyuY7MBBB3dXNevax825XI2K0Kh+E6mUT4AIZe7P6i96NFG1XIQ/RxmVYzGzMnWAFcekt9RT2ZkBVpWdarlhYtXomXzZlUqEUxmHplBdBdu6BYZY17FrMl8STweJQwu8SWeaoY11in9oNs52kzM4nWb6U2Ox6guIZJE0XFUbXbjyHXJtDah8Ooac01pNwnodO1zIeZTBxqiAhwoKbFHdbv2uarKifWWxNroKuiragxx7cS5r9Tf8t0EJR1vUl530RPZfQgDEW25EbS/CxeFIuckNeM0bD7W/GB29virwYJQnQBBd82tjvq6m7pEOZ0wDBaCtCIqfU2dBCDYQIDu9zjBo44tyYIxAY2qFF4m5R8FdtkzaNuBuNChKsfpJAEKWEjlSRd6FKJ5G5Bw4f+qVjKFGLdLHbY52dT4kYlCP4WwUFzqGIo1pnz5Oc4twIcVxhjIn3MCCL4loURhkiQAIRxvYQBCoP8otmLj6qq9rIkDhObIsN2AizHOZXnFl9FFmqoTazK1mEBF3HWfVHelBs15yneqEnYRkK5K31aXHhjZlW2xFrVtlpMAIV82aas0+fVt7W9uvxdq6eXKDzoAauJZMZ8615w8L4UaU3XMtWxp2BzGyRScokh1AKGQ81eo+Tfpi2hfaYTxCjnLXK9hcOFqUAEC43nHDKiFAgjhGW4+Mupu5YYqvqyJAEKrFs0Kmvo1nwWtAgNTXTqmMSFNtQ5xVpyDhhAUaQWixlTE3Bd5PjpLhtYaookKV8sVaiHmOSTt60nGKdO/Jo+p2HQqRv1UZ5zCd23TVXFu6vO3OY5Tt/2Tff0hSIzuyF15w3WzlGt9tvfieE6nV0w6xAQ1RIyC+F1fTr41NE9F4XkopXgg+q+EjlV6KFtbDQAhSQyCmrvaNmlJf7ehRVcUaG9XHzcuWyiCxeMjArGAKskHb28gtkQcGJCFeZwZeFMQwjbQowMQgnCbwvjyZIPI63HjVXexNtN+IcCAbmxCcdrGLStYW9ma+HuScdak/ke3PHY5pYsNUi0NuYwvl7XL+yIfJUymYPMBCLJe0Z0wkr+Ll/0EEES/9f2X39dmWPCDhIkWJT5A4HNQgwFCsYGBKxPaAAQjYy7c6XegqgCCabxxgKCQCD1XU7TrPLmWKzYAqinjtNEjCcvK7gDxt22ctt9lUEbrp6JiIyorKRG+reeOv9stwMaK1N08X+O8OBu/381A2Io/pL4Xahguo3UdargTlayYoDRT5PwU6ab4b/xzdBT0HVcb4f9rQV3wJU8ZXFpagpKSkiBBkPxOIcCBzEsu9ArLFw8gyHpBlfG6taHjF1WZm1wOnDct7g6hbyQCkVuDAn8ZT4uTRNKJIpqbarEgtGrRPIv51Il1AQi6qzP5IubXcYrHVC4JM+Va1gYe9OMUuJwvSa2LQcMUZGmQhZmpzzYfZ5Kxuu7cXBSGzi+dpC/FLKvu8EwKdlMZZ5wlReYh1TJgdstEzcQudBBCtGxDGSorK+ERQJCUS7HmU1b2KmBUf3MZR3XyrVDiQnlHlK8vZUs0yj6QjRGAENJfBh3iW6qHzZkivWUrgk7RETioV6+uFiQUEiAklX2C//j8Fc56IAMQoY/U7+TvIzRTGJLR1v9OBxD04EABPgGo47CPdA6NmdwJDBiwoWevvWoFCGI+dCZ8YYaKU64uAMJFwKxctQpNGjdmzCs/JLA2bNiAjRs3sq8bNWqE0tJSlyq1ZUxjsV0HalTyGoaulJGEAAuaQJdiAIRwAUR7vHTpUixatBC77LJL1lBUJeUCNtasWYvGjRvlPA+5vmgDCIKmOlN7LuPMtZ/V9Z4w1yYVtGVlZagor3C0wtmCwtziHlysSFFgEIIfF8BQXXOgtqsDD+I7AQBIZVRqzDaqUSTcsmSrErkOk+WEZKcACREQUwBTi7w2bZYxef5C63BxAIKOD1xj3rLnkpuxgriEYKDhTIX3osgWohAKlmQyKCnhAIEDlMhMSB98IFidFgRVv8mmfBkgmNB5oQDC5Zf/BXPm/oSLLrwQRx99ZAACxo0bj3vvux9jx45FndJSvPPOW+jYsSP+/e/+2HbbbXHFFX/JAhUugkEFCjTP69evh+fxqVd9dDqfXd26dUH/qScsKjZWYuiwYfj+++9w5hmno0mTpkxeZ61BxSThYKFyGVqkzPPPPoeXXnoJv/76Kxo2bIj3Bw3C9ttv548xcXXshYnjx+P000/H4YcfjtPOOAN77rmnEbSR4nn26afxxhtvsHf/cOKJuPSyy1FCTjbLU15ejvLyjY5KK74yIRgzdGwnfbIosHbtOiBiOUhKpHA+Xf34cS3orAty6tykvaup5WXwoLoSZPCgAgoxHlWmuOj5hg0bRGSmTZm70i5u3tU2TMAvSVth2aqxeAm9YHIxyHpDtjaQxKHVQTKPxRfQv1KXhRqIfMeQAx9hjbAgRCcmaqZ08f+rE6sCDTZe3bYOwNSpU3He+Rdi7ty5rJoLL7gAt9xyM/t79OgxuPW22zF69Gj2+aMPP8CAgU/h/fffR4MGDXDBBRfgH1f/HfXq1dPy1v/+9z+8++77mt+kMWY89D3oYNx511346aefnHiUxvKXv1yOq/7+t6y2v/rqKzYeAhvHHXcs/nXdddhqq61YvQOffBovvPBCYBFxaswvdFDfvrj2n/9Ey5YtmC+WFKga4KPW99WXX6J///6YP38+6tevj+uvv54pdd0jC2Wy5NStW0dbrv+/+uP5559jv3Xr3h0DBg7ADjvsEJSV6yHrz9133o2BAwew3887/3zcdPPNRl6QG3z+uefw6COPYOHChUnIpC2711574bbb78Cuu+1qvAkym4f5Nwa2jdSj2w0XSvDmPXipAh3Qp+/WrFoblArXqe/l9peKKS9JscbpCjRs5UyujGL1O/l8yY6E6NtkVeAWaG5hEO4FtQ1hfYhTleI3kpsUj0BPvOJ2G4mN/qIWm/XPrTVeKrRy8lGZdIso62Ix0G0Cs2UCh2pxQEytp5RZDKKyhH0UoT6+WUjeMrFtas0FCEmmKiyrc1PwCYpeoiGDh4qKCtx33wMY+OSTWLNmDduJvvXm6+jVqxereNy4cbjttjvwzYgR7PObb7yOhx56CCNGjgK926RJE5x91pm4/PLL0KJFiyxGGfjkU7jpJg424p5//ONqvP76G84AoU6dOqB3/nL5ZdKd4R5T/L87tB9mzpzJ/Lk0nqOOPBJXX30VOnbsgPvufwCPPvoYU+5Jn0MOOYSBmG23bYPFi5fglJNPxowZM5JW41R+t27d8OFHH0V2GqRIfvttJQ7u2xeLFi5kAO3c887Fv/7dn4113bq1kXHRIi4r24CHH34ELz7/PGv39DPOYCBHXdBkHWrarFmkb08/+SQee+wxLFmyxKnPcYW6devOaNd99+4RoRjn5nFxtYg2q8P/TRavVatWYe3atVi+fDnbmbRo0RKNGjZEs+bNtdYtE43Wrg4BglxGFzfEdjRlZcy6U79+PdYOfbdu/XrGBw3q1wetD/2jtxzR++K/JJPN+8eD8NSHviIabayoQP16cp88VLL2zI4YobJVl6epb8wVWlaGNavXgHbo5AqNU1pxYxSxBb5rmvVz7bp1qKisZG49MlEzuerrEPlfUa9OgdEOlYBG/Yb1UVJaEnsjYZI5SFq2EMAsqmvCuTfH5iTrpW5TLN/6GFcbsxb40YYs+JAKS+wpc2oc0AicFp6HDdVxzJGCFBPGhDhRWSVunAWCrAZXXPk3jBo1itVNwOCdt98MFtekSZMYQBj69dfs948+GoS222+Pa669DmQdIAHQqlUr/Onss3DxxRehefPwhkpaoM89/wLuuusuVFRUsrJCMdMCZu4BNnkZ/P3vf8PQIUMxf8ECJUtCOGQSArNnz2b1tGzZEtdd90/mQlAFwbRp03Dzf27FmDFjsG7dOqZkjznmaFzxl8vxzYiRePnll7MAwsqVq0BxAvQ0bdoUrVq1VFwnGezXaz9c849/YKutt8TixYtx0smnFA0gUKzCJ58OZn2Qd2BvvfkWrr3mGhYXst122+HZ559ncQ3Lli3Da6+8im+/HRsQjCHtykrWR2EdateuHbp06cIDWCVu6tSxE/7V/99GgEDztetuu0Wg+7JlSxmgozklsNJl551Rr27dYMu/ZvVq1jb93q1bNx8g7O5kQUhqESgEQHC11FG5X375GR9//DHef/ddxpMEFATvdO68E/546qk48MADsd322zutWRNAUF+mttdv2ICx4yfgl19+xR67d0OXzp2YAvvq6+FYvnwFDul7ILbdZmtjuzraEthYtGQJVq1e7dRfUahp4ybYZuuts4Cs+H3I8G8wd+5POLD3AdihbVtmDSorK8e8+fP5GoyR0A0bNcT2227r1B+iyYRJk/H99Ono3LED9urRg/Fkfg/v3IYNZXj/o48ZjU875aQAfImgRxe3AqtIAggZJdYrv34me7uQAEGVvbzuqAU8rndx8XVcNQTbeFSYOTpAAOx4ojiV4Ft+2Gt2j2rMetnMAIIru5DCpV37XXffjQULFjLGf/rpJ3HE4YcHkzxl6jTcfvsd+PLL/7Fq3333HfTcd18sWrQIN954MwZ9+CH7/qCDDkT/f/8LO++8c9A8Te6Ysd9iyFdfMQVGIOPHH2cylwAp7B133JEhanqOOvpI1K1TD6R0Vq5ciTp16qJZs2b+ToBXSQv00ksvw5w5c9C2bVvccH1/Vo/6ENPNnj0X991/Pz777DMmvMnSccMN/XHA/vtj8uTJ+GXePLYT2Gmnndjrn3/xJV5++b/MAtG3b1+cftofWduzZs1hfWq95ZbYtWtX9OixB+o3qI/Fixf5AOFH9n633bqhGd2tIe0qRL/YbqmSx1aQYJB3IDLvkin/xx95fTJAEPWQhefKK67Ep4MHs53i8SecgIcfeRjk1ydFfdONN+KzTz91nf5IOXIBvPt+1BUkWxC6dt0Fr7z6SmTXNPiTwbj3nrsZsNpxxw4Y8ORAbLnllkG906ZOxd//9jfGKzJAiOsgzR3NQUlJqR8nwf2G9MiCTf7ONTDSRhjV0mYqTwD0kUcexkeDBhnjMwj8Hnf88cy607p1a1vTcAUINO/zfp2PIcO+QdNmTbHPHj2wzdZbYfLU7zBp6jSmdPseeADq16sXHNmLBtp5aNWyFbMyyLu9Fb+txOhvx+HnX+axILrSkvhA5IrKCmbBaNe2Lfr23t9osfhy6NcstungA/tgxx3asTlc8dtv+OjTz1BeXsZkgRqXUllZgfXrN6DNNlvjyMMOC2hHFksav+4hlTRn7lwGEmi99e3TG61atjTqBX7ssNTJykCWmfc+/IhZis469dTA9aeeYrBOsgIQCrXbtrarFCgUQBAuL/X4omguDBbU99AZHPhWcAEQBD+H/4oTCVybEF0puVFwJ1Ae4IDLnVoKEObNm8f8wu+++x5beHv06MEAAPnKBQqcPuNH3HHHnfj440/YLP/35ZfQt+9BbGGRUvrPLbdi6dJluPDC87H/fiQoSrUnHSZOnIjr/vVvjB8/AZ06dcJ9996DfffdJ8I5BAzIrE5gpGGDhjjppJOw//77sTrpWbFiBXr22p8BCFKg//nPTUzhawWG57GdC7lOBg/+FAf26YNLL7uEndR4/vkXMG78ODRt2hwDnniMjfeFF17EDTfexEy3FAB44w39mSXh2n/+CyNGjECPHrvjrDPPZH0mhgktCFyhP/P0M9hrzz2Dc7Syn2zkqFGYMGECe2/HDh3Qr18/bZ8//OAD3HDDDQFA+Hjw4MBXSV9++eWXuOYf12DB/PmMxv995RV06twJ4779FuvWrWdxIRRMGlmwlZXM/C0sNw0bNWLjiiB/D9h99+545jke1yAeGSBsvfXWOPnkkyMAYfoPP+Drr78OrEikEKlf4iFg8NGHHzLXlexiMAm01atXY+TIkaB6GzZshMMOO4ztwE0xCHI9sn9V3SHrfOBJhaooT2CIrF3/++IL9hUpuJ27dmUBuzS/s2bOZNYa4iN6zr/wQvzrX/9m1rK4xxUgrF6zBsNGjMKixUuwW9ed0W3Xrli+4jcMHzkay5YvZ00QP5tkIvHl7w7qw0CFzAMCICxatBg7de6I5r67yaRMli5bhtlz52KbrbdxAgiHHNgH7QOAsAIfDv4UjRs1RudOHVG/bjR+ad2G9Rjz7bgsgEDWxQWLFjHXpu5Zt34DFixYwKwgBFyaN1P4XHqpfv0GaN+uLZo2aWJlBdqYMAvC2rU454zTA2tJvgCBGi6E5cs6AKlAIcBBdN2FpwHUOAPRVpzrO67vqnuNuRiIZh65EMKjiTzwkH8fEcB5AgPRt1oJEIjZ//vfV/DY40+wRUWT8cD99+GPfzxFEhxcyd5x510MRNDz6CMPo1evnsyUuXDRQowZMxYzps/A9m23Bwl4MnufduqpaNNmm2DuCXx8Mngwrrzyr1i9eg2OP+44XHPtP7Bj+/YR/vjp559x662344MPPmBC7q677sDJJ50ULEiyPvQ58CD2Ts+ePXH77bdil65djTxGE/vzzz9j3Pjx6LbbbsxiQZ8P63cEsyrQbvell17A7t27ZwEEsk6QL3P/A/qAgBQFAd5+2y04+OCDWXuk/E4+5Y+YMYMDhHfefhu9eu0r9YWOTXAOvePOO1kgIQk2ev/5F1/U9vmD997DpZdeyn7bddfd8NEnn6CUHdIFA0U33ngT3n3nHabsTzv9dNxy6y0Y8tUQ3HLLLcycSn3s2atXhPZUltwSQ4cMYfUcfMghOPkUmmPeBeEHJpfNAb17R/r19FNP4rFHCx+DYJqw4cOH47Zbb8WUyZOZQj3n3HPR//ob8gYIYpxxwsj1t2eefgr33nMPAz1kcTv2uONxxplnYNttt2MA4ccfZ+DJgQMxcsQIZgmhefnw40/QuXPn2CZcAAKtowmTp2Di5Klsd9xnv57Mlz1+4mTM/fkX5lageRQxCgSsRSzC+g1lzPKwfv06/P6Iw1mgrQ4gUGxN504d0Kxp09j+Llm2HHPmzEWbbbbBQX32R53SMOaBTPKkpCn2YNyEicxtuFeP3bHNNtugcaNG2LixnAEEApOdO3Zk1g7ZTE8uiNFjx2YBhIlTpmDa999jYzk/cp3PQ20f0Ksnc4/Ynt9WrmQWD3JtEkDg7jn1zINSi8bKLhQmO8XgxyCo4NekTAvFw1UBEELFLmRM1AnjevJODfhkmy7PYxZYJhbpNAI1wdwKCsHNcae26c76vdYBBBI0o0aNxo033QyKMaCnUaOG+HTwJ2x3T79TMByd2//uu+/x0ksvY/g337Bye++9FxNCBAZIyZLvnv6lz6SMKBDwiccfR7duuwWEpjP7Tz39NO6662723T//eS3OP+9cZvaXnx9++AF/v+ofLDCSgMadd9yGQw89NCjy6Wef4U9/Opd9PvR3v8Pdd98VKEPqs+iDOsMkJBs3bsyEJfXx2GOPx4SJE9l3V191Ff7854u0AGHhwgU4+JBDGT0IRDzzzFNsp0gPAZ3nX3iBBStOnz4de++9N3bYoR37LQCuPs+++dZbGDZ8OGNu8v9feuklrJy6AAhsTJw4Ab0PPIjtzE74w/F+sivg888+w2233YYfZ8xAm223xetvvMGUxLXXXosPBw1iY6MTCpdceim23DI0aVOsAtH9yQHRUwzimGOcwFABghxfQv0nWlKMhxBqZJmQg8oIEJEipd+ZBeHuu9C9e3fjAqVTE3ffdVfgzyerxagxY5zybtgiuZMKRp35l2IqKM7m66FD2ZhI4b38yquBm4oLcQ+vvvoK7r7zTuZWo+eRRx9j7oa4xwUgfD99BsZNnMSsRW233w49994T3/0wAzN+nIkttmjFlHCLFs2Zch7z7Xhs0aoVenTn65DAwfiJk1C3Xl0cetCBDLjoAAK5GAiciyh7U583biQXQ7nvYiArXwgQ5i9YxNwdG8o2MGBLgKFZs6asXopDaLf9dgwgUB30nXC5ibbIRUAbGNXFsHzFCiaXKv2j0FSeQNiSpUsZoNyiZauIr5lZdObMYdaQ1ltsERkKuRe2at2aHT22Pb8uWICvhn6NsvJynH3aqTwuKBeA4Dckn2JQ29YBhKS8axpPoeqx0Uv8HmdBsLkXhHwUel64Duh7shbwU9oFMhFYBlTrAALtiNlOfdCg4Lhf8+ZNcdONN2Pst9/i11/nMcVPUfGkCMmsSoLe5aEF/+or/8V++/UKMjkuWLgQ/7z2Ogz+9FMGLu6++04cfdRRWf4/yrlw7nnns905KdybbryBARLBTE88MYC5NOg5/vjjmMVDBCKRILryyr9h0eJFWd3suW9PnH/+uQx00HPPPffh/gceYAv9iMP74cknB7L4A9XF8Oprr7MTGCR8jjjiCDz+2COBICTQsGrVapC/9PnnX8Szzz1n9MOSa4R2H/SQSZqCOnUPKdQ99tgDTwx4gvngSZjTM2rkSNxz9z349ttvmVDeZ9+eOLxfP8yaNRPvvvsuE6a77Lorc0/ss88+zAcrHjrFcP+99+GZZ55hX539pz+h//XXR2hPiqJBA3IrRZ+n6BSDb0Ho1Lkz7rvvvkiBYcOG4emnn8byZcvQtl07/OeW/zD/tngoQPGO229n/OMCEN55+x3ccfttzKJFD1mJ3nz7bSc/sQtv6spQW19+8QXLU9Gu3Q444Q8nZLkDBDlnTJ/OAl3pWDA9J518MotzUX3oo0aNxF+vuIJZnuj5+9VX469//VtsF20AYebs2Rg1Zhw7qUBPu7bbo2P79hg9bhyLJ9h37z2x9VZbobSkBIuXLsP7H37MFOxR/TjAnvLd95g4eQp22bkLuu3SNYtXhYth6bLl6NqlMzPP84eEsAplwYDxjJmzQCCub+8oQFiwcBEmT/uOKVSyNBJIbdmiOVurbbfbDttvty0DCE0aN0HXLjux/tMj6Ezuma9HjMgCCCoBaQ3OnD0Hk6ZMYXJlz927o4UUJD3np58wcswY1u6eu++Odo4Bo2o703/8EaPG8rV33DFHY4uWLXl/NSAhLkJeUNEdIPD4m3wUez7v5rqmxHtxbRuBUPCSuBiBWwfk/AVkmJXpbDoJVaix1yqAQLt9ci2Q24AWrngIIJxzzjl4/PEBDDS4IDzaEJhjJQAAIABJREFUgVNUPJm2d2jXlv3bvv0OLHEP7TaFKWnixEk49bTTWQwBmfbI373VljwvAT2NmzRmwW6Uv+CMM89mbR977LG45h9XM4uEeP5+1dV49dXXmHCjo5W33cbBAj20Wzus3+H49df5WXzd77DDcMMN1wd1UZBiv8OPZOW6d++GAU88jqFDv44AhOv7/wt/PPV0ZmEhhf7XK69kcRa657HHnsCtt92W73pi7/fp0wevv/Yqr8tfBU89+RTuuvseBgToIRAmrCEkTEU+CorZeOSRR5gfP1ykHtvFkXWF0bpxYzSn46hSb+n9IV8Pzeq/DBDat2/PrBXyQ7EZb775JrMikFXjyiuuiJxioej+xx9/nLVNAOGuu+9ieRtMDwV+vv7a63j77bfRfscd8ZfL/4I999qzIHQ1VTJm9Gjm1qDAw/322w9PDBwYiaOQ3/vis89x0003siBZegg8nn/hBVkCfNCgQbjxhuuxeBEHq3feeRdOP/PM2HHEAYRlK37DF18NYaC9VcsWWLZ8BQMIvfbeiylIUr4kQecvWIiOHchtl2EAgeIMDjmoDytDAHWr1ltiy9ZbMDCoRp8LgLBs2XLs0rVLEIOQ1WnftEJBzTNmzkQbikHos3/EykNAl8kQAMO+GcncH33264W2bbdjydbWrF2LQZ98ytrotusu4WkDP65sw/r1+GLIUCtAmPvzzxj2zQh2/HDnnTpjj+7dI+COwNT/hn4N2qBQrMHu3bqhU4cdEyd2+3bCBEyZ9h1zEe7ZY3d077ZbAJuiAaBRaglopZ5yiAMIVEMoe4sHEPIFHnHM7KqYtTELgWvABwWUDlnkMFDgqs7KpwMLrv0xjan6AELL8EhgUaWgXzkhbkp8dP4FFwZH+kS7BBBoB3rVVf+IdIVHGWcCMLH77rvjyisuZ6Zyis4mUx3txOk/+W+m3/z3br/jDgwc+FRQr3phCS2Y76ZNwWuvv45rrvknK3fRRRfhyiv+wo4bCqBx/Al/YK4Rck1ccsmf8fe//TWokwLxDj2snxNAoIW+77698Ov8+Qzg0OmGJYuXRADCsb8/GhdceDFTbh06dMCLLz6Pjh1CsCITSQYIlCNhjz16RGj4/Xc/YNbs2Wzht269BXr29GMVfMkxc9YszJo1mwW2EUB443UOEMQC+uCDQbjl1tvwyy+/aNmkR48euOeeu5nwvf76GzFs+LBE7ERm1hkzeSyF/MgAgeaAB6+GD9FRBD/S74JXRAniNxGsJwAC5UHgY8vuIo2XZ28sY7tyburOPa23CxEoVoBOf5BVoHfv3ixQUw60lOv49Zd5zAe+zgdqe+y5J8uKKY+FQPf1/fvj7bfeYuOg570PPsAee8QDnTiAQHQc+s1IBsR6dO+GjwZ/xgACBRsSzSiIbujwESxw8YBe+7LdtAAI9HnU2HFYtHgx9tlrT3T2FaQJIJCLgdwLujsN2GB8jUgXSlG/2rdrlwUQZJp9OXQYO8VwyIG9WZAiPXSKgQACxRqQxSMryIROslRUxAKEn375BUOHDWfl6Nj1/j339U9mhNCXxWKUl+ObUaMwe85cFv+wyy5dsUuXLrxdx2fIsGGYNWcuo/WWW2yBY446InhT5ycXP+YKENRu5avgRH2FqsdGtlzbEfKOeJNOIfAbFf35lP5RbVqm9uICQJMApFoDEEigk5n//PMvZHPMz9jzhU4A4fXXXsMrr76KDjt2xI47tkeHDh2x/fbbgkzttAuinSjlSaCTDK73ANBJh0N+d1iwg6UJ5xkCM0EmQgIIUyZPwgMPPIjHHn+c9e2sM8/Ascf+PqIgzr/gIhaRT7vgE//wBxx33HHM396uXVumTOiIoNgpk8K97PK/sLpUCwJ917//DXjxpZeY7/bcc85hO9/QxXAai65+9LEn2K79qKOOwqOPPGRcFwIgED1///tj8Phjj0bK3smCFJ9kuSBICb36ysuR3+n9AQMHMitInz69QwuCX2ratO9w9z33MPBDgZYk29577wP2K/lWKabhz3++GNOn/4hbbr2VnbqQH9s57YYNGmDSlMlZ46OTGQOeeMKYKIn4Ro4oJ6uGqnhEpZT46bbbb2cWG5vASrJ45U7n8l4SgBAnGGkd0a751VdexWOPPsJcFvTQGhr82WdZ4Ip+k/trczEQrYm2dFLh3UEfM4BwaN8D2e553PiJ+G76dGy15ZY47OC+WLFyJd4b9BGzIBzZ71DmCqBTAbSL7rN/L7T0E5rJOzgCZvPmLwC5GJI8FPOwY7u2wa5cnX8BEPoesD+LFyqpU4qK8o34fsaMwL3J40dkxc57QG6OnTp1Yn+LTQIpfHKVEFBjcSBbbYVe++zNknwRQFYfWr9ksZg+cyaL1SA5sUf3biw40nSzolzH8t9+w5CvhzG6U9wOuf5+f9SRaNG8WVaiJJFtUVVgAb/7f9gsCLb1kWR+InLAJgikFPdxwZK69hODAgVZBdPvX7UclwneRF8d3QpzSsTD+jWrsGXr+MBdl3nJVLK7Wu3PwsUr0aqKLQjUKzoJQH7oyopKdOveje2cSJkSQCBfrPDTyyOgEwy33HIr5v36KwvSG/LVl+yonO0hofbv/tfjued4Fj96yFx/xhmnM4U8cMBALF6yhJkYx48bi6v/cS0+9PMq2OoWv/c+4ADceust6NKF5zMQz9Rp09Cv3xEM/BBAuPHG69nYyMVCSm3ipEn4dPBnLNahW/fd2NHKe+65l/sZjzsOV1/1d6xatZJ9T9aSffbZm4EaAkYEUGSBJlsQqL6//jW0bFB/3njjNXz44cesLzvt1BnXX09HGcVByAw7tfHRRx+xmAYCCG+8/lpgPZAjfulvKkO5ID7/4gsGno444nDcfdedbNe4bu06zJnzE35b+VuQ5k0+bmmiaUlpaXDkVF7olHRp1MhRWGuIP6HgzKFDh7L4lFZbbIE/nHACGhFtNA1tvc026Hd4PxbYF7eQbcKx0GfHCwEQaF7Jffbeu+9hwIAn8Ksfe0A8/twLL/q8ExJFd+xSBQhRhRmKFHIB/N+gjwILApnvx46bwHjroN77Y4tWLbF42TJ8PPhzBhCOPvww0D0PY8ZPwKzZc7Br1y7o0W23IPsiuSuElcd1zZnKUVZHCowUD/Xpf18PZxaEbbfZBstWLGfxD5S/Ifuhm2dD0CTAU906ddCqRQtm1aHTBAR0fp43j20ytm2zLQMFCxctYpaVjgw8h5YBWsvkqiAXwy5+fpYfZkxnWR0pkRK5Rc0ZJ8FoSq6FSVOnsiDuNltvDQoU3aXrzti7Rw92EoEe2doiZ2FUFYFLDIJMl8RK1zKBMt9RUZMVT3fKwAT8TetVD9bVox3hZwIEOmNSLjypW19yPWoOFRMtxBg2awuCbLYhQlDa3GeeeZYpeFL29z/wIIvCjwMIwj///fffswU1etRIlm7Y9lCugP0POACrVoUBjpTg6O677mDBTeeddwFLbkIAYczokTjr7HNYvoAkT5/evRlAIMUrP1OnTkO/w2WAcAMT4m+99TZWriIFGlVjs2bPAsVKkFAgJUbBkSTw2MOiYignewkO+d3BLHWzbG4vdAwCuRjUeaNukCB/48230L//9czlQ6cm7r//Ppa4iiwnJBzpX7I0MNO/D7Wz8ggoY6cjeC1atWKQZcOG9Vi4cBHovL0tUJgyaT7x2OPMqkMxA5Qxs2WrVtZjiS2at0Abn39UoeUKHtRF7iJMlyxZzOM4fD8nvTNh/Hg89OCDLOMjxc7cfc+9aNCwQQBySuuUonnzFlknbkQ/yWpAMQn/9847ePmll4KTC1ts0RrnnncervzrlbHsLPpNACE4HsaZjmfe8wdK/EB/U8S+sCAcuH8vTJr6HX6Y8SN277YrtmuzDRYuXsLKTJ8xk5106HdIX1bbT7/Mw7fjJzK+OPzQg9kxRur7h4M/B50OiHvk5ESm1MfUN1Kg/X7Xl7WxZu06rFq9ChMmTsHipUtZ38mCQYpWtVIISxSV4TlPwrXZpEljdjqj3fZtWd6FsePGs6526tgBu+7SFRMnTca0775nd6302ntvdoqD6qE6Z8yaheEjRrKTCgf36c2A/aQpU9nJBsrQSPEEIt+Dbvx0wy0FOdIJkL336IHttt0Wgz4ZDLK49e19ALNeRjfC4X0NupshRVl6X4ALE91d+FleK0lzhZiUotofnRyK4xW5PB+DfN4wpFZwPJFZDPj1y1aB46gYBNCUx+hKH7mJEORUuwXBZHTI/xiHOsG0eEmg06IZPvwb3H7HnVaAQFaHf153HYYNG87oN3DA42yXbXtmzZqF4084kZ1KEI8JIEycMA4PPPiQ08VApOgpFoGEPWVwvOWW/6CzZIqktsgyQvkOmAWh32EsaGzy5Km4/oYbWJKjXJ9zzz2HBU/SvRPioVwSt97KgxR5tK24P4zPKxmVZJOdeoSM+igEghyDIPeRrB5fDxuG/v/uj5mzZjMhePbZZ+G4Y3+PefN+xQ/Tp7NshbR7ffLJp0CJbFyfRx5+CL8/5lhWfPac2Rg4cCDGjA1TNpvqIZeIuMiJABPFc6g7Mlk8iHqOPPJI/P3qq7TVEq3Id19aWof7wjUrWxUArq6FRx5+GGPH+OPyl9aK5csZ/xOwItC85557gUCBkPyUzfPY447FYZrkVgTY6CTHyy++yAJsaW1R7ESHjh1w1lln4cyzzg5BpoGIYt7XrVkXlOBcowcItOOnM/mk4Hrv34uBgSVLlrJYgCXLluHrb0awLIgEuilwj04k0EN9+3HWbHZfwU6dOjIlRzxJxxEpayG1RzEBBAzJjN60SXj1O71HPEqnIkyJhWie6Cjjzp074Zd58zF+0mQWayCuiSewQtYLUgXkyqDfqI9kkaOjiwRqKT8A7eqpfaFXKK6FrA90OqF840ZQ4jZqZ7s2bZjJf+Wq1RgxegyzInTq0AG77dKVJUOj3Av0PSl5si5QACPxCQVj0omQLbbYAtu3aWO0IFBsww/TZ2DytKmoV7cec91Q7NNXw4aD8rXsSDlH9tk7OGnEjuH5FzrZTOCRy5o0fCEHKbqsYXk9uJRXyyQBI3H1ZwcdZus1Tic/26GfF5ktRdNOIZcB5fiOSodqtyBs0ZL8WDZ2yg8kqJMm0+6TTwY7AQQyIVPKWNp9k6I68cQ/MD+ry0MXIz0xYCBzKRBgMAGE2bN+ZMLElEpVbotOIfz5kstY0N4hBx+M//zn5shpBxJWOoBAps477rjDBwhRuhLYEPn0aQGrZ/qFxvjjH/+Iyy69hI1H0FZYEKjdnXfuguOOPTZyDuerr4ay2zCpPJ30OPWPJ0dIN2LEKIz2743QAQSK/RgyZCieeupplvSJ5oBACOX6p1wNP/30MzPzU79ol/T0M88GO1mXObrv3ntx+mmnsqJkJbr5P7fgKz+xksv7ScucdtppuOe+e7NeI0VBVglK0UwA9rjjj2MpnFU/os3NYPI7XnzhhcyVk+Sheb7s8stwyaWXRV4jQEGngejECR1/pIdoTzEmJ51yCg466CCnM/ZaCwKT+FRjaLwWvEYnGmbPnsN2r82aNsGSpcvQulUrFiA65fvv8ePMWdh9113RvEVzdmKBkhCREqXgw6ZNm7BkSiazOpWhWAZSxt2l0wVvvzcI5RvLcRDFEcTc8cDlvIc5c3/GxClTWXvkEiElTacpeKplj/WZjg1SHAW5HCjgcMy4Cez4IMVI8P4pck9kzpVmgeaZ4noWLFqIUWO+ZbEGHdrvwOJy6E4GslRQAGPv/XqiQX1+LwO1T3EbtFZNgYokgyhjI1kryLqyx+7dWWAj9YusIf8bMpQdJSarQof27bNOReisBzLzJAEIhfGhx3N8oQGCbPWSW2abJynwMJhh+t7HEpX5qbskS9upLNGmGl0MlLs/BAjc9yP6rfprnMZjLCRMlLkABHr32WefYzch0q6RTPCjRn6jDbxSO0Aujf979z2246fjXyaAMHz4107WA1pcpMz//OdL8Msv81g63ptvuoGdNBACwAQQKL0qHVtcv4GfJZcfcqO8+eZbTPlSemcCQZEkKv500O6QsjeSQFYBAiltCqx84vHHWNXCl0epqgkkUd0EAF579b+Rth999HE8MWCAH6QYnmIQhchdQvkfKNOgKc0s7QivvPIK1ibdoEnzRKdMDu7LM08y2gQKx8Pwb0YEgXSU9vr0009jZQh0vfzyK+yiK/Uh/yolvaFEVnEPCVLKx2B6Dvnd73CJnyxKLkO78VtvuRVTp0xhwvhP55yDG2+6KRYg8Dn/f/auAkyKa+kW7u7u7u4agktwh0ACcf+TECEQg5BA5MWdQHBZ3CG4u7vbsrjr7v+d6rkzt3tu28ysANvvy/eSnZarVadOyVV/SVgAQsh+7hlD+W7NJXOa0wCxtgoVKqQLjIXViMqTqHkgLjBwP/34I40fP57AQODCWKOqYpcuXbj8tV1pZWOLcdyzTrAaAILWzyhav2kLtxUHNEF5obIiYgrg8lu+cjWzCUgdxCFOiFHBM8dPnKS1GzdRyhQpqWa1ypQhPTKD9C1A8B/OMdi9Zx8VL1aUKpQt7d3fAAjIlCiUP58Ue6QNOtpcIH8+zhAQFwqjIVASljwKNgEAiCwGKF/48dEP1EBAsSekKwIgAA6hiFICjlBLwAd/oVKjKHJkNKVEH8COIMsA7gMc2oSxR8ZHlsyZqSayOtKhaqRnD9hEiGG8EOuwactWjnXA96tVrsSuCPQV+2/H7t0cKIl4C8QyZMuWVTpfxabCIhGvM7BjgoEXU8H/bWin03ZbbkiTH0MFDLzyxfNClnueP2onWGrBJUhXFOyBRyBpd2keXO1PcQwgiH0XS0GK4njd2BkVpwwCBgmR9MgK2LNnD0/k2DFjqKHHv4n/htJet34DgwdkAAgrBRsONPQnn3xGU8PCTAHCwIEfssC1u1DMpnu3rvTa628wE9CyZUv6aOAHTG/Ll5FBeK5/Py4LDcWfm+v768ccVRE/+kicxdCVizSBXlYtfuPf5BgEMASIixALH3tj/Yb1XJIZYwFfKVwesvMSAZOoImlMcxTfQUnbAQPeo2XL9bUKuKZE2bJUoWJ5KlumLCEFFYdTffvd/xggwKf+x++/KocUNSWWLtXKL3894iuCVY8LbUDg6LWrV/2eg3CHO2Xq1DC2miDowPrgGRG0ChYG4AmZFcjoEFXyIqViqLDKc+TQx7BAtqBEMcoYQ7jjAg28acsW71kcdmtD28z+d4mpPnb0GF25ckV3AwAjvgt2C1UeB3/8MSVDlUHPXVCyWbJmoSyeuh0YgyGff07/jBzJihrrqFChwtT3mb7UpGlTLt9tF9Cl6sfN6z4Xg1k/EXcyYco0VtwN6tYmFCTCAUtIX4Qr4eSp05zuiDZXrVSBc/6hMKHcUY4ZQcYAFvDpY47kK+L8BVqzfiPPPYouQXmLrAAABLgEsKeNVQ8xUDiIKbdJTJIxzRHrBedGHDl2nN0R+BYUMQACGCQ5xgHxCuXKlKZihTU3iZUfGdUjMRZgCcUFtwKAkpuKe2AhUHgJGQ/IjKhUrhzlypXTyzZgD3Olys3awVY5c+RgF0bWzJm8Ycd269QJQDB7RyiVeijf5ROUWgEpDQggasszb8K3YDc4cfB3zHksAwRe/n6bwJhq4hs7O0DhjH1wAxCA0l999XU+TAkKoWaNGjRhwjivpYSqcUOHDqMdO3dSx47tOXUQlCsuKHKc/GgFEPr360f/+97ebYFgxAHvvkuv8rkO16lTp0703oB3decP4JsyQChdujQre/xt+PAvOcjQmF9vBxCM61aO7QADIAolaYFWvrKzeM5YeMpoXcq/q1wM+P2zz4dwRkX+fPmoeIniVLRIYSpStChbMVDOopS0zPSg8A+O7lZdffo8w+dj4JIBglk/wQShuNbs2ci2uMYVH5GxMXXqVA58RYnuXj270xfDNAUPpgjnevTt20cLBDMcL83fMZgLYWFhXE76zBmt2BXGYuz4cQEpXH69ZxuoFIv4zZjF8NfIv/mgKPmSYxwQa4Dy3OGeao/58ufn4EyAMRyEFejlBCDsPXCQVq1Zx9kJTZ5oQHv27ecaBwAI8O/jwjkNKKmMlMe6tWvQ7r37OIsBZbkR5Ic907BeXQ5oFEAGe3v3vv20easWpIs0SBQ/wjO4ABAAhuDf56JMhguuDLOSxUaAwIeKzZnHsQ6ZM2Vk6xwlmQEQwEKUK13KW+YZezRlilTed6vmEe1F7MWOXbvp9JmzuowMtAljVbZ0aW/1Q6v5AZDC2RFHjh5luQbXQsH8BbynN4pn8U3E+KzftIkArFAZEkxCOpzmKjXSzHmsAwguF0ywSt0uwl/VHKeBiowBQMl7ahgwa6DbSC47G0dujzWAkCmjz4+tDsYKNHgx9AABcwUKHnn2OPEN1Os334ygVi1b8jTu3rOHPvpoEAc+woqeFjbFm9ImAwQUlhk6dAiXhe3X/zk+DAob5v33BnCQot0FV8Kzz/ShF196hS3y3r170dv/95bfkboyQBAKG4r2uf796f33B/i5R0IFEOzab/e7WZAiLF8IVwiupMmSMv0KK5D9pWfPciVI0MQ4SRBHeINBCAVAwPtxYuPnnw+l/QcOcPZE6dI4SfMTVuRghsAQIfbin5F/07x5CzxugQQMXHA4FQpe4Xf/gjh6oBtxLoImTJ5MU6dO4XoPL770kl/RKbvxc/q7DBAGDRrEcQ+IHzADCHgv4jxeffkVWrRokTcOBOWgEbDrZcw8DUDPxMHEOAIdgMrquuFhEPxodM9DCJoLmzGb/exQojhjASl4MkCAxY81AGWZP08eQvrq6nXrua3wl584fZr27N3PqZAAGFhLmN8Tp07T6rXruegQghPxDYC6yhUrUPasWWjKjFkc5FgXMQjZtAqomtLwHcVtxpoYAQKCF8FmCAsT1jlcAYidQFE0jkHQ1TPAN3wpkPIYop0ASXgWVRPBPsDdUTBfPg5EBEuBdsL9hqwH1D5A3IZsjIl1gDgJBHjyuQ6JE7ObpnjRojyvqr5h3E6dOcNpl3gWYKdK5UoM2AUL8rgBBLAFHu+Qb5rsbFmnGzYW74tVgCD3W4sTsIZcKgRoRr0ZLShjtCsYhM+H6LMYjJXh5NZA0Dz33As0Z+5c3nhFixalCePHMhBYtmwZDfxoMEeEQ8nhGGVQxLhkgKCaZwCEo0cOOVoCsE6nTJlK//f2O3z/K6+8zApIPviJo7O376AmTbVyyvLVpXNn+uKLIb7yrp4f3QIE7TENiKGgErIYIEhgVYMN0X7VqDZQ8jhoCkKlRIkS9Prrr+lyp+fOncu/w7rD2E2aaO1qgWCEQlu+YiUfZQ0whLmpXbsWp2ItXLQ4JAABtSS+//4HwjoRZblRS+KvP39nOn4GH0892AMQitP48WMZ+I0aPYYGDBjgjdEA7d6jezdmE+Crd3PxGpaYBqx1KF6hfPEuJylMZt9EUalBH+kBglklxZ07d9Ibr73udbM57cczzzxLH3/6se522RJE+69f87gY5P0vYhWJaN/BQ7Ri1RpC2l+b5k15/QqAgGJClSuWo5TSwUNYD8g+gNsAVjSKCeE7S5at4OC9xk80oDy5clL4uQhavGwFsz5gpcqXKcX+9QOHtMyFIoUKcqElWPfImgDzIBSgVQA0OgtAju8hxRKsReaMGWjStBnMCCBuAu4MvFtcCKCsUL4cpUqRgpImTcLrB6AFSloEGQIA4X2oPgqXiph/yJpKFSowgBHBh6fOnqVVq9eySwAXGAkocowXsirwTozJkePHOX4D7YX7BkxJmZIlbUsy49AogJAt27ZxGWy0E+OM94t6CKhJKS4RvBgcg+DM+DNbm05YNZkxc5IhhHvwjyhTJcdSCDHJYOkhBQtxBiDYCRznLgdfAJG2INSLyuhi+G/JYj621uo6dOgQte/Qia1WbLiGDRtwCiGUEgoNIRYBRxajDDKEGa5AAAL6Cqsg8sED/g6E1b179+nQoYMcsIegR/wdsQLPPNNXt5nhAsHBTqDExQVrtlPHDvTmm294gYvcz8AAgvYGZHf89fdILbOgTm165x19ueohQ4Z6gxTrIkhx/Fht33h266zZcwggAdR9qVIl6d13NPAjLgQOLli4iDZt3EQ7d+3kYlfGbA98u379epQtazaulgkGAX7+fv36eUWUzEdNmDCB4x5wfT1iOHXt2oXbg8O5Nm3azGWvkVGADApcYCug/FEIqGJFzRrWA4RiNH7cWI6xgKCdMiWMho8YwetEBFbieO8uXbtQi+bNmGUyK6MsgjvFykX8grDGrMGAHOSrjZ4deMC5FZ9+/AmfxVCrVi367Y/fvS4G47Nz5sylzz75hFAd1M0FgDD4Ez1AMD4vGASz96JUMCL1SxQvxjUPcIF9W795Cysnswt1BYoXKUKVKpRjBbb/4GGO6UDZYxRLm79oCYVHRDCIqFqxAmdHgC3A4U77Dx6iO7fv8OmJcqquKKvuC6qMZBFTpnRJVvwo+bx1+062xpFWiftaNH2SmQModYAOZBZAceM+/A1AQEv3lVOCNZaiWNEiVK1SBTpw+Ai/A2AGbQADgjRJvK9ooUKewGH9vN978IDjCZD5cfnqFZYhWI8AgbWrV+N4k/mLFnOf4YZEfAZOnDRjRIyFkLAuz56LoC1bt3E5a/x386ZNuEIrrz/DUVf4GwCCXR0Es/kMpYtBfENldMpuBZWLAc8AEHBGt/Oq1W62TZy596EDCEZUZ1zMqsnVhKUewqkYBFUlReNM4VyFYV9+yWAAGxVFjyDsociAwJFX37x5My/tKgMECClYlBBSZ86cZWWiYhCg5KdNn05Hjxyj9BnS0/Vr1+nkqVO0ehUqsx3jJoG5GDToI2r7lL4mA9rVv//zXG0Q7UMk8rP9nqXOnTqanqQYDECwW8lDhiCL4RcWTCqAID8vz5GYx2XLV9CgQYO9Cl3cj74B+ECwYd6MGBJQAAAgAElEQVRatWxBOPAIFrw4atiubfhdxCBwKe75C+n/3n6ba2XgwjdgnYF+/7+33vBmi1gBBPQBAheZECg8BDZHBB7iObiJwJKIQEV795oWFW2l7JloQCCkwStnx64dPLCfJk6YSCdOnCCUg+7Xv59pdg7iL8aMHq2VnjZY+srykZ7Bxxki4ohv/Ekl5BkgmFlYnj5du3qN2yYKeF2/eZOrIx47fpLues59kJUS9lq2LJmZXkcqpPFCuh8yChDYh/LDOXP4qlzi3suXr9Dp8HBW5Deu36Bbd+4wYIcyj+KCsVrDWFkkSsiFh8BKILti+87ddO78ebbmASyrVCxPO/fsI5ywiKJFiGXgdcLHNV9knz7A6O3bd+n+g/v0ACnPUVEsVwoVyM8Blyc9R1YDdMAtATcK2uwkYwRrG2zJseMnOIURh14hADJN6jS0cs0ajtOoWqUyV220u4x5ChgFgDQwCahBUatmdSmrAfpTm1iZQYhtgCD66K9L/NcnM9v8gHaMopctMAQeRmfGhd2cROfvDw1A0AbBtym1CbHmbaxoQCNA0BiEnCZj7TtZDEcIDxs2nCZOmuRXdAilgnFkL4LWxAWAMPjjT9g1AKWAoEKkZX01HBZmOAu95cv+030XGxoHFKFMs3zqpLgJzzRr2pRef/1Vgo9XvgA6EC+BioNFihZhyh8lic2oYzwbvQBBzSBowtWn0czmE5H2qEMBRYsCTSirnCFDegZmlSpWpEqVKrGPH/3DsdMjRmjpqKqASTFOcmAkqjF27dKZf8KhUjgOe8aMGQw8UHypW9eu1KJFMz9BbMYgCIUPixDnY+DMiyVLlrIShtLq2bMHfTx4kHfK7AGCdqvMLMjzjb9DmUQhKMoAEIRo833Ms4sMAYxG95uVwJHvtaJsVe9Quf1wnx9AkPvhpU+07S92vLhFWN7CXPVKBESRe0oPG/GMkBxQ9ohtQeyB8dJcntrHfe3W3iQsfdniF2cboD1Ih7334D7HyqAWA96Df1DoSRXoaJxPFVuKvwFMwN0BN4Udm6Qef+1wK3BS2qmWCQnyDP/vBGhoEliDCPI84N/v37vPrq9kiO3wuBflNoj5QkxEAk+ZZqt15j8fbu62vtdsHfqUvH4jcboifkzoiTMIXVPi/JseMoDgbjyjAyCgBbAIcfTy5ClT6NChw+w/B4X85puvS8pY20I3blynmTNn05q165h669ihA6cOoejPzRu32Ppo0qSxX8eggL744ktWLLBIEakPpYXzHCpWqEAdO3Wg8uX8U7bQZ7AN/4wcxZUWa9QQxVfMxy56AYKaQXA6kwgCDAubxgfG5MurHamNA6oAtqBw5TmWsxjAKnTo0M4/nD8qimbOms1ncOCSAQKA2cqVq/nQLrg7EISKks6qErsyQChVqhSNHTOaXQzGi0vWrllL02fMoNSp09Cbb7zG4MZaCcvAyaeUnIyZj/rW7mYVJ+r8J9BlmHqUnX+VVz9g4eTDDu5RAQr8TQcQjLHJBoBg+hmzqDjPA0ZgIcbGQbNd3+JPS/tAht3LzICg3XPWv+sNqWCoesEgaAWCPe5cCS74HLqedWsAFGBMLQGCKjYd61b19+AGxfRp7/x5gLmIM+A14xlKjVnw1TyIpqbE+msfC4CgstJQgAepbqi9jzKnb7z+GluoaheFkalAada7tHHjJkIwG8oflyhenKlo1EMXolmjsLQCO4gpAOWIbyVOnMR24hEljwqCKKMKgIBARKRgZc6ShQ9MMebSyy+EhYyocwAKJ3np69at4xQ+WFQ4hwGpkNjIobhmzZrN/nxYuQjsfOH551y9VhyrDAvHaxFK5pM8X5s2beJMErhZ8uTN662QqG1sUPCalEHgJM4fwG5HX8uUKa0pUz4Q6hofB46AQpGqqmowamIsXLiIKWiAkY4d2pvej+/Cdw/mBy4mu2OcVcBW7Qv1l5pWTIPcD+19+nUtdGykXfCCYkCcsgkq6+2GVGpZV+Df1UqxulmiiT23Ga1g8bQL74lt61RMgFhn4mGze2xf7voGATRdP+jiAcEuyOCBe+zYxeDPgvkXUHLRoIBuFWcjsBfBsBeCBQhOAh8DanQ0PfRIAwSrMYPSFYGAWASivLB6wxoEqYRoNYozkmuoO1HG0TSPQb0WYAeuDPQdiphRfgBKQtUIABU+JIiI3y2f4xBUoxUPe+lmz29mh+sYD+DxWd3OzRRxyA7GDArfyfG5bvvro7nVTzpVLuZuDCxk39pm4QV/sbXnTtmYQAECXgYGQTnyTqZDZg78cbwEBzRFpWIS+CYbBkLc4mYOrRhM+T1O59HNtwUQ0b/bP07F7Tud3q+KVcCzMJC8mSBOXyZm0cl6cPlO7XbBhGiAwCj6LON/QtimQOIYohtwPLYAwXod6SlBeRJUFpr2N/0Z927WaXRPspu2PIr3qgSwb9P7tIrPSjerSuiM7g8VTWwHEIxzZaVoVAGgZgyCX2gPC0EDTW2Tbmnn55XbfvvWHbr/QE7eVIS/mwUSqFwS4uU+vlvWA75PmwIK7RYvZvD8iwo3GT+hU/zSf5hhLuOcyWsnWLngvw5jDiD4psAHFXDAFFi0uAYQEuC0Wi0GMSjDyCw+x849YgQgob4/GJkeDxBsR88XGKlG5fKi8okLc2HtQ6giDVOtUAyWnR9StRJN5p1SUdW2QyAFFIaKWXDyzei4RwYBPjXg0R8mO9NK4esFuubGsAMIdr+Hot8qxeMV2p5+GpkT0S4Vo2KoC0dRUVLNeUn7eYGBR8OCoMBKtWIYcOjQrVs4VVG6jIGKZoNi4rPm2+0AgulAGx7UAQS95z06AUKw60C/zlTgQN96GZD4xxe4b40IaBRPIl0YGVx2MsSpUW7crrbBtlJ3xZJlYCClKrohz6y+J693JwrfeI8MGuyel2dGN4ceo9X9zPmeiAcIQYyevxAWL/P5u5283g4gmEtOjxR28hHPPY87QLAaKiufsRsaOCYAgJMpN6O45TVgvEdmLawochZa0P6wvsTaMjRK06v+gVxGQgLf4aOu797jEwqdKgjv52xZBHswrfcwmAMEnz2sViVmLIN4vzsF5HokdDMg1qGmyGIWIMjgAMwB3Isi9iYYgOBbk25GUhgAGIco0pIotOfxr4EWMbIFJIb9YKbog2WKnMiCQO+JBwiBjpypVW0tjDQBrC1QvaD2NcTJglHd4+S5QLprZY0G8r64+owaPPnPp9pl4XM/GAFCXAEMYtxVAME8TsGadlUBDN38RvlXkhExDjxiXL9en10RivAXKxeHlaA2rk2V6zC69pndvnBjScrvsrJOfWsicBepaszs+qL63Q4OqeSl5VzIjAHXMBCuBDN/lSSDFV6uQPoUyDMq9kHv5ta7QFX7xWz9u21PPEBwO2IhvF9PR/vsMAEgWH7aSgU7V0ToNn4Iu/5Qv8qMhTFnIHwWi/18xp2hseqn0g2hyC5hSw2CWjbRPf5ebX1rv6FipP+lANuKlDcnAtJqVJ0EWMrbMFD6N9iZtRUFqhH0DKFRwSgVtJ2GdtiBQNrpwYoOv6BYKYq2a/ULPP/wccs+x4nxDYEECAbc2AAfVMU4sGRxQKYEPCexdZojDmt63C8ZIPgsOL1QtFcoPsnrE9r67WakF91ZQGpGJFBXxaM852pKXj2fZpkTMcE2yG6EQObDyfN269boH/e2w8v3ataeNnq+ctOGUEa/KpNuaV+3/Te+385Sc7fXzFsTqIB3079gvuHG525sUzC4xNtmo1dIsAXGUxXdDEiQ9zrZJ24+4WRtm91jx5qZ/R7PILiZoThyr1E5+/5ba6D/ZOshpjuhpWV0GCnoeIAQqsXgH41np1zlL8cEoAhVT/0Ug3ehGtanr2aq7/RBYylpzyMMGKQgCCYkHFhUbvtkxiCo3qMCDW72nPHeYBR3MP1082xsAATtmz5kwAcmCY+WNzYmGhaDw4GRAYIVQ+Fmbcjy3Yo5423hsuuqdRZ7ACGD/vxwh2Mef5tlRoFZxTazleIf3aVeyFZRYPFTEtwImMesuAEKwbUhdp9Wxbj4/U0GCJKLQgkQJMZB9IxjKj3/4VZwuh0dM5eFE0Uv7z/f/fZBlm7b6A/Wgn2DVLHTJSXg8nZDOVAPx+Qtg6yKL5BRZPD9jAtvsGITzFgt47o3Y8Pk/sUDhLgw29HcBrWi0cdta03QNpdAtD5hJVgE0VCX0NRl/wJlJwJ9zmXzYvR21dz5B0E6K0XrczVppwbaRZPHREfdgSC9O437IGdJIOBRYTrJ4CAQyyoU4+DUwpatSSNAUGciBN86J8DFyVfcvsc1MJDYURAFLJ88oggBiLIM0/7dn51z0o+H/R4rgGBch3YsRKwDBLf0ysM+ebHRfnOAoKehgrF8vNAhBHXTA1X0gT4XG3Pi9JtmAEF/iJBcZ8A8xdYs7sGqLdHtwggUIPjaLIFVjz7gMAYV/jXg2+g6c0I1nk6Up5CFRneGk2edrifjfaF8t9t3BQIQPAlgXq9SdLNBgY6rm+diUgeayXi5vfI8xgMENzP5EN6rom8ZWxssSLP7nHQ5JgWaWXuCab+TPsade/zdPf5992cUZLbACkg5oftjcizktlqBCe6fl0HwtNBGGqoyJ/xwhcIINSpCp0pK1Ry139d6hEOpUNwq9UDnPujveCsdBtqCuPWcJn/RJt9JwXGrhVpr0M5b169Rlsxpgm5egkhUO3FwhUdcJc5i8Ey6avE8DGknDroa67dEB0CQ36muxuff7eiez8cPIPgsZydK3Qog2Cled1Z+aJe8U4DgJQckbW0EQrp32Zn53gWrCXH5QtyDDjc49Lip/MZWitPqt0D3U2wFQDoFCLLi5JH3pCnK42/sQygBU2hXr/nbjP108t1A59zJu60Mr1gBCJkzpbM8wtNp1GdsDFowA/6wPmumJDTFw7HjljUbrOhtmcbWp2o+rKMV99ttPZ8+6yHYnoj14VRBuPmeE5eSE+Bo7sYxaY0W6GDZVNyiC6B00DGzMQrU9ScrTjMlGhvsn91aEKBAFVSnGkan9zmYgjh9S2wAoVhjEJwCBMxYbCziOL1S4kDj7K1W/9RK1Vwa/xYHuqZrghMlFNfaHEh7nLgpxHvNUl4D+W4wz9jNjf0a9f+6VQEo7/e0Y334YSGbRDVI4SNXU6lRWmlfQ/lpO4UZKECwG1uVq8SuLXbvtPrd7t1mwEB+p0oXWAEhlVKNDUUbzLjF6rNRUXQzNlwMMkAwsgBWiDCeMYjV5eL9uJXw9Z9P+RAj3Xbn/4iu6OxQjpRGCTrkkkP54Rh6l52bwdgM43gY3U6x6ZYQbXULEFRuGPXwS8dGi8DIhIbsO6xr1A+hBBqToMEJSsihEvrzKewUp9kSCPa5mKbqrVzJKleCXb/l7Wj1bhnIafLGWdZPDG29OP2ZWGUQ/IWO9pdQyWG7DRTcQon+3OS4vHJUcQi+9mpj47N8rE85NFO8Kv+zNmfqEPXoBBp2AMHOmo3Lc6nNldrmVbEFwiXkpnhWbAAG1ZwE0k/V3DkCiyJo0vMCXrUhAgh2ss1qvcmMhIiLkP8/1GtV+55vfWHshIwPlaxXgQC5H0bmwcn4hHoc4tL77HSf7/counktFoIUwSBE9+VkE0VGPqAECRJK1qGW8x8ZGcl/E2eXm58dG7tWJdp57959SpIksdTW6B7ZwN/vxCcs3m4GEMzjHYxzYQxBjx5Q9+DBAz6FEHPgSHEEPnyx/qQKKJkp4ph0RWAfPIiMpEQJExFODwz2CqSfVqyKtz04VVFiEJzIKDNDKtg+CqVqxtjaKRE339fGRgQdBj8/br5t1k/VOwKZD7dteRjufywAghFViokRnY+KiqSNm7fT7dt3qEypYpQ+fXrC38LPnaeVazdSofx5qViRgnT46AnKlDE9ZcuamRIm5IKeceK6des2bdqynU6ePksVypXmtj7KlwowoL8q5kCbY7OkmtAJKICDVWs2UnjEeXqiXi3KkCHdIw0ShBKUlaGVpa4CTCp3hFkQq9M6DIeOHKOtO3ZTvty5qHLFskFvA7f99MkWdXaJtx8mAMGNMg6lEjMyCLLMDJU71437IOiJM3mBUwbBylVh9Y5Qzkl0jYGb9z42AMFnjeqHBwMAIDByzGQ6dfosvdy/FxUpXJCZg937DtCI//1O9evUoHKli9Oc+f9RqlQpqE2LxpQvb26vhSIWxaXLV+jAoSN07foNnSNS2xgJKXWqlHTz1m2+x+rKkS0L1atdnVKnTuVoLu/cuUuTwmbT8tXrqUjB/PTGy89S4sRxB8A46kSAN5kxEXr6VAUQQpt3DHD2x8hxdPHSZRr03uuUMUP6Rxog+PaTLybDzL1i5pZxAhCcxwNoQPCfMZNp1bqN1OGpFtTkiboBrir/x+yAkKZQzeNTdKBWZDZEaTEIVrFWVh2IDmUkgIIRIAT6LZULwQ0ICtkESi+SZYPb8VXFa8jvCHScoqOfoXxnnIpBCGXHjO8y+tgw4StWr6cp0+exAn/1+acpa9bMDBD27T9Mw779herXrk4N69WkuQuW0tYdu6hAvjzUo0tbypE9m+71e/YdoLCZCyji/AW/LiRKlIjy581NyZMno1VrN1p2sXjRQtS/TzfKkN7nfrlz5w5NmT6X3Qiq6+jxk3Ti1GlKmCAhVa1Unmlu1ZUsWTJq+mQ9Sp8ubbQM87Vr12npyrWsHCuVL0M5smcN+XcwN0eOnSSMSZFC+SlJkiRelsAqjuH0mXBauGQl5c2Tk6pWKkepUqX0tC14sLBk2SqaPnsBlSpRlJ7u3pESJExIi/5bQTdu3KIqFcsyoAz2unrtOq3fuJVBSJVK5XgdYiyOnThNt27d8o5FsN+JC89buStkq15u69nwCPr5j1F07vwF+vTDtylzpgzR3pXz5y+y/HgQ+YBBiZMLMuiBlB6pAghCEckKCc+dP3+BTp85S7du32IXaO5cOfmf6L7cKD4jKDCLLzBa4m6+YezvoiXL6Uz4OapWuQIVLVKIbt++Tdt27KZjx09QtSqVgtp/xlgN8W1Vv1TsQij7Gd3zbPb+xw4giIGA1T8pbA6tWb+ZOrdvQQ3q1KRkyZKy4D14+CgNGf4T1a1Vlbp0aMXCHpb6tp17KHu2LPRyv6cpc2YIIc1CPXPmHP92/cZNfh8Eee0aVSht2jSUKEFCypEjKxUqkI+u37iufV4rG+D99zNnz9EfoyZQ2dIl6KV+PVnxCYV3/cYNem/wlwR3gupCe4VQTZQQh56r6fM0qVPR2689Rzlz6MFNqBYewNEvf44hUO5tWzelcqVLhOrV3vds27GHxk+ZSXfv3qVWzRpR/TrVbb6hxZPs2rOPvv3pb6pQrhR1bteK3UW+zW5Vv8HaFQHGaOyEMNqwZRu9/uKzVKpEEbp79x59+9NfdP7CRWrbqinVrFYp6HE4F3GBxk2eTidOnqbO7VtRlYrlaNeeAzQxbCbduHGTmjaqT40a1NaWllShLegPx4EXWMesaPtv3sJlNHvBEnaxvdSvd4y0ev/BIzRyzEQCePth+KeOvikAgrxFEbty4uQp2rptJzVv2oiSJgXo1Ufa79i5mxYuWU5nw8+xfIL8eLJRfWr8RH1H3w3kJqdKW3YfyOBGfNNOSQbKooj3j/j2J4J7qWvHtlSndnW6cuUqzZi9gDZs3Ew9unWkqpUruO6+zKYY+xEs6AmV28Z1pwJ84LEBCMbxWb9pG1vmUZFR9PpLfdniFX7CY8dP0uCh31Gt6pWoS4fWzDBcuXqdfv97LMEaff/tlylzpoy+Q2mjonjjXr5ylX78bRSdPHWWvvtqECVOnETLmE6QgBIlSkg7du1jIFGxXCkWZiKeYdOWHfTrX2OoRtWK1LdXJ93xygAI73w4lC2V/n26U8rkybwY4EFkFO3cvY/vL1q0IKVImsx0GYDJyJc3F4Og6LigxH78fRQ9uP+A2j/VjCqULRXyzyxbtY7GjA+je/fvU+OGdahrxzaOAMLO3Xvp6x/+pIrlSlPXjq0pU0afhWnt47YGCFu37+I1BKH+yvN9KF3aNHTn7l36+vvfmU1q36YZ1a5RNehxwNj+OyGMFUnXDm2oauXyDETHTAijm7duUb1a1al39w6PJUC4ffsuff/LX7R3/yF6/ZV+VLp40aDH28kL9h04TH+OGs97/rf/feHkEbYLjOWdT50+Q+MnTmOjZMQXgyllyhRegICXgjmcHDaLli5fxexfyeLFKEWK5FSyRDH+J7poeyuAYOY+UA2CW4CggVz/N5n1c9jw7+nw0WPUrXN7qlenBl25coXCZsyjdRs2Ue8enal6VfcAXQUQ7CbYrp/ieRlgOAVhdt+Ozt8fS4Bw9ep1mjxtDvvumz5Zn1o1e4JSpUzh3Wyw1D7+4n9UuXxpZhDSeyh/CANYiJjkm7fvUO4c2QiKV1zbdu6lsROnUbo0aei9/3tJZ8zfvXePwmbMp7kLl1Lfnp3YssSzeNesef/RnPmL6Yn6tVipyJvkxs0b9PYHQxmMfPnpe5QmTWrv9+D//mv0RAKg+fj9NylXzuyu1griIlav20iLlqzgjQR3Slrp/W5eFhMA4fr1GzR15jy6fv0mdXiqOWXNkknZRGMwowAICOTs1rGNIwpaRS/KmxuAcOr0uTR/yQpq2bQRNW1Ul8HX7Tt3OH5FAIQ6NfUAwUwoWAl6FUC4cfMmzZy7iC5dukLtWjfjAFqzWAA38/gw3OvrJ9GO3fvo3/FhlDBBAvpowGuUIgUUrOcIYBNzz83vZvcCIPzxz7igAQJkzZhxk+nw0eP0zZefcqyTuNANsIsTp0yn3Xv20YvP9aWypYsTEbKurGfKzTozrj0zBS2zBcGsE6MCNosNcKKov/jKAxA6tad6dTWAMG3mPFq7XgMINapVktKt5dRrXw+iS1GHsp/ymsC/mzEvRoYiWEDy2AEEKPjlq9bR5GlzWZiD0i9dqhhbvkiTAkWOoMWffh9NGTNmoGJFCrHP+8KFi3Th4mW6cOkyswUZ06ejd954gbJng2BmlU4z5yxihQFF37ZlE55TMUFwaUycOodgdT7/bA8qWwobXXvur1ETWdC1bv4kNahbQ7f3ZIDw8ftv0PHT4d7fDx48wnENyZMlpdYtnqQUKTXfurFKQNLEiSl/3lw6cIH74LuDcN299wAVzJ+XwVCRQgUC2vsyQGjXuimVKFaYbt2+zQIU4Ct5suRs+cDali8sQMwJ7sV83L51h9kWxAkkT5aMYzdEqinuBaUbFRlJqVOn1gVk4jcEbSIjBawL5hIWfbKkSeng4SPMIAiAgEyDmzdv8pzDDeRLZdUoelht8GUiniBliuTcHgHahOsHa2TspBl0/OQpeuW5p6lwwfw811grI77/gwFCu1ZNqUql8tw3gNJkyZJwf2AlJk3iz+Tcv/+Afczox+UrVyh9unQ8Btdu3KBxk2boGAS0Ey6OyAcPvGNx//59DobF/CdOkpju3bvHLgis11QpU1Ly5MkZxGCN37h5i11i+PdUKVLweOO3QNM07z94wG6wB/fvU7LkybjdcmYC3EL4PWGiRLwOoNDxfcxl2rRpCYAHY4f5QxxNiuTJKUXKFJSYQbRaG4KenzJ9Ni1ZtpqaPtmAWjZtSIkTJ+b+YmwwRugT1oD8DrAuWHOYd4wLxglrD9/EhfnC+oiMiqLUKVNyf8RvYu2aMQj4tljP+A7WEuJ/uB3JU/C/oztgwTAep0+e5j4cO3GKPh74DqVghhCMYyK+59SpMzRj9nyKiLhAT/fqQnnz5OImpEyRkl2RuDCHaDPGD+9Mkjix55va/vHNQySPL1iuFMlTEFK8b9+5S1evXqOkSZNyBs69u/dYnmEOeD3xOETymkXbMK8Y9xu3bjJQx5pNmTI5pU6VKqj1IytAXiu3b9PdO9r/g2kFcBLyAIHf4lIxCNNmzKO1FgxCdLEuAQlOBWMSqvaF4j2PFUCAEEMA4ujxUwmBTbj6Pd2FoNxOnDxDly5dpguXrxAC7jAwEGK8uZMnpaRJkvA/2JTY7NmyZKLmTRpS1iyZ+T0QMIhm37JtF9O9IuUQWQUIOoQlAIWCd+P3wgXzeZHt51/9QFevXWP6uHzZkrp1JlwMABKvvdCXfv5rDAthCCGwEtj82LiykjMuVFCTPbu2o6KF9WmQEKIrVm+g9Zu2cpBdw7o1dPS7mwUvAAKEba1qlQmAaMv2XQwQsFBz58jBcRlVq5TXsRQQTivXbKSVazYwYNGKqCTgewCiGtarRblzZWeBqVnnv9G1azfo5eee5r/jglCGzx/v2bB5GwtTCPcc2bJyXEeunNnoz1ETvAAB7RkPhXvqDL331ouUzhC4uWffQZo9fwm7luDzx/jJrgisjbUbttCEKTMJgaWdPHENDFLu3mUG4VzEec5IQds2bd3B7cPvWTJlopo1KlOdGlUoXVpfwCj6BqD23/LVdPjIce4rwEmRQgW5D4hzOH36LLtVEIwKIfr9LyMp4sJFerFfL8qbOycrmbCZ81jhgU06euwkHT12grDusU4rVyjLcRvw2S5csoJOnTnLYARjXaNaZWrcsC5lSB9YEOv5i5do9tzFBMVZtkwJBrtovwAyy1aupTXrNlGhgvk4ZgL76PeR4zgu55meXWnG3AV07Pgp/u9kSZNx+5FFBFcVAIUKJGBPYS8jSBcxIAXz5+H7sK6R1QCfPVIeEZ8BIIDfsJ/GT55Jhw4fo4IF8tJTLZswaEewac3qlXk8Nm/dweMKxZslU0YqWaIoNapfh40Bsc8Qg2BkENDX8IgLtHrtBlq3cStduHjJAyyjKEO6dFStakX2k2fJnIkOHjpCM2bNp3PnztPV69dZGeNbAKUANAhu3X/wMM8l+oO2YB1qoCCKOrZrQ2VKl+D27tm3n1auXk9Hjh6jmzdv8X7LkD49lSpZnOrVqUnZs4HpTMhgcdGSZbRpy1aqXbM6t28b79ErbDw81aoZ7dnW+PEAACAASURBVNixm91WuXPnZHBy+MgxBipoW/mypahR/boMiucvXsoxMVjvAAc1q1ehBvVqUiZ2vTq7VMwBgPSatRt4DI3yoHTJ4lS/Xi1eGwAN6KdgELrDxVC3Bl2+rGcQVC4GleIMhTJ11mv/u+xcKlasgDBcVN8ORT8fG4CAjp49F8GBiVDiEBYQ3v37dGXFEnH+Iit+WOP4DbEGsEagpCDUoETSp01D6dOl0YIPEyXSUVcQ7v9OmMbPFStckC1lTBBqK7Rt2ZgjrEePD+MAuU7tWlIuT7Ag4gjeePcTSpsmFT3TuwtnPIgLz4NWf/vDIfynge++Sjt37+cNDCUGYQxqGb51WA0QarC4shiod1g/FcqWVG5eKKLLV64Rghhh6Qd6CYCAICH2o0ZGUebMGXlMIZiOHDvBZWebN2nAiojp+Nt3aNHSlaysoNBz5cjOygrC8vTZcJ6TyhXKcJR4lswZeSzeGTiEbt2+QwMHvE4F82ljBUE3a+5iVtqwZrJlzcICD2AMSgSuCAh0wSDce/CAfv1jNCvUr4cO1GWN4H0bNm2jCVNnccoi1ocWb8Jbkecc/ZkxZyEhJqJT2xZUt1Y1rzUHi+fr7/+gk6fPMNiCBZkxQzq20G/dvM3CFZZz4yfqctos5gbCH7EpU6bPYSCRK0cOypgxPa9PjAHeifkFq6EBhHKsCD76fARdvHSF3n/7VSpcIC/7sUeNncLfxjrIkSMbZc6YgcEkKGxYglgrAMMoJoT+AWgcP3mGFWfLZk9Su1Ya8+X2Qh8ANmfPX8xgt3e3jhxTg78j3mfi1JmUMFFCatuyKUecR1y8RMO//ZmuXL1G+fLkpitXr1LuXDlYOeJvmDeAa9xfvWpFJfO0Zv0mmjx9LmdxdGnf2juPAM4AnNNmzacUyZLRU62acmYN9vXC/1bw31OmSEHdOz3F7OG8Rcto5pyFPB6QExh7gHqMzdnw83Tx4iUGae1bN+MxxaVyMUCR411Llq2kVKlSsRGBlGUo8eMnTrGih8Lq0ukpVr4LFy/jtRt+LoL3QqGC+VmuwFLOmSM7K+fbd24z4L177y7lzJHDy2S0aPYkFSyQj7bv2E3TZs7htZ41axZuNwAhAGpExHkOju7SqT3lyZ2Trl+/TtNmzKWVa9ZRhgzp6eaNm8ySwsAA8ABAWvzfSl6jaEf2rFl432E84cYE24AAWbBnWEsADVhbWG9g9po0qk8dn2qpgXYHpUaMAAFj8N+ylezyjKIoypk9O6VJq8mDM2fCeW9gHts+1cK7J70AAS6GemqAYFSUZmAgNkGCUdGbuZDM3BZ4Pjr6+dgABAiq1es2swDNmQMpeAlYQbzyXG8GAliEqdOkorSpUzNqnzB1NmcjdGjTjCpVKGMpLyGsp81aQP+tWMMKIX++PLzpIBRSpkxJrzzXi85fuEQj/53Em7pOTS3DAdedu/do+He/cpAkBFDWrJl448FqwnX58lUaMHgYK9fhQz5gwYbNr2VV7KXWzRuxhQQBMWrcVAYxABoxfQmAgD5DKTVuVI9qVKnAYOHKlWu0eNlKWrB4BQumXl3bMWOBAMuxk6bThQuXmI2pVaMKZUyfli2WjZt30Ky5ixgM9e7WgTMQoJiNAAHzhnmFcoVyQUwJ5gtAA+wE5gRR7rB0ggcImgsClvnIsZNZCQu3jPBVQxmM+P53VtZwcTSoW5Nq16jMghtzhODCsJnzWSAjZRbKEqBy6oy5XOinepXy9GSDupQndw568CCK9u4/yAoNAAvvQ5AlGARQ8oM+/9oDEF5hgACr+B8PQChepBADECgdAIvZC/6j+YuWMitWuFABjuHInzcP3bhxg+YuWkorVq1nK3P4kIHMlAVywb0xf9EyVsKpUiSn/n27c6Auov2RFghGBfODuTl19pwXIADMwR1TuWI5psShEJetWksrV29gFufF/r0pT64cuiZBISG9dNXaDdSrawdOKRWUO24EyJi/aDktWb6S+4mMEqyffydMZaAJhqNZ44aseOcuXEaz5i5kOVC9SgVq9mQDTnkGU4c9NmveInYZNWlYj1OFwSoaAQLky/Zde+mfsZNZuTZpWJfnKU2aVCwTVq/bROOnzGAWoF+fHpQ3dw5280DZTp0+h5XyoA/+jwEA2gEwA8UMIDFrzgKKuHCBenfvTHk8LgYwImjT6DET2fCpXKEcsxO5cubg/bP/wCGaNWc+v79KpQrUtVNblnECIIh05Dq1qnnAEFwLUTR63BRuCxjQ5o0bel2smNNZ8xbz+oGbo1Pblry2IPsA8sHAAHQO//wjdk9wNXTp8kSFWC4rxFlMmDydZSXmBqwE4r/Q7s1bttPseYs4rbdH1w5UrmxpRwwCYhDMlK/Rco8rAEEFDoxBkFaAwgi8gunnYwMQYI1t3raLZsxeSC2aNKA9+w/R0hVrGSBULI/F5lvRED6TwyCwdxH86VbpdBjAPXsPsqJD0CCu5/t2p1y5sjMguHrtBr34bA86fvI0C28IPAgJEdwItA+qjt0WWbNQ7pw5OOANOfu4wsPP06Ah3zC1icwI9AOWGiJ1s2XLSj27tOX4AliFH33+NWXNlImGffZeIPI9qGcEQAANDkUA5QThKC4I59/+HsvMR6P6tahju5Zslezed5B95nA/yAGYFy9eZisdgaQ9u7TjlFP4V40AAQAKgYuwGKF8WjRu4K1zIOjtv0dPZOUbCoAAq3LNus00dvJ0dn80b9yA2RcvQPC4GBBZXalcGbb406fXXBS4ILx/+2sMr8UyJYvRqy/0YToa6ZtQnH16dGQWSdwPxbNu4zYaPW4yxxAIFwNiU8wAAtw7bVs1YWYDykYozDff+4QVcIvGDalZ4wbebwB8/PLnv6xwhgx+ly3HQC+AarheNm3dTvny5GFWau+Bg1S6RDFmzrJn0+pjyAAB1HS3Dm10Ab9gTv7+dyIDJLADYFzkC4zd5GmzOTPgmZ6dmXY2FldCITTcA8WN2BowG7BEa1arzOMIEA52RgCEAvnzUo/OTzGgwIX3QbnDBYe2lCxWhDq2bcHWuBEgYF+iJgkylcAYgXGQA37hqx80ZATdvHmb31GremVeM3BzQSlzkOJXn7IBIF/YIwhSDA8/Ry8935cK5M/HP2NdrFy9jsZNDKPCBQtQl45tKZcBRCE98uffRzIAeKZ3N8qWLQuFgUFYvY5dGE9368isjShNffLUGXbFAYy0a9WM95xYPwDbb33wGYPwJ+rXpjYtnvSON+TXT3+MYrbrs4HvcCq4PjgOfIDvBEzRP+Op2QDe+/YdoKgECXh8IA+EcoP7d/bchbRyzXrq1rkd1a5ZldeLnYtBAATVela5OKIrYDHQ/eQdK0/qq/weu0Bq+dlAvx9rACFLpnTS8R2BNt/5c6wsrt2gYydOsr92+pxFHNykAgiguhYsWcFgolXzRtSy2RPENQYUFyy5+YtX0PyFyxjx4zsfvfsq+ze/+vZXOnf+Ir3QtxtdvnqNVq3dZNpgWLhA+wAPiLQvUjg/3wuL/PPhPzLt+O2wj7Tqj/9Opr0HDlHJ4kXYssZv4eERNGv+ElZWEMTylTtndgYsSRL7LMNQo2UBECBIEKBZp1ZVncCGgFy6Yg2NmTiNqlUuT09378CBUbAOoPhPngmny5eucEAe/nbn9h3af+gIuwYQB4D4CNCZRoAA6xvvhCAFkEBQoFyLH2wQgCAAXCgAAizhSdNm04FDRz01Ccrq4j9EFgPmstmT9XntGP3n6zZspV/++pcwL++88Ty7uMAIIbMFWSzGYlYAlwAVsDgFQEDwmOxiKFIwLx08dJRBKFJisQbKlZbjWaLolf/7iAV+905tdeWIYW1/9e0v7Nb54J3XKH+enByjc+nKVdsNhn0Bah6uLnEdOXqSfh85hi1bWJxwHXXu0IpKFCviHQsZILz92vMc1CpfULhjJ06n5avXsSX+rMSKYU4Xo0DVrAUcp9Cy6RNS8SvfW6BEd+3ZT5OnzyEoP1yFC+VnxSjqgcgAAe9CTIKs2LGfT50Jp29++J197e3bNOdMApWLITISAa6IGbiujd/lK8xaoB1woSE4GgwTwDMCmfHu46fO0L8CIHz5KTNuSoBw7hy99JwPINy7f48mTZ7BCrN2zWrUsV1rrzIXz6Mtn33xNbNNHdo05xgCpOWuWL2O3QEtmzTUfU8ABLg1kN4trx+09bV3BrPbp2Pblsy0iAuMzLBvf2a30PtvvczgAywn+q8DA1HgQX2ajsvBeNYPF6l7EMl7H4HKp86e5XgCvBugGgGYiNtANdoO7VpR/To12e0UDECwAg3G38zoe2N8gO2GiaYbzDJBjJ+zA0D+eiGWDmuKaYCAgcIixwBBKGCjmAEECKeNW3awxQvhBMRvFryFd4HK3HvgsNfn/eHbL+sAwsv9e3JgEihYswuWFwLjAGK6dWrDQYy4EHPwv19GcuzC0MHvMBPx659jWGjBGhQR2gAnWoBSAqai5QuZEQ3r1tSVcBYLgTfk7duUNGkyPz+vm8UP6xM1IAAEoOQAXIwCH9bVtz/9ydZVry7tKFOmDLR1+24WnFBOEJ4QahCmiGG4/+A+vw/KDimYiLA2AgRYvwhIA8gAZV/Gmx2ifR1zCf/+/35GoSQtzTHQGARmi/YdpJ/+GM3ndEBZw1qSL7s0R9yLYLzBQ79hpfrCMz1pA9Oni5mNaCEJbcFKAHyNGjeFAWQ3uBgql+c4BsEgfIAYBACEw0fpnzFT2NePNVvKUBPgjQEf8/qAy6ZcGR94ANgYOuJHXlN4V64cWWnm3MUcXGl3YY3AL4xUSxHAB0U5atxknle4LeBG6d29I8dRiEsGCIgDQcaG8QKlPXfBf0xpv/vGC96fMR6IaUCwZY/ObXlezYJ0MU7jJ8/gdF5c3To9RfVr1/BmwMgAAYobzIrRxaIVAfuX/ezoJ2IrZIDw+/fDWLYAwKKKHwIyEbQJ0I/9hbWM/4F9AgvUunljZtFwIf7j3/Eag/DtV59ymiYusT/NGATsld/+HMVzDmXfrEkjfg5mDO9bTmWK4hoRCHZEYGiDOjVY7gF09eranq10wRDgWQEQsO/A2sANKF9vva8VhOra8SmqVL60p50J2A2I9QOw/t6bLzGbg1iM9Zu26KdUd1aaj7HluIJWTRnYb9uxlwEMywOMH+QBxi8qiscSjGv7ti2pft2aLPtCDRCMa9CMZRDzYxZAGAit70be2u1L1e8qN4W4z5xNeYwAghgMWGJWAMHrZx4zmR/p0eUp0/Q/3AuBBSpy5rzFfPjTB//3kg4gIAZBpCeZTSyE0IQpsxl1AyAUKpCXb126ch0XxIFP+a1X+7E1AHr1wkUfOsd9oNrnLVrKLoyWzTRhIa4C+XIzbQ2LXV7YCJr6b/katrCrVCrLwYOwBuXLKdMgAAI2NQACIublC6lRW7bupB//GMUCvXfX9hQeEUETpsyio8dPsNUB6jdrZgR2pWQwsGbDFha2VgABDAtiLzBuyNQoLyk+fB/fRVQ6lLoKIIwY8qFfn0H5T5w6i4MM5SBFMEuYY5RShsCFH1ukQIq+CoAACwrWqDFtFfcdOHiUhoz4gel2ZKas27iZY1gw/qjJIc7iEAABlrgWlR/BAKdq5XI6gPD+21oMwsHDxzjGBm0CQADD5LsSkAAIvbq1140T9sMXAiC88yozG/CZ7z9w2JEcKlK4AJclF0oaVPt3P//FVe1woTR553YtGRiKSwYIQwcP8DIQos+4DzEG8xcvp6KFcM5IP34Uv+/avY8zIAoUyMcsDs4wUV24Fwob7hvMBy4Aurde7s/gFJcMEFo0eYIBGoC3fOFZgN87d+8wQIDRoHIxoFjTP2PgVrzGcR4Vy5XhfsFtkDBRAo5PgKyQAcKJU2fZfSQAgiiUJL7vBQgGBgFg4+9R47hKKNZNmxZN+RFNyfgqDYEZOnbyFNfqACBA7Q4AhL49OzMLINdxkQFC1w6tqaQBYL75/qeMO7oBIEhxWUaAkDt3Dg5M3bv3IAMjbpendKxwNohW4u9gS+GWBNiZGDabyyQjcLVG1UpsWKVOpcWFrd24mZavWsuBkIjtSZIkKX0x4ns6dPQYdTcJUrRyMTha3IabjLS+0wwDp3I0kDY5fcYKIBjf4bs31gBCWo9fymn3QnefHUDAl0C7Tp0xn1Ozendvz1aDEICwanfu2U9lShb1ZDNom+D3f8YT6GMjQMDhMWs3bGYLQ3UhUrdV04Y0d8EyjmYGQEDVQ1wAMjgLom7t6tSra1sWkHJ5ZfE+bG5Uf0SA49CP39F9BjQeqF7epnzKoSZIQAlCucIqRmBl1w6t/FIhnY66AAiIyoY1AItfvkATzlu4lKbOmMdUOqxY9A3BTwiIeqZXZ7YiYUXAysV7ZsxZxPXurQAClCfS1nbv3c+gAwJBtiYx5ouWrqJJYbO8AAHt+vG3f9hnPPi9N7xjjb/DSoHlOmveEq4NIQMEpGxC4GL8ECxoZCvwvAAIYHqaNKxD7TyFr+SxAHOF9Dz4suGOAkAbN3kGZxgg6FGu9Ijn0E7U5YBS0ABCeaauhYvhg3deYUYDFjUYBDVAIHpjwCcSg+BT1mCeBIOgZUTkYVoc4EpXF9xYYMPz3xhvrehXAnaD/PLHaD7wLGf2rJw5s2PXXnYhgEXA+sQlA4SX+z/NcUCsNDySCf8/cswkQqZC3ZrVGfzhAlME63TuwiWszFs0bcTBoqoLgArxENt37aYyJUuwywPrFJlJr77Ql9srAwRE8SNQWD4LBe1AbNGX3/7MKaoI7gTwMgIEjCHmEPn3ABBwRaRNgxob2nrG9c6Hn9Ptu3cDAwjh5+gVKQbh/r37NG3WXFqwZDnVrFqJenRt58d8QKm+/cFnlCAhgmlbU6niRbwMwjM9u1C1KuVdAQTBINgBBGR9sVsFZaHlmvImwgTyCUAB8SIIeEQWWJ+ekAdpPe7ChJxJMhMxCGs3sIsDpfHhYhg6/AcGCD06t+OUTrglwmbOZXkrCiU5lWFO7jMDCPKzZrEBdvS+k+/H1D1xCiD4Uyva6WjRNaBOAAIEw/KV69j6gO8UCgGHwLDyunCJ3h44lH3pz/Xt5p2z30YCIGyh9996gRDwNPy73zn1sEGd6hzdjYwF1ZU2bWpq16Y5LV2+moUdAAJ8pGjDNz/8yUWUOrVrwamWd++o34GcYXwjDfykTzX3+wzGGL5TkdOPG0C/Llu5jhYvWcE52o2fqMPC0Yg0zfxb8t85BuG3UZwZgjQ8WLBQdJpwjGLANeSrH+ja9Zuc6ogxQV0IWKpgPBA4ilgKjUp8wKmoYydN4+esAAL6gIqCqFVftXJF6tCmqfe7eBeAxve//sOxHIJBQEopMg0Q3wCFC38wlJxgjkBJI/4BgW0yQNi8dSd9/+tIpucx78biOTJAgDWEGgmgwJEaB4AmaOiPh35DERcusQUHYLR5205mLOBvfeHZnvycADkAOP8tX0sTps5g15EACHALDPxMS3P84B1fmqMMEARFLJSuESAIxYUxlBkEgA1xuaE9Aa4QPLvEs47RLijIr3/4g2uMINgXKYeY59PhEd4sBhSZ+r9X+3vPINEO5Tqh1Tg4eZqgzGpWR0W8KFbwP/8xmv8d67xMSVFwzLfkOd7o+g1On52zYAkXsULUPdJj/xw1jtdU21bNeM2B8RJBiqhLgSDR0iVRwlhT7FD8C/9bSdNnz2dXSsenWnCGgxEgwP0ANwTWGWJPkJUjamdgXLDPcJ4GGAIwCAj0w4UUQQ5SPHKMvhwyiNKlTc3KEq4CmB0AhxM8QYqvPt+Xs6A43TYyijZv30W//Dmag0oR9It2a4aAFsSI2CgUYUI9kJf6P83M1JQZc2jFqnX0TK8uvP5kMC0YBDwLQKFnoIicAgTEeRgvsQZV9SzwGwAvZC0AIZgcyAhZHsAVOW6yJg8YINStwYBo6PAfNYDQqR2vL8TNoBYIAEIfVFL0lFoWnAogi3FtB6t0VVkD+iBN8y8YXRW40y4LQX6b8TuhZiowNzevXaMsmfVu60DGLEEknEUOrvCIqyTHIMid1AZIPkrWwQtd3uIEIOCVnII0cz7t2LmX3QzVqlTgRQmL6LufR7LQeqZnJz+A8FSLJ5nKnD57EQug5/p0ZeEu06dyk7FJsfARQYznuBxw5ows5AZ9/g2nW777+vM0avxUTt1TXagcCPYBl1k9g1ee781pS/ImhTCGXw/BZoJuNAMIKqUh5k4ABFjO8DXXrlmFalevzAIRsRdQgBCqENYQwujf5DBYDKu4JoQGwDIyOIALBZYR3AZw3VgBBLQJ88E08rnzXI+9RtUK7GqB0Jk5dwlt37WHrRm51DKoeLATqD4J5gGpr1CUODJ49dqN/F0ZIGDufvj1H6bxWzRtyGdBqC7BIAAgIN0L30TwW4Z0aTnQCszExi3bWagjDRDuH8w94k/g7kHufJuWjTmbhU8WPXCYaWFYuojqVjMI7gCCcDGIucNhZIJB+PCdV5k5kedatW7FGhJrRUs33cRgDTUVenRpT7WqVeL5hIvn34lhvMbALlWvUlFXBwFrBGl6T9QDbZyEwiPO0+KlqwinpCIWB3EaSAvGuxBPgpMbwUKhPoaxNLjwVaMtE6bM4DRjUNIomARmBQf5oNw5ruef6cGuALgxRJpjvjy5+CAwFJYSRa4wNyj6BJcRMkNwGQECZAoAABhHZGyA3UD2yt1792njpm00b+F/RAkTcP80gFCHAQDcEX+PGs+ugpbNGzP4TJcmNWVKr7n6ABDGTZlO586dIwEQxHxg3SC4Fb5+UPJPNqjDrky0G0XKoChhZSNtE32CPJkyY64XICA2RHaR2bkYggEIViJaGAVIVUbwac7s2RigwCDDnGMdAOxduqLJAwEQEIMw5Cu4GI57AEINLsyGfq/ZsIn69OjE7Iq4sFaRfmlMwdS8IIa8TM9/qmIJjH0JNEBQBt9WgMIKpD+6ACEzLFUfnvAJHH0ddftgDzNMYl6pQwcQnu/N1K4K2SJYbv2GLVxcCSlR8KMWK1aIz1SAMEcKJKxucQkGAZsOSh+lQkGx2sUgQLhu2rKTU6kqVSjLSgClRZGa98fI8TxOwz//gMsqQwGpLmyMRf+tYtTdsllD5T0AOKhRoOqr/IATxsD4AQAE0OBQ6sikAKiBMITwR14zhBYoZ+SRI9YAFxTH9NkLGYghOjpP7lxc2vXKtessJOALhvJXZTEMeu8NTu/EBSsPsRrwTyLVCsIcTAmYHpQchgWPCH9EcSPID8wGFP2YiWGc/YDSrZlQNMiThYI2wzKHshAMAlvqg4dR9hxZ6dleXUzPvcD8wGKG5Qs6/dJl+OGj2HpDQSq4CfB9AAxxAiP6gPbAtYG0Pq2qXiaO3oYCwf2wGAE2vXUQJBfDwHdf4yqCWgzCZF57HKToCTIT++yt9z5l35IWpAgXg7Z3ZIAg2AifUFXvLz1AiKIjR094s0lA1Xfv3JaS8tHjCbgPCxYvZ0scGUSg6VOlSk0j/vcLgyOwSZu27mQRnTxFCq7sBysWxYIAAhB/g/UBwDdm0jTatXu/aXwHbBTk8cOyRv0NBOa1kLIcMD84dA3VE+FWQ9Ai1zqYu5CKFi5Ad+7co/MXLjBbh3ifqygiliY1GwfIzUedEVwISv5TOouBgRAzQTNZSQGgZsyQgetMYN7gTsI9OJypdYsm9ES92jz6+GfGrHkcmIexwIWUX8QIeAHCZC3N0QgQsKfAWMBtBysapcPRbhgK2EdYc3CndGzbilOOGSAgBmHVWnq2V1d2MRgZBMgguCa6dGjjxyDAXQELvHvHp7wuId5/hiBFFYNgBRDEbxg/pDYjVTpR4kSUN1dOdlmBnQGAh2zT2NRWPK8APwIg9OzanurVquYDCOvBIGhn3uCyYjAwCfo6DVF+h2p54ysltSJctU765kS+WgEPJzI5Ohj32GMQbAACYzoPPa0NnFrhm1nlZvcLhYIKbGZZDPJEgfadPf8/9hMD0WLB4TkI79de6EMF8ms507gEQEAZXdQ1X7V6A+f0GgEClCfQOqdF3b/PB+5A+SMKGAoUOezo1+jx0ziNCQDmxX49LdchTvob+Nk3XAfhy89jvg4CUrtAhWPOoFihIOFugFWO6pQIfgT4KVGskLcfEETIUd+6fQ8DC67Lny4t5cmZnYoXLcxgCJYgqFDQ7rAewEQgxQt52hhjcUHxIksCAgQKBveCMs6XJycVK1qI2QK4bfAuFJnB+CKoDIV24PaAUgbLg+IvyBjZt/8Q31evTnUGPAAyKJhTp2Y1zpU3i5rHfKISHIQx/O7wg4Muh5BDmiko5Arly1A5PnRHf6H08fqN27jELNYdXBhZM2ek4sWLsLI7feYstx+KDWwE2C0oTVjlaDPody2VNoor3hkP74I/HqAXB0ghEFFcgtnAHCCtN5unfLhKsPrYPd+Z5fjbzl37OOsBirxRwzocbKrtX821gvRczAHWCdqWLn06+ub731gpDvvkPcJR3ghWRaldgDrsNVi4CK4VzBbWE0ptI/Dv6e6duIS28QKwwDpAHQYU2alRpaLuiHO05ey583w4GixQBFieOnOOAQKCTlEDYfe+/Vys6d59lDdOQwXy5WGqWqQg4h1nwiPYEodyfLp7R24G4iMA6gFgAIrQbjyPIE2wJojLOHT4KLsqsL55bIjY/bJ1x07eL3g3vocaG7jgIlu3cQv71hs1qOt3QBmPbXgErdu0lWOKsN8wBwj0BVsHCxrBybiQ+bBpy3bas/8gs1oF8uXlWCQhZwFmUU8EewmACOmp8oUYAcSlIM4HQM+7fu7eZQYMbYR7QE55tRRahh+xZ2EQbN+5my5CHkRF8Z4Em4Y9jHUKeYB1AXmA8QVjBeMEaxoAD4AC6xDjjL9hDMQ6NjOMNB1irOwk/TdYBwGnVXE4bjoZ4L1mAYZu3BGBfDpWAYJVg/WCSNypn0RzcID7zRiE1ZiTawAAIABJREFUKLY4NYCwhkC7ayk75owDct8XLVvN8QUQolAOENR9e3WkxIl8qVtIDYOvrG/PjiycYdGDbkXBETk7ABQ6Dt+BEkBcAoQM0HGJ4oWp+ZP1WWhBef41ehLT0S8/15vKSRHgqnGLbYBgbBPmBgITdeYRxY0cclGfwLioYfFoBw9FUoaM6XT1GtwuaigIfBOxGihYI1fXU70LwOAqcq3v3mNhjip5xgvzM3jIN+zDfr5vDypVQs4OsG4hxgGCGQABCgmWnNW5Gdq43eHSwyjPDHBix/i4HSNn+85ndfFukrhMbW/69pjZPlTHEWm22OmzEfSVp9Ty10M/4rFHvAUAA4qGwQIXx6GL9k6De2DBEqpbsxp1bo+8f3VwopPxEPJFleaIOCBkYAAgIL3ZuIas5A5+Q0li7G20Dy4QOVOANY1H1IjIfgvR46QrXgUIQI00abi20ngOM/PJUWfzaS1THTcnqBu98gBlrxXjr3q53E+zjxv7ZmSt9c/59IEOE9gABMg2+Uhvo/s8mIEJ1JUR3DdjKwYhs3/es9wR/YTrEmi9G8JsQm1ENgtslOcFokfuOfzAVgAB7wPFjHxioPwkiRJT5UpldSga98BKAjsAqwcuCSx01CyH0pELLeGelWs3euMJoDxBiSNzAcgcAgX0IWjxzdt3U+tmT/gVUDH2ESBm3OSZjLh7ddMivuPSJdNxqoUeHfRYqPqPEsmjJ4Tx2KIksCiDHar3x6X3qBSKEaAYhbFM3zpVMCqAYLef4aYAywIL0hhA53YMrQCCk1LTTvsptyuUgMBpf93Mp5N5FIGXTr8fU/eZKX+jTtHNhydwWNVGp/30zqmHYWCAIKGCuAAQ7OIbrGRvnGUQ7BaWfkGYW/9qtInjYG+ybxCUr+roXfX3ozjgDpHCKHgS6AXXAugyBAfigsWEwD6VIAZlCGvKzoqEJQwQA3ABuvlhu9wCBKdRwqEYB7ASYI5QVMZY5TAU73+U3uFUcRoBglyIzPcO/b6GewI0NAC18djwQMfQSaEktQwxi83wRaEblVGgbYyp50IJEKyt8+jpkbz2rORlSPvpre8AhKCt16gE0trwMg4G9hs3ulNbjgfNKrDSPqZP/5mHFiCIbjihlnjSdJkRPkZCnRbiC5SUrV23SszxjMbfGNQI2Pnngnp5/MOOR8CJFSdehngJZJKgtPZbr/RjSlze09q/a3U7fH933BTHNzKbuH4TB+6h2FOt6lW8LgFrn7XvE7K1aQfkHTcs1m/Uqs46vez6LStl/3l2+pXQ36cCFSqQ67R/fnUfWMH4owG/P3kDJT1vEHEPMtYIElDYZacpRxcpqLGS5mjjYgj1UvCnRb3LVBNFBh+r+JtbgBDqPNRQj8Oj/r6HzX3xKM2HG4AAVgYBZQhMRZaAXVyGvEfdKC678UWbwSTevXOHkibTSpeL6/EGCPqYBbNxtFOcErzz/KsWtKqfTxdIxG5CA/jdTXvs1oSKOZHdECJfgg+vkhW+KtUSpeKluphO3RV2GQ/a2KuZLnn4+J7IWAIIWSWA4DRRMaaXkRr1inKmqg0kBbboLB+55UHCwAA2wOP+iEqhqHKQQ6l4HvcxD6b/Zm4Kc9raxzToY12MEiN+7wUzL4E+634+NYPNiSsg0Da5fU6lC4zvcNtP5+BK+pICSLCjOkRL2y8rIrYAQhYDg6DqnwoQGO+LHtCgp9f8BZN6NjRU5h4MOEFzbhd0/P36ETBzQ+AuOwDhdizj59PtiFnfL9g/n5A2zpm9dLQqNhPa1gb+Nqfu0sC/EDee9Gea7K3Z2G65E4BgBRgCjckwPqelW2onC3MScQKNZQjV5ceYxxUXQ9wFCLJ1Iscm6GkyMUFmACG6famhWiCP6nusAIJVn81Yhfj5jM2VYu4ft7PKHob9+agDBRnoeY6dlEC6Xt5aVxH0sQxmq9FpNkJ0rGYrBsQ/bdi8L8Y+iDRKrmHBFo4/hcCgQeFGMHNTmAU2IqA+Vkotyy4Gs8mJPQbBfrmYIUqVAJKZBXM2IvrpUJl+te9h/B1GdsG4uVSpm05GzZ5hMKb1+qf5OvnO43CPddyDPxOoCkrT5tnfL66v4xDM/pSKHziYlMcBIPj2kj37oza+fG4IoUDN48jMeeZALXsH06gMjHeSXWF8txnI8f3dv2aDxjT4Xxz7IMUgGAGYUcbFaYDgaBKc3BSD99hF66oBghMoZGnneiZdoFC5modv8cQDBPcLwSzgR4CH6KGu4wGC+5lSCEODWWSWbeA0kl3/BTNnp6qSjjuAEIq+P4rvUIFB39/8mV5NEdqzDHFxrKwCJ92CGnE/TkryaRrPOjWl7j0pm7HlYnDCIAQ6cU7UbfTELqirlanZBs26UaNfgyiySPXSFJRVSpJzhB7oeD/Kz6lcE06ihAVKF0DC3yrQ/hIfGBmzq8cKDKgsULl1PsHsvz/NAtRCFj0Ws8P0EH3NJ0dFo/3lrSbt7fZaXAcTRmbJfM1pI2FkK7T+y8YHKyAFsuanPWMWRddiI80xEIAQXUo9OnaDPJlW7ghlWozhqGszf7fPepVwoZ/fKR4ghGJ+Ve4ElctB9S3hUlDuRZtFbe+OCEXvHr93ON2f6vnUH0XvH5wsnor9vfeouytU8+PM/WsEeT6F+LDsBlWMg9HgNAJi4zP+oFhftyGKHlGAEMpsh1C+y3zx+VCupkicCxe1VfSwLPNHu512wEIVHGTFWjzaoxV3e2cWu2Bssd5K8/2q8hfHRG8fR4DgZFydz6dzszQuMhDu+6nXO3gepeazZNZOMQ3mShCJiAYHV3jEVQqEQXDwatNbHDXM5OmYAQji4+4C0qwQId6oLhwkfKLBBF4FMxuP57PquQhsLELDLLhba4G19PF6yoz2tVYezo2Bx2s0Y663ZnI0sPm0bndsgjY7dsUvrZIBwo1HHyCEcqkFAzZC2Q4NAPiir+0WnhndJNk5oW5e/PtsRsAqjdIuxdLINNj5WP2bEg8QQr1AA1Mo/gAhNAAw1L17dN8X3QAhrrALZgDBOLPiPsiUx4JBCHRpxyUwYN4Ha0GvAQftaX9KW/anOmMUAi0IFegcPMrPWWVJmPXbmI2i+m/js/EKJ2ZWkVoAq7MYfGBCAATsUy3qXu8bVrU9dsGdFRCKmZGOma+o/fz4tj5mwQ4A6AMG9UGTds/GRE/N4hkeREbS9XgGwV71OpmkmHVFOGmR/h79planBemf8Aku7e9yDq0MJuIpUvezEfwTZsWfVExCPEAIfrxD/QYjmNAzfGZKiGG+pynG/SlaGHP70alFGuqxi4vvU4EmVd0DlTKOi/1BmxA1EGsMgtMo8Lg6eHbtimvsg29h+oQPixuvm0LPMBj9UWZpYGbFP9xT3nYjGv+7PAJ2QEBmjdwABKfV1uJnI7QjYKZgzFyDZvnwmkXq37ZHXd6GdjYCfZuRHfAHbYHNZ+xokzgFEDRlZT8xboSd/dui7w4HXYm+jyvebAYQtFvdZVEYF7n4nBn1aMzKkOfwYZnPGJ0sBx+zy5AwvsJpvINZWq1X1Dk4Cc5B8+NvMYyAz7Xgq2tiBdLN9pwACD5XoIpp8LEM5vsvdt0YD+cCsQcIeqPMn+1RsTLmcjV6RynWAEK2LOkse2YFFB51hRLXgIVqolQAIbBFrLk6hLLT+2XNRiLmKNTo3X6x93arjAq76pB2+8/u99jr9aP7ZX+lYg4ytFFwAxCcjFv8nnQySk7u0RtyYq6siuE5eWtg98RJgGCXGy531V8YPXyo92EABP7WqC97wmjJ+FwOTha1L67BiKydshGBLf34p1QMgx17ED9qD8sI6Cu1spqxZX7MYoyc9Dl6AUKgsQ6BPuekx9F9j77tTmSpukXBBEGiDVevxkIdBCsGwSkVql708QDBuExUWzemQIkxMNIM3AXjH7UXfNG9lR/997t1/cXPZ9xZE86ZPVlSqOWoj11yLmdDsT8DVfSBPhd3Zs9rfjlyv9u12y1YiJMAQe6kW1eD2WK0o03FN0OxmO0myc9yc/uAy/tjEyCorFTf3/QwRRUEaVX/3sk6iY35dDk9cf52J4yeapzdsBHBAIo4P4BxooHGGCO5iJrqQCNIDav9ad2puDCfRmBkFkwdJ6bHdSP0sQ4+/eWsZLT/OQ1qkzHWXAyikqIqYtosNzwQQeVWQdjdr/7dOZp2vQ4sHnDKAsQlgKBX6vYAwY8NsTydzd+vGth8hnKWHv53We07KxCg2ttee8jp4jWk9OnnM3b23SMwo9wFn5wN7MRDu8Ot/MdJBh3av2uxR+p0ajfj7AvwlMwPw8JVKUXt09HrHnHTj0DudRIPZmQO7JgEMVYPHkTGTppj9qzpQkKZmFmoToSTkVWwYhlkweSUjQhksmPrGZW8jqvAwhxk6FvsT4d6cbbOH2sHIliE2PpvY2vmHp7vavLaX6k7ZRrc7E8nLpGHZ+TiZkud5P07d2/o+ygrMLO0zVCMyqPjgrAeDSf9VKVfYh9dvXot5kst22UxuJ18pxXpVNaQHk0bawHYp16qBFdcVyiODTi3ExGi+9UL2l+56LMetI/L82E9D84t0Lg+nyEa9mh7jbw/Vf9u/LAZsxg/D9E2Ra5eLO9P1b9r+9DHTKgLBmmAUVjxegAZvZa9E4XpakDi6M1O+2l2X6wxCKEGCE7nx8p9EawfVW6DmSCLKwLOCWPgFEQ4IeicvsvpPIr7nGwAHyjUZ16owIXZ9+PKvLkdn4fpfhm8O2EAZTAog/yHqc+PWltVVqgAC3Z9jc9ashuh6PtdnVpJ9EgDBKesghAuQgmYCSfj++x8s2bVzIyC0DkdavTZaQvGiZIMZGk5VeqxCRDc9UvPGBjHzUiBa+vBByrUAsxJ781bKeo/uOvH4323ExZQBRjiQV70rxtVLIDxq8Z77NwQ+kDlwGqjOGlXqEcnNr4ZfB/0MjIyMjLupTkG30mhOLX/t7JGgv2WGWhwKoyc3ufpkSGoJ3oBQrBjIz/vFGyE8pvu3yW3Uh8NbD5PbgCCc5eG+7Y/Pk+YAQTVCKj2p5s99yjGG8X2SjFjGUS7rLINAmUZZGXtNJbFyThZGWeq4EEn74xL9yCLIc7GIASjVNyI7WAmxClL4Zwl8LVGvZAfTiUTzFwGMz/unrUaW7NCJWYrzQg2jCMQ+wftuBubh/NuO9bPqldugMTDOTqx12qnrKdbtkHfI1W1yMAYCPORUrO64n6n/Yy9mbD+cpwACCFRHnhJAi1hxfOvMTrmZv7TQICB3HCj2wMLTp8aFKPdDPhjIZnjgL8emgfduRisAYLZQTsPe8pVaEY6+t7iZj+qAYLscoq+dj7qb3aqOM1oeju3hGRmGYYy1ADBeqacMAxOGZPYqOPw0AGEmGIG3G5QFUBwI4zMvmd0j7h5Z1yygB4/gCBSI/3dFpjrQKjruDSfbvdHXLk/kP0j70E3ga1xpc+PYjsCBwh6l3NszqcTkBTbboo4ARAexQVs1Sczv6iPljIQZS5QUeABkHFjFh4uIKG11jef/gVnZKVudza82fyLv8cDhOhdo1ZZFHpg4XNF2WU+yesjelsf/3bjCBhBhHVhJ+3QuPj50o9iPECIhX0VSoBgxVxYpVrG1Y3wqAEE1fKyLiltPgLRWTAmFrZBnPtkIABBZoP8FZTvL/HgLuan24xlsKoiKH5Tl3hXs4Ex37OY+2I8QDCMdTAKyoWhH9QMG9PxZAvTzgqVBZpdGubjjKiDWQfy5LqlEeVnzS0e/5Ump2RKakm3zh7n+Qxqw7l42MyFEYyr0MXn428NwQjIcQ9WIEO1z7W/xZQmCEFnbV7xWAIETDryOyGAEyZMqBsilWII5XTfunWL8E/SpEkpVapUUh3ywCdbCKUHDx7Q7du3KWHCBJQiRUrTFz4KisLJPDkNRwoVGAh8BvVP6oWSRn36FI+6tY8Ku4C+37hxg/8xXilTpqQ0adKEapij7T0qN5/e1WRdrTUy8gFdv36d97IRcGTMmIGSJEniSglB1t26dZPflSJFCkqUKFG09T2mXow+3bx5k+U41kT0BfAZs5dUmRH6Xpu5ndzEv8TUONp957EDCBBAly5dol27dlH69OmpaNGilCxZMh4n/Hbh4kX+f6tsCHkBYLNC0SdOnNhurPn3WbNnU9jUMCpWrBi99tqr3m87etjkJrHw9u3bS1OmTKVs2bNR3z59KEGChMoaEFoWhH8J6bt379LFixfo7t17yi9BsKRPn45u3bpNt2/f0qrqW7BuqVOlprRp00aLQHp8AII8FT4/qVivvl/VMPZho7ax9/75ZyT9888/fmuwU6fO9MILLwSzVWL9WasaDuK369ev0Q8/fE8LFizQtRdK8JtvvqXSpcv4GTZWHbtw4TyNHDmSZVS7du0pT548XnkXHh7OSlZ1JU2ahNKlS+8BJP53AMBcvnyZ7ty57fcjZA/2PmQswN7ly5fo/v37fvclTJiI0qVLx/e6uQCgfv31Fzp//jwNGjSYkidP7uZxF/eqU581GerLl/O5jX33+9d7cPHZaL7VCbOJJsQiQNAviJiygGBlL1q0iD797HPKnSsX9e/fn2rWrMGKGgv4q6+G04MH/gvZbL7y5s1LTz7ZmHLmzMEb7cSJE3Tz1i2+XQYZYtnMnTuXxowZS8mTJ6P/ffcdpUyVyn9zefRu4kQJKX/+AqYbVDwoFueiRQupX//nqESJ4jTqn38oS5YsunfbBTAeO36MBcnp02eU3U2XNi21atWSdu3aTTt37vS/x6Cj6tatS82aNqM0aVK7sniieW/4vT5uMwgSBDDw1IIK1Ta7OUAwdtjMReW7L4ru3LnL+wGCNyYtTvTlu+++pe+++45y5sxJ2bNnJygRXE2aNKZnn+3nP39RUQRwC4UFJQgr2cgMxvSaMvueXZwDpvj69Rs0cuRftGzZco8ij6QjR47QxYsXadSo0VSzZk3vmDjp19GjR6hfv2dZCQ8e/DGVKVOWH7t//x59/PHHDPZVV548eQmgDHOguvbv309Tpkyhw4cP+f2MddO4cWNq1ao1bdiwgaZMmUwXLlzwuy916lTUokUratSokZOueO8BMOjWrQsdPHiQNm3aQhkyZHD8PJiHffv20fnzEY6fMbsR/SxQoCDlzp1LClbWpL+bDATrrAw3HLazJP+HDiCoBZyM3tRIzu0MAyBs27aNfv7lF1q1ajXlzp2bXnzxBWrapAnTVE80epJwj3yBccCiwiKE8JHprPLlyjETULx4cRZSn372Ge3Zs9e0WVevXqXjx4/z+ypWqECJmS5UX/jWN1+PoMyZMzvqJgRk69Zt6PyFC/TRwA/pqaee0j2nCo6Ub9i5cwe98eZbdOrUSapUqTIl9lCRd+/dYwEFS+CtN9+kw0cO0+bNW3Sb9cyZMwxIZGHSpnVr6tixg8c6cLPIHXU3xm+Ki0DC7Fx3ffyCSO3y1dBQpXdFRUXy3sD6jYg4R3fu3OG1lzNnLipfvhxlyZJVUrzaaGDe16xZ47dnjJOTNWtWqlq1Gu8fq0sGCM888wx16NDR+wyo5IwZM/LjuA/W6+7du+jw4SPMCl65coUBDe4BuChduhTlypVbCRbcCO+YWmiC2YOhATAg3Cx3796hYcOG0eLFi0MKEPDeKlUq07Vr1yh//vyUOLEmiwAYIiIimOWEwVSkSFHlEKxZs5q+/HIYr4GCBQux2xTX2bNn6NSpUwzmXnvtdZoxYwYNGzaUgSZAB1hX9PHcuXA6dy6CXnnlFerTp6+rYT537hx1796NDh06SNu376TUqWGEOLuOHTtGgwd/RMuXL2dZHqh7An3Ili07vfrqq9S5cxfvx+UaJ+p363WZfcqmlew06kVnAMHZSMUBBkHFHPhoUSdEstOu+u4DADh46BCNGzeOpk4Nowzp09NLL79MHdq3o0WLF7OiT5QQ9LwWnzBmzBhasXIl9e3blypXqkQJEiZgBY/35Mubj4oXL8Y0GQRq9+49aP2GDVS/fn1KYUV7SfSCkXaEot+9ezdv3MWLF1GuXLnYPsT3bt68wQdomF2jRo2i7/73PbVu1Yo+/PADnfUnuxYwxtjQ8OuKa8cODSBAcPz800/e365cvUqjR42mhYsW0fvvv0eVKlYk/E2T1EQTJ02iWTNnUqdOnahly5Ze6iRHjhyULVtWSpTImfvF/UzG7hNOYxxUrQwF2JAZBGPhJSNA8E6W55Q90Sax9qAUJk2aRGFhYWxdYX3DCodQBzCoV68uPf3001SkSBHPvtDieKC03n77bVuAUK1aNRo69As/Vss4NjJAePfdd6lXr966NYr7sQ8AZqdNm0arV6+mo0eP8p4VEehod7Zs2ahChQrUvn0HApNldAGuWrWKDh48QPXq1WflGBcu4/4UbYI8ePfdd1jRmjEIqrgiIUfNGAQZIHz99TcMBtGG/fv3scxLmzaNI4CQKVMmev75FyhDBg28zZ07h+l/I0Bo2LAhtW/fkWMGwE4tXLiA/vrrr4AAwunTp6lXr57MXuzdu98LTpzMI8YDshHAskmTJpQvXz4nj/ndM3PmDEI7XnvtNerSpZvf72oQ6u+TVQEEdRaF9gnfXPu/K9QuxVh2MWjIyLi4zQGCMWAroHnV9FpUFKPc337/nSZNmkz9+z1Lb7zxBs2dN482bthILVu2YAGD68MPB9KYsWPp22+/oZYtWrBgnDx5Mm3fsYM6dezovU8GCFMmT6b0GdIrF826tevozNkzVK9ePa9FJN944fx5+vbb72jL1q20ZPEiyukBCEDNv/76G7fb7Io4H0EbNmykrFmzUMUKFdXWExElSZyYatSsQd27+Ra2AAiwHl54/nlvfMSt27do+fIVDFoGDvyQ6terR4uXLGEAA4CwcNFC2rp1G/enapUqDBBgMdatU5d9kKpLE+hESZJoVkdcu4JR4Ea8H8y7nIyLKuran1kwP5MESmHatDD68ssvCWsMChUAN3nyFHTy5AmaP38+nTx5kv/+2WefUaZMYLSi6N69ezR16lQaMGAAlSxZksqVK+/njhB7u3DhwswGyIBU1TcnAAGA4JtvvmZXIdoC8IL3p0qVmtcklAaAC/oCYPL22+9QuXLlvJYivtG6dSsG9KDcQdnHpUsABdEmJwBByFEB+KAEjx8/xq84e/YsDR8+nI2YHj16UoEC+XlfghqvXbsWj9mKFSuZbcG8Qn589tknPF5OGIR8+fLTBx986AV/EyZM4OeNAAFW9tNP92FGUaydYcO+CAggAMQ+/3x/loX79h1wxQIIgHDlylUaOPAjqlq1akDT/957A2jp0v9MAYLQM9rcGEur66WEG5BgBRDkjoQCLMQaQMieNZ3BZ6OeI//obfsoUjezfTY8nNauWUuVKlXk4J0ffviRfvr5Z+rdqxejdhVAuH3nDrMJZ8+G09AhQziGAZcMELZt3ULpFX6xqMhIeufdd9m/+Neff1LpMqX9vMfY0B98+CGtXLmKAQIYBFyg+Z977nnau2+fmy4q7wXN17lzJxry+efe3wVAOHDgAAsT2SqFhQmFAYBQskQJFronPUAF1iYUPuhdESwEVuXzzz6jwoWLeN8vUvG2bdtOf/71F//9pRdfpGLFQGHGLRdEMEo9pgFCsIvh0KFD9NZbb7F7ASzQSy+9RGB/wB6A5t64cSN98cUXdPjwYfrqq6/YdQWBhmwcBBOC/n722Wepf//nGJDKoRJi/4KtAg1sR+faAQRYnojjGTDgXWYJXn75ZWYBoHTAEkDxQOGtXbuWYxlAJ8NVgfZlzJiJhwrfKFiwAO8rtL1WrdrBDmG0Pq8CCCIuRAYTMhP544/fMyOEC2MCsIRn4H7BXMD4wZy3aNHCCxDgbsU7Nm7cQJ9+6hwgINCxUqVK3swpWOb79u3xAwhw0cJdIVwMWHeYn0BcDFDMYDPhitmxY5dtnJY8QTEJEJwuDDkmwGl8gD6WiGGIddS408ZI98UqQHDSXiv/jH3BC0dfoHv37lOSJKDBE7Aw7NCxEyv9r0eMYB/TwIF6BgHBLbXr1GNF+ddffxIoNlwQXmHTplHEuQgOCtLSkfQX2AcI0gULF9K0sDCqWFFjKeQLgnfz5s0Ufu4cx0YIqwsbPTz8HLsAzC4obVgJVapUYWWe1pAWJlAlxg5UnxzfIAACBBJiH8R3ETcxbvx4Wrp0Gb+zWNGi9OKLL1HadGnp9ddf1zUFwgJuG7hCvv3mW47N8H2T6MbNm/T33yPp66+/5uc++eQTat+uLYOPUCBeIRCvXL1C6dKmcyw4EJiK7Az0OdQBbiqwEfngAStfVpqGVFvV3Iq0LvwW6jZOnDiR2QMAXFjeYH/kC+v6xx9/pL///ptdDFA82JdQxD/88AMHtkLZIOBXvnz70yi4hDDz76kdQMCY/fnnn8wgtGnTht59dwCDGfnCOxBZD3YDexcMAViOUqVK821uAQL6jz3hNi0Z44m9jH0WTKCnFUDQ91v7L+yjCRPG06JFi1lhYP+uX7+e21+0aDGWV4gv6N69Owd+Yh6XL1/J8Vi4nAKEdevW0ZdffkFbtmzRuXCwVhFrIhiE2bNn0RdfDOVYBXlv4b60adMFBBDGjv2XRowYwbEn48aNp2rVqpvKROMPKoBw795dzmzDfFldWP9grbC2nTAIThvlFBQY32cfv2B8wp0hhvdfuXKNsmQOPr04QSTghoMrPOIqgUFwcoUKIOA9oEtHjhylA1qIou3Ro4eXHoOCe7pPX14ogwZ9RA3q1/dzMSBV8Y033mQ/PwSVbGlDmOBbw4Z9SZOnTFF2ESk6UPYQHKr0SGzg998bwDQvBIvRv2w1bmAZ6jdoyHTwD9//j5kA04sPt/ItGAEQ0P4pkycRxgYo9cqVy8yqTJ4MgesDCAUKFqCRf//N6Vg///IrdencmapUrULDh48gbEIVQID/GH7uDwd+xOMEt82TjZ709NM/9dLJGsE9GFPESMB3isgYsJIYAAAgAElEQVRmjC8AWqFChahbt27UskVzSpbMPxVqytSpNGvWTNq7dy/duHGTAVOVypV5TYA2D0awq9oOFxbcTxxjcv06C2tYX+3btWM6XP4eBOjRY8fo999/p2XLlrGgx1pAG+HPhVVsFmHudNxwH6zo0aNHc39BD6usfAAHgDlk6WzatIkpalhveBYuCMQh9OjR3S9vXygs/xxwtaAyAoTevXvranqArRo1SmMtmjZtSu+99z4hk0glOLdu3cp7GGOKeIZTp/6fvesAj6Lawv8SOqETCL13BCwISAeRIki1wBMbvSi9I733IlWkiYAgTYqIIigivUiRpvROqKGGJPu+/wyTzG5md2c3m8bO/b73BHbmzr3nlvPfc/5z7hVxS9Da9dtvW+QkzfmRNWs2qaNp06YoXrx4RFUEGD/+uBZk6/O7mTNnEUBPnhGfU5Ud20zlRzBSokQJGZsNGzaAPmrOS56c6eJgZEiNGtVtCG3adtPcfurUaZQqVRJffNE54iejAEFbF/vIvYjrje7QoUOHSJv79euH0qVfFplwuy5btoydi8E4QKBSvX//noAn+0LrKgFl6dKlUaNGDQG1jJqgJWPq1Kly0JkxYwaSJk0m1h93SIb81oQJ46R+jgvdFgMHDjI85fUAAvf9Zs0+wPXr15zWQ5dLrVq1RX7eBAiGG+/kQS0nSX0sqvue0RXGv5ZgLAiuTJPssj0pxB5ccGP7oBk3MbK5rRLOSDT4/bIl4sNk4QmFym7evPn4/PNOaN+urfipFn+3BFMmT8Lbb9fFRx9/KubYIYMHCglKr/Tp2xdLliwVP77K7lWfI/jg4uWi0SoE5eTzVJT6qJEjhEDjbiFAqFK1WiRA0OEAyNasc6gjQOjeo4dsUnqFSmFA//4oVKigWBDy5suHbxctxPwFCwQU0F1Qu3YtjB03HmfPnsGUyYoFQVs4Oam8z58/J/9MgpiepUUZT2O9Z9z4pMlTBBxQrqyPcg0LDQUjMAjCPvxfcznlpkyphJUS9IwcOQrLvv9enucYJbJYEBoWJgqEp+iuXbrgnXfeQYoUBBbuIW/7lpPUSavJsmXLpI2cF1Qw3MA55lQin3fqhHfffe6nt1hw6uRJfNiihcR683n2iXOE77ONdIkRbKkWLGPSivoUlQaVYaVKlQSM6BVGKgwYMAA0C69btw4vvfQSuKlSKR4+fBg9evTAyy+XxuHDRyQEln2je+n118vIyVQBwvZ+WO2XIn+bPFkJc4wkKSqRQ8q6BbZu/U1OnZQd2e8fffSRmM45js6sP5T/4sXfikLjGmSdMu6JEgkLn30gKOeplMqaYEmdG3yW31PnRp8+fVGzZs0IlxrdL2++WUNO5pkDMmPnrp1SL/9HoMfooh9+WCFKmuTo1Kltw7xpaufewv2nb9++YmVUiycAQX2X9bVt2wYkZXL+kAdAqx9BJhX8a68pUQzkIDhyMTBXjHYtMtqFa9hR/gR+k66nGTOmi8uKclXXHec6gSTdmDxkkYRKJUb5KuPnOokTv9ujRzeZhxwTupr+/PMvw2BeDyDQrduoUUMJffzgg2ZRlsCBA/sFKJLMWbfu2/ESIKg6UE9XRurCqDw+Z4nz4r0FwZ1NzxlA4AS/c+e2nHboUgi6FYRNm37GrVu3sWzpEhQsqAAETr49e/aixUcfy4ShQhw7dpyQFAkQuOFVqVodgYFZ5JSdKZNtrgG1vQQIP/ywEn1695LTqFrYxg4dO4kpd/n330v4mFoYJzx5yhRs2fKbxwDhDC0IzwHCtGlT5aRnVLVxk/pm3nxccUCCTOXvj/feexep/f09Bgjujaf+0/auiI0bN2DwkKGy6bf87DMBVnny5MbRo8fEurFg4UIJe2OIJhU+NymSthZ9+62YQmlqfbdpE/FR05LAseZ7VMo85ZQvVzYiosWd9qvPUql8NX26mMa5SX/wwQd4/7335PRPshVBAy0LXNg0m5Lsyc2ySZMmYr595ZVXRCEWLVpU+rjjzz+Fw0GlREBB90B0Cvs4e/ZsUbI8+doTCbkmCL6mTZsmJ8BZs2bJ6Z3ERRJ7GbZLxccNlFYF8lAIYqh4CHzIE2jUqBHSpWOsuvPIpKguho9s2kMZ8bQ+ffoMOd3TqkJwT8XO/1HJ0WytZ50joKEFhAcDjgGVZLt27STxEOcBARf7PmzYMDl1p0yZQiI3GMufKVNGmU8EDWTfs4/kK9HqwzapAIHjwHnDUzrnYUBAJty8GSQuvyZNGgv4HzRoEN5+u57NnjBz5gwQGHHc6RrQuk2iAxA4n5m7hONB5cs+kT/VosVHkp+E7dICBDaKeQu0HAR7gMAwRrqVTp8+pTvtuL4IGgkUaJnJly+fzXMkmfIgQ6sBv8/C8MdmzZqhcGHbA4XeB44dOypglf+l24ThrcuXr8Brryl1uSrOAAKzWO7evTdKFSNHjhBwSctwfAYIjvpu78KwPzxHRhMq61P9O8HgvXsP4q+LwdVg2/+uR/awf4adp69++PAR2LtnL5ZpLAj8jaErY8aOQ4H8BYTIR5MYkxvRHE4TIjf7rIGBYlbVFq3iUgFC1y6dRQEpQlfiSrt06Yqt27ZJMiN7gMCNb9vvvzsECOyfM/TOxfdWrdqoWKECJk6c4DCKQD1lq+3nYubm/+SJY34Dn02c2E8SnvTo0TPCgsBTJ0MrO3XsiLfequnUguD+eCpv6EW6qHUtXvwdhgwdiqJFimDUqJGiSJUQVasoLPqpL1+5jPffex8ff/yR8Ez69O0nm3qf3r3RunVrG7M6XVHMZ8GNum7duhg3dmy0MrXRt8n5wJM1MwH27NHD5ntUeNO++grkAtAcO2TwYAEPJUuVkhNr2zZtRMmqlhbOAXIC1q1fLyG6PJHqpsw0KGyC1YEDBwojnCREEtdUkMATGgEAlRpPofw7IxkIejnXKDueBrlRU+60LOTNm1fk/ueff0qfqQjIT6CyVfvgKCxTcTtFWhAUF0Nk7gR14+IYUYlv3bpVWPr8HpUggUr58uXFJ03FRDnaAx5nHAT633nCvnr1mlgw7OcGAcaIEZwbv4qcqDAICFSAQIsBlR5dHyVLlrQZZypAnkQJ/Jj9T83gSjdEy5afiWJmmPDUqdNsRs5TgMCxIrl0/vx5EQRFZkbkQalt27Zi1ahevZoABOaEIYhmcQUQKHsSQAkCtIVgjSCMhWNO2avjzH2F5nvOZ4Ike54LIyEI1l555VWnXCSO8axZM6VPtBzwMMS/N2/+P3Ez2Ftr9ZaALwKESGCuHBf1XPdaTp86bjwcvFAAQTshHPEX9AACySf0WdKiQKFwIssCtliw+NtvsXXb72jbprUsfpLKqKSTJkki56FsWQOFvKUmGmEbqBCWLfte/Ms0vUYUK/Dz5s3C3uUGkz27sihZeDpkiBFNyo5cDFyE3KjPnVNCmOzL7Tu3JRSSpvsG79SPMO3ZP8fwJm7maqH75Ztv5kl+CGeFFgmaQr+e83UEQBgxcpQot149e6J8+XICELhhTp0S1cVgUGc5fcw+DOyXX34RgHD79h05mZN/wVAu+pYJaKj4qESYkyFXrtyYNHmyECV5utuwfr0QJO3LDyt/kLS2d0TRbY9gwNs+Zyx5F/37EydNko2RptfcOj5z5t9g1AfbSVkSiFKh/rF9uyg9/pnkUJ6QWQ9PTTyFccOkmdgI0dGRUAkOBw8eLG4Gnqr5LfrMudkSNG7cuFFAAgEB5x9BBC0XnMO0IBAwVqhQQUAAY8rVzYXvjho1SvIV0BfNP9u7nNTNShsGRrmrLgYVIKibl9Z8qoIXAj4qK7o/qMApQ7o0qKDr168vJ3mFjBu5OTqKYuAhYO7cuaLc1q1br5vYicBk3Lixwi9g+C8tLypA4Hfat+8Attuev0I50m3JsR06dJjImIX8EkZlUI48iKinanW8PAUIlAvdC1SkbCvbRssP8ymwToKHTz/9VH7bv/9ARMi1HkDQzh3ujTxEcS6wkFvA5Fq0zm7f/gcCA7MKCKLLRXUZsG8rVizHtm3bxFLDlM+MpFCjnsgPYjZaf3+FDOeIsMw5P3Dgl2CSJh5Sateug8aNGwrwnDr1K7HouCq+CRAcS8UZQZIH2nhNUnQ12J7+TqXBdMtaC0LHTp+LgrYvXAgkw6RLmxbJdTLBMWcC/dXai2RUDgJNrLZpQK0SHsn6iNi1OcTpM799544AE0cAgWbdkaNGyclJrzCJknJhUyJJ5+yIu9GtazeJtFALFzg3jouXLkX8G+OomVa5QIH8EdnUaJakyXvK5CkRAKFN23ZiCh8xfJiYe1UOAk+CegpB226j7g9n48xTC03gK35YKScYhq8xdJI+cLa9eLHi8l9uIlwM3FjWrF2Lpk2bYMzo0bpch+PHjwuh68DBg0JifKnES+IKYPY+I4Unam5WBI4TJk4UE379evXkpK6XG4IbH82mf+7Ygblffy1EN7LE6XJiRAvrK1igAAoWKhTxX2bxVOcc/eZ0D3CzN1LIW2D7cj4HK3R10HVAJUaATNMw5ybBKk+DDBWkpYI8lSVLlkhkAL/FcEI+z3Hmxm8/32g9oRLifOzVqxcaN27sAvzpWxDsAYL9pkagRMDCftDVQdY+5yTl06JFC0kZrJ5a9S0ICi+JbSSgIWGRiZ30CudG165d5Fv0gzM6QgUITGNMDgGtGPaFVo7mzZsJ6KI8CSQIcgicli5dIsCBjHx74rInAIHj1q5dW2Hmd+vWXaIaSAakZYPziZky6W6jdZPjyPWv7kWuAILaL+5hnLeUNZMj8YBFgMjoBYW7k8JmbZ058y+YyI1AlC4UmurLln0dRYoUfe5+ipSYHkCga4jgmVySjBkziKWF7g8SUTk3WR/zWjjKvaLWbgIEIzuEYmVQSOrxOIrBWFfcf0oPIEyfMQNnzyrkOW3hgvrvvzNiDeDJVLsJ8s9MtPFO/Xo2Fy/RhE2/WNMmTVCzZmSecQr9q+kzZDH179c30j9nAe7fu4/Va9YKw90RQOBiZnvYfvs8Wvx70M0gjJ8wQRRT82YfIIUmU6K2T6VKlkLx4sUi/onWC6J8svofPXwkKZIZikmXR/NmzfBhC4VHwQyTPD0w4yJNuPSdvvk8CmH69K9EkU2YMFFIio4AAvtAszRLkcKFXSbPMTK6NNMzgyUtIcf/OS5cgvvBwXISZE4G5oWvU7u2+Kdp5qcVp0P79nJy0yND0ozavXsP7Nq9Gwvmz0O1atXxZs2acpI2Unhq69G9u5iM6a4g45oXaHXr1k33RkICm779+gk3ZeyYMXIC49ziPGG2wCNHj4pC4rjTZE4FzlN561atZFPm6flTyc3hnIWttp1yZ1uqVK0a0R32bdOmTRIFwvZwrhLE0jpA8h1daiTn8hRoNPsg5xT5EwQWdJPQtO2sOHIxqGuO85Rjy78TkGgJmir5mJeNMQXz6tVrsHr1KolQouKgZUkpVnGDqHkQKlas+Jy0HIYOHToI/4RzpFev3rpN5dzg73SfMBMgzdwqQGA6aTWawf5lnrzJ95g6dYqsGUaF0HrTv38/AYOMzCCQsS/uAgQCNprdaenh3sQkRt26dY24i4GWBMqPViiCZNZPYrJK8HQGEBTS2j1xQ9BCQTlzv+K71apVE4Y/5RzpDlN6o7oIOX95Z8z69etBoEUQz+gZWjMJOnPkyOkwNTaBH8Mld+z4U8AV3T+0ODAjJl2HdCtyjjL81Rmp2BlAYHj2sGHDo4wB75z4668d8Z6kaGRvMvqMCRA0FgQqVCJ8ug7sC/2Mq1avweBBA8XHHpmkxCoLjRu2fZgOAQJJigP69xOTrVpI+mjdWsmDsHbNanE/qH5VZjDkaXPz5l88JinaRzG4QtPavvL7nT7/HNevXZdT84aNG2VjZQge05qyiDXEYsHu3XuE5MTTEH38XOAkMHKjpCz5HE+o2jBLWguUFKu/4qvpX8ki7t2rp2wMRm/DdDa5uTHyhM/8ETeu35CUsUw2RTM9lUSbNq3R4sMPxf1Da8n7778fkSjKHiRQGfMkuP/AAaz7cS1KliwlyobgRoCZ3o2YmsgQzgmaUKmIOKZz5swB76ag8tALPeXpt3///pLSe87s2XJ5jRq1QNIXFTZlTSW+b/9+UWK0GpQrVw6zZ82SUzzn1ONHjxyKSAsoOT5snxr7rr5EJUYZ0i/NDYJt5bN0a9ENwZMplQOtXPwzgRmfYT0Skmv3dVrEGD3C9+ljpkvCXYCg5RDwezxxEwjRjE83XeTa0t6kF44TJ06C5DJGYFC2PC0zrM4eIKiJkrg2ybhfu3atkBjJUdIrnBtdunQWoLJmDedGyQiAQMsBrUQ8FdsXyvPvvw+JYiOQZpt4FwFvbqTs5CbWLFmiDRB4tTMBJkEjXWk8rWsva2J7WbZv3y4uCAIGukrUogcQdu/eBfIEaIWhO4dJirjWOTdZCCTJQVGtNFzPdH2R58DvEBSoeyv3ACp71kOZsO/sNwE5lbteJAPvh5k5c6asQc5b7jm0uKhcI5ImCR7otuFv5DI4KipAoGWYEWplyrwu84mkdFpW9EKHudYITqdMmZogSYpGQYH9c6aL4TlJMTBrVhzYf0DSttoXSbX8nKRId4K6cavP6Znxe/fpi++/Xw6eTl4urXIQrKJc6Nvk4iKrOackJ1G2VaLXv3buksk6atQI1HorMszRWSiKtr3RAQhcsN26d0doaBjWr/tRAAJPUTRNpn+eNvqD9z9AixYfivmQ2SB79e4lxEambKZVgCfut2rWxBdffK5YRzRp9dhLnlYYVcAQQxa6JWjOdXWJj6MJzvoYdcKNl2F6BCoqgOOCpmIl43/hwkViRaD/cvn3y6UN3Ah+3vSTbngUXRAM3eRY7Nm9S/yzjGPXZ+Hrtc4i/AdudjSrkoPAOr5bvFg2bPvxpB+a7PnzFy5g9aqVcv8Bzak0kVNZqeZfNVMgQQ8VETc5kl05z9QcHEY2A85Zv8SJ5bS2a+dOLF68GHfv3ZMoCnslxU2cbaOLhT5sPkNA8ttvv8kpmIqA1ghxMdh9/Oq1a5KHgqdOPqMSdh21Uc+CoAUIBCUjRowQJc48ECQUOkrfzLHnKZqcAebLVxQzL/WxtSBoMymS2MtoEwIeZmzk+Nmbuxk9QZDCAwVdLARQXM8kmDoDCOwz20/QQtcEx5WgnIRHHiKYnVQlLmrl464FgW6Lnj17yN0ITBBFt6QeQKCriPkRlPDWuU4BAseNc42EZI798uXfCzigxY6AgoBAuw/y7w0aNBQ5UZ60JtpfC825THBJiwPzUdACUaJEJLFTXSP8Luv45pu50ie6/ihrcmRUPhLHmvcrcB3xN4INNXTdHvzrAQSGfHK8g4MVF51eNlD+O61puXPnEmDSr18fcfU6uovByDqM78+YAGHPXjHHLViwUE5Dq1b9YAgguBpYAgTmQeAktj8dc2FxEaux7WpdaoQCT/2jRg63y4NgzFsfHYDAUynDBakUGdLJa6sZ782IDWE4WyxiTahcpTLWrlmLbxcvFpM3N0UmZTp9+l8hPh0/cQJ16tQR64CaJlrbR/qGZ86cJacH+nJ58nA3e6G6aRMEzJ37jSRyon+XuRjUG//4TSpN+uY//6KzKFFagXid9aDBg+U0zlwNzMuvLVRm/P3HH9ehYoU3xDdPJWRPjozsk/InW0USeZrdv3+fJNs6eeoUBg0cKCdfbQkOvi9uJ26CJKiNHzdWQEv1Gm9KXyZNnBiFuMYN8Z0GDWSsJk2ahMaNGrmakg5/J7Br266d+JPbtG4tlhNtIeij9YAnZxJ236hQQZJUHD12TJQcN3m+w3tK7MHy7DlzxHTOzZpXC9Pi4ay4AggcbwIuKh5aZ1gnx9V+/lCJ0RVHXgdPq2w/owhUHgrf5ZweOXKkhJU+H0H88cfvEr1AxU2lJpePaQrnBr9JCxSVBecGwS1dkCTlOQII6tzgfKR1jt/g3sB9gG0lgOXY660DdwECm8uxomWALhiOqx5AIIhgHg2mb9dGZOlZEOgmZWQH9wgCSI4DZcFw4b179wgQY6giC29YJMeiYcNG8jutZwReBJOMLuHcJjhgXgiCN0Z1kbOg7JWR2WcpM8qHiptuGFq3GKLJi6EInLW30/JQs2vXX2KV4dogKGUuCa01QHtPBcGE7V0MyhXnnH/azK/aVP+c22yfnx/TiVsEfOndxUAQyBBQhs9qeWmUDeuni5bzi/wJ+9uBOT9ItKXriQcsV3eXeLzoDb7o8wBh88+bEZA5QDJ7cYIePfJ3lFAZPQuCK/kSIJCDQEVZ4fldDXyHm8G3i78T/xv9mLlz5YyoiqZd5mZgCCYtCEyzrE6qyLAw7ZdtY8r5DDeDylWYKKmSKG3HLoaogIPRDwzh5MInqGnUsKGYrdu1bYuOHTvIh1l/z169hZjEwhPlyBHDI1I202c+esxY8ZtT8X45YICu2dSV/Bz3Muqb9A9y8+FkptzeqvmWgC8uRp7IaXKkmblBg3dEQXPT5Jh+v3z5c5LYSLl0i5szFy7NiEygRHkuXLAA5cqVdRvAqK1U86WT8LZw0SI5dQ0bOlSuquX3eAqdMXOWZDLkZjhj+nQ5SVH+/C8zKVapXFlyHajmW5LDaG79eu5c2ah/2rhR/LjRKW3atgWjQbgGBg8aJEmAqPiV8Rwj/uYa1auL9UAl3VJWQ4cNE2XJzY55JqhsuemxXVOnTYtQoAQS/fr2lX45y4SgAgSSM6lECabsN0muHbpq2CZyMRg9wXBUtV2cv5wTtIpwvpJUS8VBDpFa6MIhuKKbide9K3kTksiY09JBUMnxoIKj2Zv/zgMEOQS07HDsyCtRWPNcd/YWBDWeP+rNHGw/Q0W5RlgqV64iwNo+ZbTaVk8AgnYu6AEEjh0BNfkm3Ke0kRN6AIGWVc5V5mhR5yHN7gz55DgwsZya7+D48X8kesQeIDA0l3wNAgQq+wUL5kvkFImhdInoFY4hczJwXhCskU/hKDEYlStP9AQTbCvnTocOnWwODFT+CiHYHiDYhlIbsdjqZVKkG5BuG1o0GX20bt0Gm25RtkxPTcsLk0SRQEoLrVq4T3Xr1kXciTycMV+FlsgenTXuybs+CxB4mhsxYiS2bt0mpwpucFOnTJL/2hdPAMKs2XPEjMgTGRWTWggQWvMuhs0KB0G9i0El/3y/fAX+PnQILVu1lGuVtaGaVC56HAkFRChfoC+77tv1UKHCGxg/bhzSprXN2KZVXIkSKZnkeKMiNz8uPpquGcZI8zERNifvJx9/LIxoyokbJRXo7j275ZRA4p992b1nj1gIGjZ4R6wg7rgPDCZPjPgkt18i9omTJgv7nMib5mGeHGiapOmXMuQJtlPHDqj/Tn1JL81TxsBBg8UkSWVGZciNh0qDGzI5C4xNp+vESBpY7WlGbyFywY8cNVrkSiBIubKNPE3w+1RuJFoxK2C6tMoNmARhHTp2FK4BZUgyIjdXWj6oBPlvjIxg1r/oZnpkna1at5bNk5s35wX95JQhx51m4L59+sipPRKsWsUPP3bcOAFgahZQvsf5RAXLfhFs8N30GZTrgJ0Wq1XCULVhjnqJm6gI+AytHxwvjjHBMNeXmpKaGyuVFt0QjArRugbJhKfFhrLnuwTyPEXzebadgJNzg3VzrDg3+O/sI+cGyYyMyFBdFvYWBFrFItel7axW0kUvEtBHoEFXEYGKXipw1uFtgEDfPUEOQzUZ4kuOgNZywVwQ7D/Hj6mFCcK4n1BOO3fuknnBogIEztMZM2ZGEFfJ/WEGRXuAQHBJdwbdNtzHvvtuMb79dnEUgMDvMmcCrUQkM3Ke08JAtwFl76xwfFatWinWH4IgXuTF8SeAVq0TqouBBFq6B3gLqXZf1LoXnH2L647kUtXFwPdI2CTxmdEjnPt//bXLJlPsli2/ijWFVi3OyVGjxkQAGMqXKcBpVeWYf/zxJzLP1Gu0XS2dmPjdZwECzcfc2IKCbokZmScMRijoFU8AgqPBcgQQHD2vAgRmf/xx3TqcPPH8JscoBxOFNUflw/wLVJI8JSWXXA6a2rlXPf87F97rZV6Xi6lWrV4tcf9UQsxfQPcBQweZW4CbJv16efPkkdwBjLlnNkW5vIa399k1nm1mBAG/TZYyUxU7Cre077cjgODKwXLl6lUhefEUTBlwA6JCoKKjUmMkRqVKFW2sQ1yE06Z9hd//+ENIeWoK5BzZs6PFRy1QqWJFr6J3lX+xYf0GkQ/bSEsH478bN2qMOnVqR7gyKBdulNx8v5n3jdxdT8VN2fKq7tRp0kh0TOtWrd0CYM42EZLaaDKnC+hpCPkWEKVLUhhBohYcqPVwPtPHzTAzEiypnNluyp1z5H8ffoiGDRogKeehpthPycgNOjLMkYRG+r4jY+WTRWy2/AbbS0XHTfrhgweSVpvzjICGSp2ne55MCQ7tTfdUHjyd/vHHH6L06S7giVMlbXKseBEVQQKJqercoMuMYZNUdKqVim2/ePGSnBxJkmOkhhrloYZnRnbdAmbr4/7DUyzroyK0JdUp5m7mF1AAwlPhzjAEddGib4XU684dIfYWBLnrpV9fSWTVsmUr8elrCyNVCBDoKujU6XORDyMvqJyZklldyypAYOQL+QaqBefWrSC50MseIFAh5smTNyLF+OHDf+Pff/+zAQiUM78/fPgwsV7RslOjxpvSRlfgQO0D1zLHlqGjdIEy9wn3d2bapAVLtSBw3nAPdJTq3ZXC5WGEfdYCBLafliWmA6dV63//U8jdauG8Yz4IJszinR7kv2iTO3Et0bLCdjONOPk97rpfXbXbnd99FiDs2rUb8+bPR84cOdG2bWuZfI6UWHwACNywmLuc0QOOlKqjTdc+A77693Tp0+GjFi3Ejzxq9BhJI0sfPU9GXEhUtkuXfS8+sXt378pNjNwsuAgoK5VDwdBH/j38uf+Ok0p9ZsXy74U4aBQguDN59Z7lBUg86eSecBwAACAASURBVDHBEQEMffgcW2ebADdiLkxaTOhfJQjy8+PdAd4vtDRQufF7NIMyZTdNtlqeitYawT9Tljdu3hCzY3hYuChtvuPu7YLOeqO1VLFdN25cF5cNiYdaE6jio40K19STOy0z3DgpR1pIjCgyLSjUchDILWAopzp23CypyG2K1SrfY5tvBgVJGG7G5753dyxXjmRDUMbNmsAna9ZASZhF8qk26ZIN8HkuG1WeWoCgyo1Kgi4iKhJa4QgolJTtCnonmY8EYLoiWB3Hn75/8gq8ARBOnjwh1hfOQx4CeA+FttAiR3fAmjWrpd9UULSw8Zpv7oVqUQECCaN0j6jjpGZNtAcIVKaqz53y4ZjRaqJ1MfB75EYw3Jcgi98kgVNNoGR0RXKf4v61cOECiZbIli071q5dI2HOKkDgvzPiyp1IL+33OR6UIQFCs2bNbTgRRu+RMdofR+vO6PuePuezAIGnAqL+LIFZkIGhe04KT5kbNmwU1E1Tm5FNz1F1HOh+/QbIaWv2rJk2uQictYGbBK9b1otzZ2wEzeb2JDr139V67Z/jyaxEieLInSePRFYQUZNvkD9/vojQy9u3b0kSlUuXLkuehOAHwWKWldvinj1DWHi4mHWVmFnb83+qlKkkmsGRb9XTSfuiv6cVox6bWusf9dYV2So5y5Wrgs/RNeXtDTBijlqtYvonsY2AU1vebdpUeAlOgU48nBzq5q6uEa4zkiepDBkdQheM6v4giOAJmCZycjvsC/ciAiV39iACZoYA0h1CQEL3FE+pJNFR+dqnJ+Z6puuGHAnuN/wWLR20AGjXMtuvWJwO4N1330OGDMo+SjIjFTNP/nTb0JrAMEQqe0YrcP5QsTK9M/MofPZZS4kwYqGM2G+SRWmV0COgGh1i1nXo0EH5frFixSPuxFFP8dQB9erVB7NqOt6vbX/REhjXrv1R2s/cD7Tq2LsZvblGTIBgdNTj4Dn6WXlVLK9hpXkuOqdhDjSzNV67fh2VKlawy7IYvc4ZnUTa51SlTuvAraAgOW1HPXnZ2iAICp6FhIAJaVQWNmPIVUKe0guLbCzkQMTUaTx60op82wjvQefyS8OXYHnaTi3gcwUaXH3DFZBw9bur+r35O/24TAxlf1sgM0lSOSY0gKAFP+QfUFmSA0HiH3k/VJraZ+h6+vvvw0IgtAeINJPTOuN4D4o6m3miZzIhrkea28np4J7GtR6d/YyHBPINCGjox1e5Ivz7rl07JdU5+Q5M0c2+0P2iJmni2JL3wltdCxYsFHEPBOVAGRF8eOMqc9ZHPgPvoFBdVdyz1Dwf5Bd56mJ49OgxmHOC/XZkrfImSPDmGjNal89aEIwKKCE9Fx2AoN1w7C0BUa/pjcrMjionV6yBuJGsETBgtGUx3UM9gKBV5NrTjF6b7Ten+AQCjMrY3eecja8jF5y73/D0ea4ruuuYUZIndEYGtW7dxib3gbL2IuGoLYfBdsbpj6eRGR7TM9dTCSWs9xyFPUeCPZ1dUSN61+DB9mbFuJCOCRDiQurx/JuRAMHYRmJ7yjF2gVFcicDI9umobcakEfM9cxUx4WiDMgoQjIR4xXwvPftCTAAEI3DYaGt5MiYxkn59hsGRFKwP7rTKQbumIv+sn3eDtakAQ/mvfoi00Rabz3kqAXsukYyME4AQdX3G/V5qAgRPR998z+nGxk3K2WIwxRezEnBmPTAaxmUPNF6k8XQHKHoTINC0TheCknRHyWTpuiiX5mgVjLPTp2p10P5X+w09gOn6NOu6leYTxiVg7zL0VP56FkXjrXD9pAkQXMvIfMJNCTg74Xq6ENxsgs8/7k2A4Ey5JNTxjCuA4OnE1EZFsI6obkCeTt23cUWt19MWmu+5IwF3AYKzoXVmqYju+jQBgjujaj5rWAL2G0/kaVR/a1ZOOzaqyO5b9jRB9zdDw4338oOGlJETa2Jc9tzVBuPIbWHUneFlUXu9OiN5OQyNr9db5lmFesBCrSlqzga9b+jRdcW24VmDzLccSsCIK9GZZckba9AECOYEjVUJuN6g9JujTHbtVpxwNiRDCsTOhByrg+LGx9whPjrboLyxebnRbI8ffdEAgr0gtGtKsUBEujOiCi3hrDmPBzwBvagX2WTk31yBfptjmtWKu3eDEZApdbQlYwkn3DBQrt+8j8DMaQ08aT7yoknAFUBQ+6vvJ9UHCPHdN25oUTzveHzfgt3xX+uRHY2MlZFnYmtd+ApA0ANs9pFNzsiORgCfkWdia1xfhO84W4veAufMRXLPBAgvwnRJeH2wBwuufKhRTztKnx37Z+1zSKoyiu9qOP6OpbPQLj3rgj3gixgBsQhF9lMPFMQ0ASu2pewOUIyttkWGRmuJkMbWhx5/QS/01vGhwNh3YksWL8J3tOvTkfvBCABXx5FjZ1oQXoSZ4QN9cMVr0F4i5FwczjYmoxyJhCdwVwpKGxzn7d4ZJU26S97ydjvjQ32uxik+tFEfmCst0w97dtRqPRBvNG7EBBjenAt6gMIECN6UsFlXjEpAz4KgBxqcMbydn3Jdbc0Je0Ny1bvYtq8485e6OuU4ytXwopqx9cbOyGw0OubeWrj2FiZnLkUFTCi9sOcX2Y6jEUePt3pg1qOVAFkDpgXBnBMJSgJ6qaLt3ROONib7aAnPTjvxS1zeVAJGlI63e+/MLKp+yxGxyh4QvAgAwZvj6e2xcrc+LYB3BNyVsY3stS33wfY32+/HxWx1VwIJ+3kTICTs8TNbb0ACRrkOjlNMG/hIHD5iVKG8KNupI+6C/RC4w9aOw+GL8mmj4xmdNhs14kfnG0bfNTqeiqXBWK0vAlA01tOYfcoECDErX7P2eCQBRxyGyFOqM1Om49/MzSjmB9lITPiLAhCiI02D+jNK1gKj70WnbUbftbc6RLUoRKxYA1VGveXWwEvmI88lYAIEcyqYErCTgCsgoScwZwpM+5veCciRP93+OwkeiDgKKonhGWgUXDgbG20TvTWeMdxtt6qPTwBBsRRE3iHhqCOu1qkvj6dbg+/kYRMgeEuSZj0JXgLOCI+OQjAjNyFnPlRHJ56Ea/Q3qlDisofOCKmurA1a0OaKMJngJ74NAyD+9sYWmCkzUC/7o7MbMJV3IvtoO0cUUGLUjRF/JeW9lpkAwXuyNGvyYQk44jk4J2nFpfqM3mAlJF65EQuCo2eisvIVuSV4a4691czBdNDOUKOgMHozyztvR67HyB5ogUEEZH8+8FGBRsJdm96RoFKLTwIETh7eqMab1HijmrdLaGgowsLCbO55d/SNW7duISjoFtKkSY2sWbO6bIpW4YSEhOD69RuyWQUGBkpf+F0/P7+Ielh3cPB9ZMqUCf7+/h5d6OKyUXHwAGV84cIF3L8fjOzZsyEgICAOWqE9iUTdPu03HVcnG2cdsN/czFNOzA+3IwuEnovB3bBLo26lmO+l8S8kJICg9EppcVTwF6n87UOn9ZI/aSX0ogFDV6PvcwCBE+Dq1avYuXMXAjIH4LVXX0XKlCmfo6VwXL5yBdbwcFdyi/g9WbJkSJ8+PZImTSr/RuCx7fffce3qVdSqVRuZMztWXFTwX301HYf+/hvFihVD2zatpS5H5dGjRzhw4IAAgJdffhkEF/PmL0BiPz906NgB/qlSYf2GjcgckAmvvVZGgMPq1Wvw29ataN6sGcqVK4skSZIY7lt8fvC///7DuPETcPv2bbRu1RI1a9aM0+Y6z70QaQ5VG2lv2lT+XbkiW/83m20q4i++tmHFxSDbKxgjFgltO1UrhBFQ53g8VfUcdyfbFxEgKAAi6vq0HT/b3yPHMyHZ0TxbOT4HEHjy/PnnzRg2fATSpk2Ljz5qgQbv1EeqVKlEuXfu3BVh4WGGpVmwYEG8925T5M6dW965GRSEdu3a4/Dfh9G4SWN89uknKFy4sG59GzZsRLfuPUDFT+tB925d8d577zo85V+7dg1DhgzDtevXMGjgQLEY9O7TF8mSJcXs2bNw+tRptO/QEdWqVcXYMaOl3jFjx+G775Zg4sTxaNigQYxYTAwLS/MgF+XDhw8RHh4ustdaPVzVFxwcjIGDBmPlylViPfioRQsUKVJE9zWe2gMDszj83dW3YuN3x6cW1xuQ84Qy9oDDdX2x0V9Pv+GJgtLePRibqlUPVEQPzNn3PjZ74+mIRb7nydhF/6veqSEqgFDSUjseT2dBpHE1Iz2Thc8BBCqks2fPysl7/foNSJEiOT755GN8+OGHSJokCd5p0Aihz57ZSPPqtWu4f/++KPHUqVPbhAi99NJLaN++LQoVKiTvUOkRgEyYMBFXrl5F9WrV0LnzFyhZ8iWbOs+cPStA4vjxE/jss0+xefNm5MyREwMHDkCJEiV0R5MKn0px7LjxaNnyM7xRvjyGDB0mAGHc2DHo2rU7Tp0+jalTJ+OtmjVx9uw5DB8xArt378G0qVNQtWqVOHcxsA/79u/H3r37pH3PnoWIXIsULowGDd5BihQpnM7kkGfPMHbsWMyfvxC0wND6QwCQKFGkW0VbgZ9fIlSqVAmDBn7p2QqJg7fsiY/GEsdoNx77RrsKH0gYysYTJaPteUz30pXrwShA0D6n/FlrPYh7S4InS8IoNPVkjD1pT/TecXTjpaMZZktg1uNHRK89Mfe2zwEEipIg4cqVK1ix4gcs+naxnF7btmmDli0/xaFDhxAS8gxULBZLIpH87NlzsPmXX9ClS2dUeOMNJEpkQXDwA4SGhSJXzpzIkSOHnILV8vTpU1HKY8aMxclTp1Cz5pv4/PNOKFa0qDxCxTZs2Ags/u47ARDDhw/F0mXL8M3ceWjcuJE8mzlz5iijzol1+vRpfDlwEHLnyo0336yBKVOnCUDo2LEDPv+8M2q+WQOjRo0UxXnw4CEMGjQY586fF8tE/vz5bOpMlTKVAJc8efLE3AzT1Ey5btmyBVOmTsWFCxfx4MED2fySJ0+OjBkyoO7bddG7V0+H3I179+5h5sxZ+HbxYjx+/ARlXnsNBQrk1237wUOHcOTIUam7detW6NWzR6z0MTY+op8lUm9z0jedGjF1q/0wqtRipd8OPhLTit9o34y4HozI3rGbybannvAY4mo8YwIgxB2B0vZiKyNjqjeH4mosjM5nRVf6aKplbrI0Vc9fsABffz0X7du3R8cO7bFo0bfYsuU3OdVXqVJZZDlgwJdipp88eRLq1XsbdFMQNOz4ayc6tG+LKlWqRJE5QciJEyfQq3cfUVLDhg5F0aJFhERIYEL/OV0EK5YvQ86cOfHfmTMYM3osdu7ahTatW+HDD/+HDBkyRNTL9w4fPoI/d+zAlcuX4Zc4McLDwvDLr1vEKlC/fj0BPZkDAlCwUEFUqlhR6uzbtz/omvD3T4XEiW35B1mzBuKLzzuhbt26unOGCpluGG8Utp9Wg+7de+DW7dt4443yaNSwIVKlSom9+/ZjwYKFIpsP3n8PgwcPEgKpttDqM3bseGzdtk2sNPy9dOlS6NG9O0qUKB7xKMfmhx9WYuasWQLiGjZsgP79+gpJ80UoetESzsIzIxW9lpjlXBLxlRCpp2TiCzjwZG65IkE6q9Od0Mv4MJ4vFkCIOjJ64c58Si8Mk1wjbXF3fDwBhp7MT58GCKrAeNqnmZ8nUbL8p8+YiUmTJgupb+jQwboA4cmTJ3j/g2Z48OChmPbLlHlNV/4ECTdv3hT3RL58+cRysXDhIgEkdFt8PWc23nqrpkwi/vbXX3+hV68+Qj5s06YNWrX6LEJB0+owbdpXmDFzVkQSEb5DpcqijcZgRMOwoYNx9+499OzVG0WLFsVLL5UQoHLt6jVs2LhRQMm77zbFmzWqg24SbaHC6dy5C7Zu+x1NmzbGwC+/jLZrgq6Fz7/ojF9/3SIWFZr8s2XLJvVSqVPuEydOQprUqfHdd4tF+avlzz93iFvl8OHD0ofhw4Ziy2+/YePGn1CwQAF07dpF6pTxGD8e69atB8FN0yaNMXz4MLGmuLpK2tMFFNvveQMg2LfZcY587bYeVRUnhBNQbI6PKwuCfciko7a5fyKNdDu4Nya2uQSU9tm7o+IWgjlzOcSdBcHxrLKNihCIYHcRlQoa+JvjXA62AELpqfvzIvqz32ctCI5Ed/ToUdR9uz5ef/11TJk8EdmzZ49iQbh+/TrKv1ERL79cGosWLkCaNGlcjgRBxeLF32HqtK9w584dfPxRC3z55QAbczrByooVKzB+wiTcvXtXeAZdu3QW4EIgcOzYMRz757icoDf9tAm79+yR7/I03ahhA5QtV07+TndH0SJFsGrVKnw1fQZGjxqJDz54X1wpv/zyCz5r2VrAwcQJ43XbfeLESTRs1Fi+kz9/fiz+dqG4UaJTGJJYpWp1AQVU8CRSagsJorVq1xFeQpvWrdG3b++In+fPXyD9SJ48GebMnoXixYtL2wiW6HIgOKpYsSKCgm6KlYWbXM8e3dGhQ/voNPmFflffTRHZZf2Tj+3vyqblPLwzISWe8Yb/O67UqZ7ycPdkamTCuwdAjNQYc8/EhNXCG601GjWhfktdQ1HH0wiAjx651WcAAgflzJkz4rPXFp5YO3XqKHkEWBiF0LZtexAEfDmgP2rXrhUFICxZuhSDBg3B+++9K/5+Fp6C582bj6PHjkVUT8X9epkyePvtuli69HtM++orUfTkA3Ro3w5ZsmSJcrJlPT/+uA4zZ80WvgGJiBMmjBMiH/vw+PFjrFn7o5y2yX8gEZIuBH6rRo3q4iahUv/vvzP4cuBAHDr0N7p17SJgg0Dm28XfoV+//vjii89FieoVWiuaNf8fzpw5i7JlX8fUKZMjwjg9XSDTCVTGjBVry/x53+i6LqZOnSaul5dKlMAPPyyPCD8lcKLbp2TJkhK1wMJ/o3Xm++9XCKdBW2hRoKuC/SXp0Z0ICU/7l5De00ve5MwU6ijBTFTln3CcAN4AA/ZjHlfgQNsOPaJklHbqNNRRKGdCmdcxMZ7e7rsrYBD5PaU3VqsyUJEuBf67viVPeV7+/3k1eiHT7vfIpwACT5ft23dAuNWK0NBnYoZOkzoNli1bAoYrstAUvmDBIlE6jE74vFMnIfqpHAQChvfebyZgY9zY0ahdu3YEQOjXfwC2b98uA8V66Fqgmfuzzz7DsOHD8e+//+HTTz9B+nTp8PDhAzRt2hTp0qWzGTUqZ7oYqNjJjzh39hxmz56JUqVKCcdg06afJQIjR/bsqFOnNn5YuQoPHgSjZMlS2LlzJx4EB6Ntu7bIGhgItocn89q1aqFPn14CHMaNm4Cp06ZhzOhRaN68mcMZw/b/c/w4ihcr5jKywMi0696jJ1atWo1GjRpg4oQJuq8cOHgQDRo0EnfMt4sWIFeuXM8XilUAAUmN5I3cvnMHe/fsw69bfhUiIi0IapKpmzdvyLiyr+RhlC1XVqxA/qn8kco/leSKIGiw5zgY6cOL/oyygUVuSq5M5sqmZLshqTKK70zt6J4u4wMYcDUfHZmk9QCffV1xYc521R9nv3tzPOPeraECBKXHqtvH1loXOQNt+Si2xOTojqNPAQQqju3b/0RYWChu3gzC6jVrcf3aNRuAEBYWjv0HDuDjjz+Rk/+A/v0wfvyECIDw6quvoFbtuiDBb/n3yyKIhBw8JjG6dOkyrNZw7NmzF0uWLhOAMGTIYGz5bStu37oloXw9evbC5s2/YO2a1XjllZcjlCDbx/foXy9fvrxEMly4cB6NGzWSjZjK/bslS5A3bx50aN8e2bJlxZcDB0sUw/SvpuHXLb9h1cpVeP31MmJZ+OmnTaI8WQ/BDN0mXbv1wMqVK7FwwXxUr14tOmvSrXdbfPQxdu3aJQCpX9++uu/SIvDKq2XEMjJz5nQJHaVr4vLlK9IfgrL//v0Xh/4+LOCLFpicOXJI0qgKFSsgkcWCg4cO4sCBg/Is36NFhs/kzZsXuXLnQt48efBamdckN0XyZMnc6sOL/jDnmLtcDT1OhBY4RG5utqebyJOOM6kmBDUcf2eFEc6Do2dcgYvoKR79k3B8kWTcA4QImP38DyoHgetT/U1/bTjOqaKCDS2XwXVPfQYg2E++y5cvS7KkvXv22gAEPkc3Ay0GVFRUolqAQBP5qtVrkD59OvyveXOHc5r5CnhqJkAYP36cuBY4eDy5tm7T1gYg8JRP18TPmzZj3fp1wlFgXoZ2bdtEABByGEaNHiNWCJIXy5crh4MHD2LK1K+QL28e9O7dS8z2J0+ewpMnj9GhYyf5O0/hO/7cgT59+0hCqEaNm0p0xZZfN0fkboiNhVm7Tl3JP9GxQwdxb+gVWk/yFygk1oDx48YI14CulqVLlwoBkTkoCArIhyhcqKC4HBjBQLImLSvMhdC4cUPJFknZHDh4SKwudBfRDXPjxk2x7HTr1hUtPvyfIe5IbMgmIX/DEUDQ65Mr3kPUd6If1peQZeuttjuzBGkT/hixLGjb5DlIsLVUKYBSZ/SjZBX1lkS8U098dGvYkiSdA2zn61F51wQIGoDABEcXLl4URc6TZxKGBVqAnzb+JFYFEgGLFSsOSyILwkLD4JdYSc5TqFBBlCtXDsmep1vmv9kDBHVKUpmpAGHVyhVI5JcYW7duxY4df+H48ePInSsX3nmnvvAJaCZXUyPzPSq5W7duo3jxYiDAIedh7759EsZXpkyZiEgGKsJJkyeLK4PRAGPGjpcojebNm6Nt23ZCevzj960RPn7vLBfntbxVqw7Onz+PTpKvoZPuwwRK+fIXFIBAi8cbb7whSacY+sm7FrJnyyZcEQKEnDlzRPR3z969GDx4qACFyZMnStIlZdNRQlmvqQDhuuJ+YMIoWhRMN0NsjHzkN6IDEGwTBmnbnXCsDG4rlEjvjXQ4Oj11ZU3Q/u4IUNjX4SlAMJrnIXZnp/tfc3s83f+ER29EtSLYuh3USm0thvbJnyKtFnfuBCMgU2qP2mKzUsMJNwyU6zfvIzCzd+LrDXxO9xE9C0Kr1m0kVt++kDFPHzj910l1zNJU6EzEwxOuWowAhKpVqiD4wQM50dMvziRH9erVE6VuHxlBwPLHH9sFqLDwPokdO3ZExPqrdzhYYEHWbFlRuVIl4R+kTJlCuAhMmlS9WlUhONJlMW7cGE9F59F7HzT7H/bv349WLT8Ta4deYX6E0qVfEeVPlwldB3Ql0M1w+MhRUfbsn325cPGCZKLk9GPeg8wBUZNM8Z1cuXIKSZK8D5O46NEwevUlfcCgrwadAYSEwqw3tDlqJexFgOBq4BwBBHvSoz5h1VXtrn6PHtPeVe0x9bvb4xlTDbGr112A4Ay487c7dx6YAIEkxeUrVuDKlatRhpHZ//7++7DE2tPsrT150sdK1n2lShVtLkIyAhD4IboqGjVqhFpvvSUWg4CATLonWwIU5meYv2ChtI88CmYmZOGFUWqb2B5aE0jyU54Lw5yvv8acOV/j6dMQIfqt/GG5POOs0FWxe/duCR/Mly9vtKd2ly7d8OO6deJyGTtWH5wcOXJEQkx5ul+0cH5Ehsd9+/ZjzNixYPilXiF4YnQHJ7Ozex0qV64kmRpV8mO0O2VWEC0JOCJd6VWqggA9Qlb0ztbR6oJbL7ujUKJjLXCrUS4eNkZU9fyLL+J42o+dO+PuuSQ9f9MECDqy07MgUAmH6dzkOHTIUCz7fjnGjh2NunXqIJHmOmVOBj+/xEiSJLENwcsIQCDHoEWLD4VnwGQ+zkzeiovhOi5dviRkv5kzZwugaPnZp8iRI7v0cO4387D5583iShgxYlhEr0+f/lcyOu7bt0+U7m9bfnF6qyM5EE2avisujdKlSksUhdY64slUZFjmpMlTULZsWSxcMM8mNbVaH0EMeSHMOLlq5Q/iCmHhWO346y8EBQXpfvrixUuSgIkyojWHIEuvUF4VK1TQ/bYnfTLfiTkJOOM2RJ6QVN911MgL+5bFZva5mJNKwq3Z3h3hKhPkizRe8R0gaGeVvfWBVlnTxbBsiZDfyANg6KB9sU+1bMQ8rQUIzJXACAea/OlXVzkIK39YISZvPeY4L3M6e+asmNlpZVALrzdmsqUlS5YK2e7TTz6WHAX079eu87Y8xhwCtGqoheS/Tp2+wKaff5ZLnObOneN0p7l46RLeequ2WBvIXVj87SIJFYxOOXbsH5CoKKGWOtknOTEbN3lXyIUMvxwxfFiEXNSMkerkJYDhn9VU1LQwEFjwuQnjxwr5kpaTrVu3CclUBV78L8fOXaZ+dPptvuuZBIwAhMiaCRD0/azqM576yz1rvfmWvQScRUU4ysFgbzVKqGOYkACC/bj5PEDgpUrMKDhjxkxQ+f766+YoCiQ6AOHtunXlTgcmCWratIkkLerY6fMoYY72A8OcAaNGj5ZwR+YsIEeBCpAchHbtOgiJksmAmv+vOZ48fowvvuiCEydPinIdNXJERHV8h3VNnDQZly5dEsW6YP48UZzOFOU38+Zj48aNeO+99yQhVHQLowdatmwthMN36teTLJIZM2aMSLW8dOky9B/wpdwZwURKJH3aFyp9Xn7VsmUr+PunxtdzZolFRI+kyBTTvPOicuWKGDpkiKSWNgLsottP8/34I4GoptNIIKG0Uk0mo93C7Z9x1J/44gSwbZ+3lVFs9tL+9Mqe6XEj7EckoXBQnK0M1wGHytvRzffg7ur0WYDAU/Lw4SPEJJ8+Q3rcvx8sCXo2rP8xivndE4BA5cQwRxLixDeeMiXat28nWRQ7ff6FAIQ1q1eBeRWiom0rZs2aLemF//e/5ujeravwDKggT506hVmz52D//gMSvse7CfjvPO0z7G/pksUR7gA1PfPgIUNx9OgxFCtWDP/8cwwpU6aSHA4FCxaItdN0aGgYtm3bht59+grhs3att4R7wcuamBSK7gf2gS6cSZOUi6wiT39KNALBXJ++/SSRFEEXgRBTNzN3BPuojWJgLokhg4dKVApvsezZowcqVqwQ4bZwd6GY8L5qzAAAIABJREFUzyc8CehZIVzxHvTIkC9quujYVP7emj1GLBHab+mBh/gIKEyAoBm1+BDFcOToUYwcOQq8CIj+f5L2eMERCXL2xROAwJsHmVqZp1aGQbb4sIVcfESFzlDDnzb9LCfgWrVq2ShpKnX62keMHCUpl0eOGC73JqjhjvydSZ5+2vSTXPzElMr8je4LJl1q3aqVXL5EPzwtBrSMMEdA1apV5X4DWjI2bNgodyEwCRRBUWydrJnLYfnyFXIxE5MiqaZ/WkNILiTRk9YS7Q2SdI9cvHgRG3/ahAXzF+DuvXsoX74cxowZLWGPLCRTEiBw89CGOTJqYsSIkUIwzZ4jB1q3aim3XrJ+083grS07/tajdyLVtjYqWIh0U9jHkycU87ZRC0JCBAeOZpqj8EtHPAcTIBhfsz5rQVi3fj3Gjh2HR48ei9Jo26Z1RLpebwCEN2vWkrsUqMxat26FKpUrR5yKJXXzkqWS7Ihheary53dpij906JDcPcAQyOXfL0WJEiXESsC0wufOn8fBAwex7fffcePGDVHwvDSKYY8MZWRYYPVq1cSFwGe2bfsdpUuXRu/ePfFy6dJC+OvStZtkG+SVy0xcRB6Etg3Gp4/7T7J9bNPevXtBcmFoWKhcxVyoYCE0b/5BlNTTlMXESVMkjTStMW++WUMusOLV1ZcuXZTkSHv27JFIDfJIxo8bG5E2mxYFJmdi9AczWdJ9wdTZTZo0NomK7g/dC/dGVBBgCxDU+ylcgcmEAh5euAHUdMgVSNCOkauEUN4bz7jLGGkUKLqaEz4LEHh18PIVP0jqXSoMZ6dKTywIJM3dvHETLVt9hlIlS9qMw69btmDypCk4fOSIKGbtCZ6naVoD0qZJg7frvY1+fftI22h+/6JzV4lgYClWtKikVGbSH97TQP4E8yRs//NPueaZFoQNGzagXNmyaN+hPV55+eWImyNpPZk4YSL+2rkL9eu9jaFDh8Rq0iS2n/2kpYR9ZRIkulD0NmK6Dxji6McsiU0ao97bdcVNQKsBrSGU3fXrN8TKwPwOBEIECmohSCAoWrBgodx+2bBhQ+FURDcqw9XCMn9P2BKwTSIT2Rf9GHNH53G7RAZRRKL93ciWnjDO/UZ6oooiJnqkBwb0EkU5SwjlndkbdwAhOu3Xjp/PAgTGzdOHnyFDRqRJ4zxL1Ow5c4Qz0KN7d7nd0EgGPib3oXDz5MkdZayYzY9RDVTUjx4+svndkiiRuCEyBwRISGDu3LlECTKHwdy5c3H23HmULFlC+ASFChYURadVrPxu0K1bYkkgi58AgADC3kLAa61Xrlot10I3btzIxucfncnl7XfplmCUAt1AzEHBeydYTp0+jcGDh4hbgSGmJCHy7ozXXn01ys2T3NQZsklrAi0u6s2d3m6rWd+LIwEVIGiBgr3Fgb2N/Leol+foPa9KyJ4f4QiQ2Eo0JtSp98csrgGCXo8cgQY+6+pabL2Qy/jopvDWSJoAwU1J0nzP0DoqIZ5eXZkcjVZPsh5P0NrCuqnMSdLTAhFuIPfu3ReCX8aMGVwqdAIgZoBkhkU9jgFdFgQq/FZCPE2Tm8DQTk5mWhfSpUsrlhYtudHoOJjPmRJwJAE9gGC//hVlbxv9EElsdJzm1n2pxy1AcEfx2+xpDtj3sd0bZ+GU2vY6uhdCAYTKky8CQDAynj5rQXB/cZpvmBIwJWBKwLEE9DPSKaGU9kVRNLbgwd5q4T1fuHdGzYhCUb8U28rfOz10NE5RrQz64xlTrYiZeo2MpzXcitu+eBdDzIjcrNWUgCkBUwKRrgdn1kYtn0Hvz57L8UVRz55LIDpv6vEV9Orz1uVV0WlrTL9LC4IJEGJaymb9pgRMCZgScCIBVyGZYm94blJQoyu01alAxJXVwYhp/EVKc+xs0sVkP43cYaFtm6NU1N4Yz+gsPBMgREd65rumBEwJmBLwkgSMERW1xEiaviOv5bVvRiSQcG5RMAIavNRFt6sxYgZnpdoe2ufFdPujLl4wamFwVI09YdIZgdK2DldRMd7uKYRob1oQvC9Xs0ZTAqYETAnEiARcZ4iMAhUMtSM+AgWjGQYNdfD5Q3HdT0dkSbUP9u2L/LsJENwZZ/NZUwKmBEwJ+JwE9MiQWrdDVKtC5G2XFJY76YrjWpnGxODGtz45ipowGnWhysiVO0IsLRbH468na9OCEBMz0KzTlIApAVMCsSABV9yFyBBMVTlEnkK1tyWqZnNbJWOfevrFID+6qyRjYRgjPuGMu6D3mytrhF7b3el/uNWK27eDEZDJea4gIzKyhBNuGCjx4S4GA800HzElYErAlECClIDxRE+Rp8pI0p7tNq7PZbDf6u3Bg6vf406srhSkISXmoPkxBaFc8RQcpY92ZZ1wNQqcR7dMgOBKTObvpgRMCZgSSDgS0CM86lkb9FMQO1aRehEUilQSDkBwNYqeAgRXCbf1pOSqLerv+uP0XPIOPmwkqVNUsGTLczBdDEZHyHzOlIApAVMCPiYB44TISJ6DVpkZ8YvHN5E6ioJwBRxiEiB4IiMjsjcBgieSNd8xJWBKwJSAj0sgKhkyajChNhGUlsdgNMeAK3N/XAxBQgUIjsIv3XEz2F+RbboY4mIGmt80JWBKwJRAPJeAM4Dg6spk+64ZId85EocrsBEfQUY8H1rDzeMcCLplkhQNC8x80JSAKQFTAqYETAn4ggTIQTABgi+MtNlHUwKmBEwJmBIwJeCGBEyA4IawzEdNCZgSMCVgSsCUgK9IwAQIvjLSZj9NCZgSMCVgSsCUgBsSMAGCG8IyHzUlYErAlIApAVMCviIBEyD4ykib/TQlYErAlIApAVMCbkjABAhuCMt81JSAKQFTAqYETAn4igRMgOArI23205SAKQFTAqYETAm4IQETILghLPNRUwKmBEwJmBIwJeArEjABgq+MtNlPUwKmBEwJmBIwJeCGBEyA4IawzEdNCZgSMCVgSsCUgK9IwAQIvjLSZj9NCZgSMCVgSsCUgBsSMAGCG8IyHzUlYErAlIApAVMCviIBEyD4ykib/TQlYErAlIApAVMCbkjABAhuCMt81JSAKQFTAqYETAn4igRMgOArI23205SAKQFTAqYETAm4IQETILghLPNRUwKmBEwJmBIwJeArEjABgq+MtNlPUwKmBEwJmBIwJeCGBEyA4IawzEdNCZgSMCVgSsCUgK9IwAQIvjLSZj9NCZgSMCVgSsCUgBsSMAGCG8IyHzUlYErAlIApAVMCviIBEyD4ykib/TQlYErAlIApAVMCbkjABAhuCEvvUavVirCwcISFhSn/Cw+Hlf+zAvzNLKYEYlICFosFFgtgsSSCn18iJPJLhMR+ieXP/O1FL9zAnoYCIaEWPAsDnoUCYbL2nv/vRReA2b84kwBXF5dYIguQ2A9I4gck9QOSJbHK31+E9WcCBA+mFxX/s2ehePzkCUKehuBJSAhCnj7Ds2fP8Cw0VABDuIAEEyB4IF7zFTckwE0oUSIL/BL5IUmSxEicJDGSJU2KZMmSyn+Tp0iGpEmSvBCblSqWsHAg+Alw/5EVwY+Be4+Ah08teBwCPHoGhIYBYWFAOEGCG7I0HzUl4I4ECBD8EingIGliIGVSIEVSIE0KK9KkAPxTAOlSWuTfEmoxAYIbI0el//DhYzx4+BCPHj/Bk8dPEfLsGRJZLLIhKxt0EiT285NNWzndvfinODdEaD7qRQkQgPJ/XMS0XglAfRaKp09DEG4NR5IkSZAieXKkSJEcqf1TIlWqlEiUKJEXWxC7VYU8s+LaPeDGfeDWA4sABIKCZEksSJ1c3aCtSJJY2bjZVa5Ns5gSiAkJyLoLVwAprViPQyx4+BS4/5jzzopUyYH0qYBMqYEsaYAM/pyTCWs+mgDBwMxRgMEj3L0XLP99/OSpKP7U/qmQMmVyAQc8pfkl9oOfnx/8EinmXRMgGBCu+YjHElABggISwhFKF1cogUIonoaE4OGjx3jw4KEAiOTJkiFVqhRIlzY1/P1TJSigEBpmxeU7Fpy/acWtB8CDJzypWZA5jRUZ/YHUKZS/J0vMk5xVAw5eDDOvxxPEfDFGJRAu6w7yP7q36OZ6Ego8emoVq9bNYODGPQWspksJZE0P5M6k/DmhAAUTIDiZQtx4eRq7GXQb94MfyJ9pts2YMR38U6VEkqS0FiSOsBbE6Gw0KzclYFACAhjIjQkNRUjIMzx4+Ai3b9/Fk6chSJo0CdKk9kdApgxInjxZvLZwsR/cYI9fBm4EKy6EgNRAvsxWOZWlTEbrgeIDNi11BieH+ViMS0Bc0GHAk2fAg8fApdsWnA9S/p42pRV5MgEFAhV3RHyftyZAcDBdeCK7c+cert+8hSdPnoqVgJtqurRpkDixn2kdiPFlZn7AGxJQrQx0Qdy7FyzzmUCXFoWAgAzIkD6tWL3iW3n6DDh2yYp/rwEPQywCCErltCIgrUWsBCYoiG8jZrZHTwJcf6FhdD1YceYGcPqaRdwRmfyteDUfEJDGInM5vhYTIOiMTGhoGK5fvymbKRFepgzpERgYIBwDs5gSSMgSUOf2jaDbwl8IyMi5nTleze07D4EDZ4ELQQr565U8QNEcCVnqZttNCSgSuPMAOHQeYlEgMCiTHyiaPf5KxwQImrHhhkmT7KUr13D37n2kSJ5MgAGtBgmZ3BV/p5/ZsriQAOc5rQlXr90Qsm3aNKmRPXsWsSrElclTLB0Art8F9p6x4PYDKwLTAuUK0iwb/02xcTGO5jcTpgTIqTlxBThykcRGoEh2C8rkjZ+hkSZAeD7HVL7B+YuXJVIhTRp/ZA3MjFQpUyTMWWi22pSACwk8fvxEQMK9+8ES6ZArRzb5b2yDBMklEg5cvQPsP2vBoxAgf2YrSuQEUiWPx/ZXc4aZEoiGBC7fsuLgOYVfw/n+al7O9/gFhk2AACWhETfLcxcui382fbo0Ag7IOzCLKYEXWQIhISG4dj0It+/cQ9KkiZE7Z3akTJkiVkECNyG6EwgOCBSK5QAKZAGSm8vvRZ56Zt8A3H0I7PkPuHYXyJbeijL5gDTxyGJmAgQAjx49xuWr13H//gMEZEqPwCyZhe1tFlMCviAB5k8gSGC0jn+qFMiePWusWs6u3rFi978WYXkXzwEUzgqYy88XZp7ZR0qAkQ67/gWu3lUidErlBvzjieXM5wECT1AXL18Tn2zGDOmQLWuWeEXYMpeQKYHYkABzJ9DdEHTrDlKnTiXuhtiwoPEE9ccJJbcBwUHRbCY4iI3xNr8RvyTAdbD/rGJJKJIdKJZdCYOM6+LTAIGhX9eu38SNm7clNjxXzqySfc4spgR8UQK0JFy8dA13792XkN5sWTPHaAgkLQY7TgIXb1lRIgdQIpcFyc3l54tTz+f7zLTgJObu/ZdpxC0omVtxszGNc1wWnwUI5B0wUuHyletI5GcR3ytT0ZrFlIAvS0C4OOcv4VloGLJny4wM6dPFCB+B648EraMXlYyIlYqYhERfnndm34Gw51ycfWcswr8pm9+KgDRxS1r0WYDAdMlXrlxHcPAD5MmdHWnSpDZDGc1V6vMSoOLmmjhz9qIA5uzZA5EyRXKvy+X6XSt+P84UtRa8/bIV6VKZ0QpeF7JZYYKTQEioFUcvMkmYBYWyWlEqF8m6cbc2fBIgMEvi9RtB4l7ImCF9hCk1tsO7EtzsNRv8wktAvdfh6tUbuHnrNgIyZZT14c08IIwDJzi4EGRB2QJMFGONESvFCz9YZgdfOAmIZVv4CBZcvwdUK2ZFYPq4u3TMJwECoxYuXr6KkJBQsR7w0iWzmBIwJRApAa6RM+cuCgchZ45A+Kfy3hphFrnd/yokrNqlgCRx7Gc1x92UQHyTwOlrwL4zQPYMwGv5lJtK46L4HECg9SDo1m3hHpCIFZglAIkTmymU42Lymd+MvxIggVexsgUha2AAsmTO5BUrAq9sZkjX2ZsWOR3lyBh3p6P4K33vtYwnUhbTOuo9mcZGTby7Ydcp4MpdC2oUt8pNkHExhj4HEJ4+fYoLF68i5Nkz5MgeKGlmfb08fPgQ585fEKCUJ3cuJEuWzOsikRvOeA3x0yd49OiRXJv95MkTZMueDWnTpLGZ/GriKoagpk1r+xsbdvNmEG7cuIF8+fJJ5j9tOXfuPIKDg5EzV06kS5s2Sj/426VLl+Hv749s2bI6ZOkHBd3C5StXkCljRmTNGugV5eh1ocZwhcHBD8XSRitCrhxZo8jak8/zymaGc6VMZkHVomYyJE9kaOSd0DDgv2vA3UdWZPIH8mSxyLXDnpSHT4ELN2nxsSJXpoRzVbEnfY1P75y4DBw4B2RPb0WFwoxoiH0ugk8BBIWA9VBMp8yWSN+qGdYIHD32DwYPHo40adNgyKAByJnT+M04d+7exe1bt+V6YWt4OGih4enzWWgoQp89ew4Knkqmyrv37opyp4K+ePESbty8iQ7tWqNu3To2yufBg4fY+NMm3LhxEw0b1Ef27NlsAMQ38xbguyXLMKBfH1SrViXiN36jV+9+2H/gECaOH41y5V6Pst537tqNseMm4rVXX0XnLzoIUCBQuXX7ts2zP/20GQsWfItatWrioxbNkfj5RV1E8SlTpES6dFHBR3zaXLzRFo4heTq3bt1F7lzZ5E6S6JximCXx4DmrXN/MjHEFswJ+8fkqO28IMQ7qeBYK7P8PmLAOOHcLeCUX0KmucuGVJ2Fze08Do9YAgWmt6FQbKJozbk6zcSDKOP3k/cdW/P6PkiOk/qtxkzzJpwCC3GR3I0hcDNmzZkHGjOmjteHF6exx4+NUyv8cP47g+8G6b52/cAHfffc9kiVPhhYfNkfmgEy6z6VPnx5FihRGxowZIn6nwp06dQbCwsMQHhaOUIKDZyF48vgJHj95Iv999PixAAcm3kmdOjUyZMiADBnSy+m8erWqqFKlElKn9o+o8/r1GxgwcAj++GM7GrxTH+3btUbu3LkiTvGr16xD1249Ua7s6xgzerj8xrJr9x507tIDYaFhWLVyGXLlyhmlH7/8sgX9BwxG5coVMfDLfhK9cvjwUcyYNcfm2TNnzuKff44jT548KFa0CBI9P375JUqE1157FZ9+0sKNEUiYjxJQ37l7D5cuX0P6dGnFHRedG03vPlK4B8GPgapFrciY2lQ03p4ZvCZ721Fg7m/A5dtWvJQL+OcSE+9Y8ElV4LUCgLuX0h45D8z5Vcn291oeKzq/DRTJEfunWW/LKr7Xx/VHmZ++asHrBYAi2WK/xT4FEHjPwtlzF7kricmUOed9oezYsRMTJk7Bv/+d0e0uTfl3795DokQWpEuXziEno1Spl9Clcye8+srLEfXQEjBl6nR5h/+jAknsp/z5j+1/ymm+3tt18Oab1ZAqZcrnACE9MmTMgIwZMiB58qiXAzFhz99/H8bX38zH9j92oHr1qujYoS0KFy4kIIG/9+jVD+vXbUSrlp+ga9cveKMGRo+ZgHnzF6JHty5o1661brpsRwBhpj1AOHsOx479gxw5cqBkyRIgMGCxJEqEV14uLd/1hUKrDN0MBF25c+eIVsjj+SCmVAaypoNcTEM3g1m8J4EnIcDPB4EFvwNBwVY0rwBUfwn4YRfw8yEgXxYLPqsGlCusXKPtTvn3KvDVJmDvf0C14hCQwBh9s8SsBJhE7K9TQLqUQK1Ssb9efAYgEI3xlsbT/51D2jT+yJUrOxL7+QZ9+tz58yBIuHUr0oxOa8rBg4ew+ZdfxcxO+fj5JRIZ0eT+btPGKF68qM3sp6n/jfLlxCevlkOH/pYTON+lrzpRIj/5MxXpvPmLsGfPPvTo3hmlS72ku5L8U6fGSyWKC3DQltDQUJw6/S8mTZqG7dt3oF+/nqj3dl2cOHkK4WFhOHL0GIYMHYk3ypdF+/ZtxM3x9dx5OHf+Ivr16YGCBQuIW+D1Mq9Jux48eID794Ox/8ABDBs2Gnnz5sYbb5THJx+3EDBz/PgJ3Ay6GdGEbdu2Y9XqtahQoTwaN2oQcXJOkSIFihQujMDALDG7M8ST2ukuogWBlznly5tTMo564mbgRkPXAvkHBAdMJ2u6F7w3yLTK/HYYWLwduHbPivfKAx9VscjFPxeCrFjwG/DrEcWt81l1oEwBC5K5mbXy2AUr+i1V7sxo96YVDcuaFiDvjaB+TU9CrNj0t+JmeL88rT+xCxJ8CiDQtXDp8nVhZJOZ7clGF9MTIibq5yZPhasymmkxmPP1PCxZuhyp/f1Rv35dbPr5F6RMkUKsA4u+XYL0GdKjTatP0azZexE8DZ7eqUy1MfGff9ENf+7YGbXZViuu37iBJ0+eChnQEdcjR47s4iagGd++sN0ECfv27serr72CJIkTo1WbDnK5VuizUFy8dAn+/qnEVfHk6VMBQOwjlTe/x9/Wr1uF5MmSYcOGTVi9Zi0KFyqIVat/FOsC58PQIQPRsEE9zP1mPpYsXRHRhLt3yZe4iXRp0yFTQKaIuVK0aGGMGDYYmTMHxMRQxbs6KU81ZwhdDJkDMnpE2HwcYsXBs8DF2xaUL2hFzoymcvHGYJP7c/4GsGyHBdtP0H1jxSdVIMo7Y2pFmYSHKyBh6XZgw0EgSzqGl1rQpJwV6f2NjwPzV6zZA4z90YJyBa3oVg/Ikzl2FZY3ZJaQ6uD6Y86QszcsqF2K0QyxK2+fAQj0gfMkxDzzObIFIkOGdAlpnnilrUFBQVi/4ScsW7YCJ0+dRvFiRdGvby8kT54MgwYPR6pUqTB40ABcuHgRvXr1x73791G+XBm8924TIQOm1YkK2Lr1d1y5csWmfdeu38DyFavAiIIvPm+P3Lly0aujW/jNSpUqIGPGjLq/c9wY/ZA4sR/u37+PSZO/EguHWkh0pIUhffp0ePXVVyQiQi10X/Tv1wthYeGYPWcuNmzchGpVK2Pt2vUo/XIp4Tjky5cfP65Zgb927sSBAwcj3t29Z59YXV5+uTQqVXojwtqUJUsWcZnYWzy8MkDxtBK6n7h2aGnKkSPQI8vbvUfAnn+ZOREok980T3tjqB+HAH8cs2L+NuDCLQuS+QEfV7GiUVleGWyxWXMECdfuKpaEDYeU0NKCgVZ8URcondeY0iEYOXAGaP+1BWlTAB1rmVYEb4yjqzqYWZE5EV7Ly/tKXD3t3d99BiCEhYfjzNkLIA+B9y7wxjpfKPTX0w2wYsUqbPjpZ9y5c0cUZpfOHdG2TUtR+sf+OY7+/QcJQBg9ahhy5MyBa1evYuSocVi5aq1YDWgFoKWhccN3hKgoHIM//kTQrVtCQNSW3bv3YuWqNciSOQCffNLCofLnO7Ti0AVQvtzroPIlgDly5EhEdSRGMpIgb548Yh3g+JFvoBa6Gvr0+VIiL3r17Ip8+fJqmmIRYiQjLSZOnIpj//yDalWrYPHipahUuSKCg+9j1aofMWXyeAQGZrbpx2+//Y6VK9cIgbJx43cieBlsL+WUL28eaa8vFIaknr94RUBa3jw5xZLjbgkKBv46CaRJAbySV7nz3iyeS+D2A2DaBmDzUSDkGeBnUe6zKFfQgmRJAT2Vz5QIwU+s+OkQcPyyRR7i5Vjvvg60qklOiPP2MDpi4TZg1q/Kc0yR3f4tIDCWT7WeSy1hvnn+JrDtuHJ5E8MdY7P4DkAIC8Pxk/+JeZS+VJqdfaHs3bsP/QYMxpEjx0SxvVmjKtq2bYUC+fNHdP/K1Styqmb+A4YVMsqAhYp/7759mDt3gXAJGI1Qt24tDB7YD7ly5ULZ8lUkXFEtDHN8FvoM3IgIIKj4jZaF87/GW2/VQIeOnaUtVih5E3Lnyonx40ahatXKUhXBTXh4WCRAOHIMvXr3F4DQp3d3G4DANlChX716TfgKjx8/RvVqVTB9xmyJYqA1oX3HzuJ+cadkDQxEnz49hKfhC4WgTC5wevYMhQrm0yV/upLD1TvA7yeAvJmU++7jMr+8q7YmhN/fmwCcuQn4J7OienHliuyNB4GQUNfWgGRJrPioMsDwxcMXgZAwC2qWAEZ96LznD58Anb4Gjl0hfwQI8IdYIGqUFN63WWJIAnceWLHuIJDJ34K6kfzwGPqabbU+BRCO/nMKyZImRf58uaMVrhUrI+Olj1D5MWfAvXv3RPkPHzEGv/+xQ2Hlu1jVVPhUsjVqVEGrlp9i/YZNYnKvUb2qnCbXrl2HBw8fSUv5nYOHDmH16h8FIDRqWF/Y/xaL4+wsjJpQlHgiVK1SSfIdMHLgzNlz0l66BE6f+tcGIBw89Df27TsQIR0mM+I3M6RPLwAjU6bIEM169eqAyvzs2XPo2aufkCvpKhk9erwAhH59e0oY34H9B/A05KlwG5wVgg2enjNnzgxGdGTPnt1LoxS/q+HYMncIIxqKFi7gEUC4dBvY9g/D7ax4KWfsk63it4Tdb90ikg6PAU1eB+q8Apy6Auw5DTCSwVUhbq/1MpA5DfDddgVYdKtnRaVizrX88YvAJzOB4jkgYXcLf1fi89vVBDKY+eZcid3j3x89tWLlHiBVMgsaR03t4nG9Rl70GYDA+PwjR09KQp6C+XO7dbo1IsiE8kzTd5vjt62/o8Ib5eGvyT2g1/779+5h3/6D4lqYO2eGwy5SgdDUP2LkGNA0X6RwITRp0hDZszkP3GXug9fLlkGARqmrHyHh8Kvps7Bu3QYbgDBr9teYPGV6RFtoZWB2RIIN/1T+EQmN+MBXUyfizTerC9Gxe/feKFWqJCpVfANfDhxqkweBZMhDfx/Gpk2/OAcIiSwoVLAAmjZplFCG2yvtpCXpv7MXJMlY8WIFBWS7Wy7eAn47CpTOY0WJnGYEg7vys3+ep/mb90kSjG5NwOnLQP6sVllDjgozM45cacW24xZ8VAl4JR8wdi3wKATo11j5u5nzKvpjoVfDs1Arlu1kaKpFIhlis/gUQPj78HH4p0qJggXyeMTEjs2BialvqQBh08a1KFy4oNPPnDlzDrXrNnAmwzUtAAAX7UlEQVQKEKg8tv+5A9O+minggLkOMmcJQPJkjq8I5jsEAMmSJ8XMGVNRscIbUdrhCCAcOXoUBw8ejnieWRlXrFgpWSBJHtTyAmiVYLIkkjN/XLcB2bJlE8uJfaIkZgz89tvv0K//ILEKZMkcddcNt4aL5aJunbewaOE3MTU88bJejhevf753PxglihfyCCBcCAK2HOXFM1YUz2nev+Ctgabipvvm2l33aiQUyBdoRfpUxqIYmJnx8/lW5MgAjGoOZE5rwTdbgBW7gA8qQJIwpfaNtDLuCdoLT4eFW7FkB3kmFjSv6IUK3ajCpwDC4SMnkCplChMgbP0dDRvWl0RFzsq9e/ex9sf1DgEC73BYtWotvpm/UHIhkN9RokQxvPduY2TLmtVh1eQCbPxpM+gumEWAUNE4QLCv9PDhI+jeo48Agb59e9pwK/QaoJcoSQUIo0aPx/vvNUHtWm9FefVpSAje/6CFDwOEC7gfDQsCAcJvx0hQtKJEDjOfvxt7tNNHHzwGVu0Gftznfo0da1tRuZhra07wI6DPd8xhYcV75YDO9ZR3/jqhJE8KfgIMaAK8ms+zVM7ut9y33ngWZsWyv3jrqQUfRN0qY1QYPgMQaEY+cuwUkidLigL5c/vsDY6qBYH8AN4p4Kw8ePgAJ0+e1gUIly9fxsJF32Hxd8vkAiamTD546DB4GdbLL5dCGrvER9rv8KIspjFm+Jw7AIFjqOZyUOs7fOQoevXqJ5cz9enVHfnz57PpEkGLNm+DM4Dw5cBhAnAKFogkcKqV0UX1ww+rfRIgMKkWM5A+fPQYxYp4yEG4BWz9ByiRQ0n/GxcXz8ToThpHld9/BMzbCiz90yrcgNwBrtmC5CucuQF0rw80fN25Ug8Ls2L5DmD6ZiU0dcJHtDwo32Do6qJtihWhbAGgd0MrMqVx/f04ElWC/SxziPywm1c+W9CkbOx2w6cAwvET/wr3IF9e3ljovh81docmZr6mAoRFC75Gnrx5nH7k/PkL+KxlO12A8OuW3/BF5x4SJfBl/94oXKQwvhw4BP/+ewYlXyqOtOkc55lgkqOTp05JZkOjAIGA5vvlK7Hjr51y54NamBuBYZrMcMjsiXRxqIUEyDp13kKzD96L+DdnAKH/gCHidmE99oWphumm8EUXQ0jIM5w9fwlMsFXYwyiGK4xiOA7kz6xEMSRLYioSb6xwFSCs329F6xpA9RKu5Upi4pq9kIuXXAGEXw5ZMW0Trx0G+jcAGpazdUmcvsKLnKxCkmxZDfi0huvve6PfvlTH3YdW/HgAyJDKgnqvxG7PfQgghOO/M+eV0Lnc2YWL4ItFBQhtWn+KAAeXMqlyuRV0G9/MX6QLEBhlMH3GLNSpU1uyIPLmxfYdv8DjR0/wwQdNERgYmY7ZXs6PHz/C+vWbcODgIUMA4f33m+LatWsSccDkRdqwRIbe8fZHZk5MmSI5EmlCK5kt8bNPPkLPnt0MAQTe5dDiw2Zo1OidKFMj5OkzvFW7vk8CBEZ3nL9w+XmIcC6PIoBIqNtxkpucFS/npb/aVCTe2H9UgMC7Frq8DdQq7brWr3+B+LQ71nIOEMg7mLwBOHEVqFwEGP4BkMIuOpwciB/3WjFjMxButaBXfaB2LCsx1z1O2E9cvmXFlmNAngALKttmv4/xjvkMQCDR6sLFqwgOfiDZ4Hg7nS8WFSAwrbJ6Q6EjOahZDN+pXxdf20Ux0NTP+w2YW4EmfOZDIEDYt++gpDh2lgPBGm7Fo0ePkC59OpcAgRkQkydPgTASCRd989yFEJko6Z/jJzFs+CgJkezUsR3yPL/ZUemTRbL/pU0bmV3RmQWhV+8Bcqsk+2RfJOXw9Rs+CRDIRbl4+Zrwd3LmyCYhru6Wuw+B3adlSPBaPqYBdrcG83k9CcQUQGBII5X+nv+AYtmA4c2syJ5RH9Q9fGLFuLXA5sMWJE8KjPsQeDWql84cQA8lcOKycgtq6dxAKedGXw+/4Pg13wEIVitu3AjCtetBcm1tYBb9K429LuF4ViEvO6JZ3mihoiern3cmOCsqQLh3LxhNmzR0+jxTJfPuh4MHHZMUeQ/ClGkzMGPGHLEOdO/+Bdq3bWNzLTTb402S4uAhI1DhjXKSstm+0FIxYeJUnwQIN27ewtVrNxCQKQOyZAmIuNnS6Bzic4+eAvvPANfvA+ULAtmd82Pdqdqnn1UBwrp9QKvqVlQv4VocS/8E1uyz6LoYqBAI5CZvtOC/60DujMDkT4EccneG47o5vr2/BXb+C2T+f3vnFtvYVYXh/9ixndjOJHYuTiaTzEyLWqDlNgMqUBWBQBUCVNQHkLhNKQheEOoDApVLEQjekKgovPEAL1xfQEKiCLVVgRYBvaK2M9C5ZiaTSeLEiRM7dnw76N8eD2GYmdg5js/x8b+lUS9zLnt/a5/j/6y99lpx4Kv3AnfdtnNfdMTOBOh5e3UBeO/rgZkOl4DpGYFQ/+LdxMlTZ5FIDOHgzFTPbHU8deq0KWzEdXQnjRUamQeAWQuvbg2BwLiCD9/zIYyPXX8mF7eKePzxJ/HyK8ev60FgpcmvPPgNnD59Gg988Qs4duwTYNrlq1s7BcL3H/6hqTzJCo+NxuRADMJcW1vH2+64Ex/8wPvx05/82AnGrjq3UcNkeTljYneGhgZ3VeSMW7VeuQA8f64uEFhVkPUA1JwRaAgEVnFkCvJmiNb9bxYeZEzBtiDFwhbwxEv15YJM3sLNYza+dA+/Wi1crnZ+w85mNmw88BPg1KJlUjjf9y4bH7mznuBHbXcEuIPh0RdoD+Bj7+x87E7PCASah5UFGYfAL9KZ6f2mSFEvtG889G384pe/NhUQnTSWT/7mQ1/Dfcc+cV2B8NxzL5qCSaHQ9fP1s+gLlydY8Oh6QYosJvXIIz8yYuTzn/vslfTPnRYIXJJgfQgGbP7jmefwmfs/he9+51tOMHbVuUyzfGHukqmWedOhaUSju9/sfnbJxt9OATeN1V2l/QpUdDwXGgLhl08DUwkbyfjOl2TOhKV1C1++538Fwvk08P3f2XhhFrjjZgv3vdvG61rckprZAL73Wxt/P2NhKlHfKfHm7eVRdu6ejthGYCnL5FTAQIhZKzsvtHpKIDBAcf7Skomen5pKmTiEXij5/NhjT4DbAbfXMNjNUxgIBE2xI25jvLotLC6aTIr5XB533/0+pFLXT/HGH52nnnoajB946OsPXvN6XIZILy+bXQmN2hDX6jOzJD788COmmNT99x/DgR3SH7OmBLMxHjnyFtz/6WOIxaIm6PH3j/4BP/v5r/CpT37cJFxqtCf/9Bf84Ac/AvMgTB+gWPkMjh7tcEL03RirDefQ68bkSHNzC4jFo5iaTO0qzXKjKyzYxLXUSg2469bmk/S0YSi+vUSuyCDBenwHk+jcccvOQ/3N32EKNn30HcB7bq/XVWArVYBnT9c9PR86YmFyl8tALDn96POop1x/u4Vw67W9dh5EDxzB548et+NzltkazBiETreeEggcLEsYMyJ7ZCSBydT4rgKuOm2kbrgf8x+cOXPWCK6DB2fMtsPrNeYzYA2FdHrZJDbaHkTY6lgZ7Hj+/AUMRAdM3YXwDmmA6blgsCHvSeHBAEs+iMzcyJ0YExMpJJP/XcrguCh+eAyvz4JWvdJop8WlZSwurWD6wCSSiSFHy3J0YD171sapBeCdtwCHx5QwyelcqlbrKZcZA5AaBmLXT2B65VbpLLCSq9diSMT/N7aA3j0WS71R2uVm+sznhZdyep1m7uXXYwpbtskdwuWFD74FSMTkQdhzWxeKRczOXjRPxdT+FAbjvVH2ec/B6ga+I8DESBcvLoBCYWZmyuxicNpOLdS/isb3WSYWIRJyekWdLwL+JHB2qb6LJBGtB5+6kVyspzwInEZ82S0trWAxvYzU+CjGx0Z6tnCTPx8rjaodBBicmF7OmN0LoyNJs/NnN9sbr+5LrmibZYaFNQvvvc02X729sMzXDpvoGr1DoFi28Y9TwOyyhTtvsU1RLjeCentOIJjdDPlNE3jFFxODFdvxZdQ7U1cj7QUCheKWWYqjoD4wNYF9g/G2/JDz+Tu5wLz+FlJDtknA48aXUS/YUGPsXgKzy7bxHgwN0NNmI97vjpDuOYHAKcO8+gsLS0gvryI1PmI8CTdK7NO900w9F4HWCdB7UM99kDZxB1P7J9riPWj0hGurjMxOb1h4163tKVnc+ih1hgh4k8BGAXhxFjiXhvEeHBzbuaDWXo2kJwUCv2KYPnZufhHFQtEUb+L2Lbk692qa6brdQoDPBgMzXz15DqFwyHgPmJa8nc8G78Hqjk/92wKTMt77NtvUulcTgV4nwB/kf1+qe9hmRoCjh21EI+54D2iLnhQIHDhfUo01VuZDOHxw2tEWrl6f2Bq/Pwhwy+eZcxewuVlEKjWKifHRtoqDBiU+f3/+F6sKWjg8ZuOu17r3leQPy2kU3U6Az8RSFvjrSQvMacelBWYcbac4b5VRzwoEs9RQqZhYhNW1dZNGlrsatpcGbhWmjheBbibApYX5hSUsLi6bjImHZqb2tCx6fgv44z+B9YKNt78GeM2kdWVPfjdzVN9FoFUC3BKa37LBAlnnMxZun4b5E2q97Emrt77h8T0tEEiGqXRnL8ybJYcD+1MYGUki2Mgc0lbUupgIeJdAtVpDJrNqijLRo0Zx4CRrYrMjZVa/J48zQht468313P/bCnI2exkdJwJdTYB5LF6ZA1iY6fA4TEn0Qee7ih0z6XmBQIJr2Q3MX1o0qZi55ppMDLc1KMuxlXQBEdhDAtypkFnNYu7iAsKhkPGkDQ//twLmHt7aXPrVSzZeOGehLwAcvQk4kOTOhr2+q64vAt4gUCwDL58HTswDE0M2jhxmtVNvxORIIFyOR2Axnrn5BROUwZ0NoyOJPXWvemNqqhe9ToDLbJlM1uQFoZuTXjQWM+vkume1apuvp+MXLROQ9cYZ1hUAblDOo9fNpvH7hAA9B8cvAicuAsNRG0cPA5MJd+MOtqOVQLhMgwEia9l1U6uBNRsoEMZGEz2VWtcnz5yG0SQB1pdYWVk12337gkFMTIyZbY2dFAfsKp891gFgfoQTF+s7G26dtHFTSgWdmjSlDutCAisbthEGrH7JnCBvmvGWOCBSCYRtE4svqvWNHBYW0iY2Yd++uAlejMdjHX9pduF8V5e7hADneT6/aXbxZNdz6I+ETabE3ZZybsew2adyFWB62ZfnLJQrNg6N1QO1Yi5u82rH2HQNEdhOgKXPuc2X4oB1NPYnLRw9ZF+ui+GNpYVGfyUQrpq7BFIoFEw65rX1DfPyHEkOmwI+7Ug1q0dFBNwkYOINMlksr2RQ3CqZDIlcUmvkAem092A7i4ZImF+1zJLDah4Yidt4/RRwcMxbL043bah7dy8BJkE6uWDjzBILbFm4dRKmpPZgv+3Jj1AJhGvMNfOiKlewkqH7NQNGeLMscGosiX37Bj1pyO59ZNTzThFgmfPF9AryuU1YgQBGR4aNhywUCnlqTldrwEYReOk8cDYNBC1+ZQFvmraR9EjwVqdspvv4g0CpYmM2zUBEC2t5mFibI4dg8hx4uWCZBMIN5p/JuFgoYn5+ERu5nAniisUG6u5YCQV/PLk+H8WVZbPFNHK5TTPaeDyKqckJM5fd9BjshL6RcfGZMxbWC0ykBEyPALcfsDE6qFLCO/HT37tPoFKxcXrJMjsUMjmYnTrcxvjmg+7VV2iFigRCE7ToQVhdy2IpvYytYgmsmR4K9WEkmTDrtlyGaCRYuvqF6+UXcBND1yEeJsAf0Ktd9PxvJjza2iohu76BlcwaSqWyEQKRSMhUL00mEl2V66NctnHikoUTczYKZYCLDfQkMAMjt0Tya4yV7iyL0d+2+ftG0/Pn4Qnc5V3b/vzxUeTMq9msGGwbMTC7ApxZhAnAZeDt+D7gDdNAaoi5PrpjyUwCoYVJyhcvt0Nm1rIoFrZM0Sf+P8YmcA23PxJBJBJGqK/PvIDpxnWjRGcLQ9KhXUyALyjOPwrYcqViRAHrKDBNMv87ELAQDPaZxEfJ4X0mt0E3FyUrlGzzwr2wAmQLFui2rdWYUMZCMs7Kd/x327hsmYGOHgcyUBOBvSDAYEOmRC5XGE/AjKAW1jaB5Q2gUrONKOgPAeODMAG3+xPdIwwavCQQdjFz+GJmOdyNjZzZ7cDtYtVK1byoq7Ua7FrNeBnURKATBPiVbMRAIIhAMGAEKxMeRQcGMDgYw8BAv6eXElplxN0OfAkvZetfakzZXKpYZhcEX9ZVG+ZLTo9gq2R1fCsEKD3ptaIGpRigKOWf/pCNoSi9XMD+YcsTGRFbGdf2YyUQdkvu8nkEWC6XzddbqVw2/85Icf5//qHjSU0E9oZAXRg0xAGrL3Lpi54s/rMX6opUqjYYGZ4rWtgs1cUChQIDHeldqO0NeF1VBBBAPS044wroKYiG61tyh6I2+sPeSXbkxFQSCE7o6VwREAEREAER8CkBCQSfGlbDEgEREAEREAEnBCQQnNDTuSIgAiIgAiLgUwISCD41rIYlAiIgAiIgAk4ISCA4oadzRUAEREAERMCnBCQQfGpYDUsEREAEREAEnBCQQHBCT+eKgAiIgAiIgE8JSCD41LAalgiIgAiIgAg4ISCB4ISezhUBERABERABnxKQQPCpYTUsERABERABEXBCQALBCT2dKwIiIAIiIAI+JSCB4FPDalgiIAIiIAIi4ISABIITejpXBERABERABHxKQALBp4bVsERABERABETACQEJBCf0dK4IiIAIiIAI+JSABIJPDathiYAIiIAIiIATAhIITujpXBEQAREQARHwKQEJBJ8aVsMSAREQAREQAScEJBCc0NO5IiACIiACIuBTAhIIPjWshiUCIiACIiACTghIIDihp3NFQAREQAREwKcEJBB8algNSwREQAREQAScEJBAcEJP54qACIiACIiATwm4IhDSyzmMjsQQCAR8ilXDEgEREAEREIHuJlCpVrG6VsBoMuZ4IFaNcqOJtrKaw9BgFKFQsImjdYgIiIAIiIAIiECnCZRKFeQ2i0gMdVAgbOSK6OsLIDoQ6fR4dT8REAEREAEREIEmCGzki4ANxGPOf6ub9iBslSoobpUxNDgAy7Ka6KYOEQEREAEREAER6BQB27aRWctjMNbfFm9/0wKBN17NFjA02I++Pi0zdMrguo8IiIAIiIAINEOgXK4gu17ESBviD3i/pgUCD85vlkChQNeFvAjNmEvHiIAIiIAIiMDeE+Bvc3a9gHC4DwP9obbcsCWBUKnUkN/cQnQghHC4PR1oyyh0EREQAREQARHoYQLFYgmbhTKGh6JoVxRA0wKBHgMqFMYhlEpVxGIR9AW15bGH56OGLgIiIAIi4AEC5XIVDE6MRyPGg8Df6na0lgQCb1ir0YtQMveODoQRlEhohx10DREQAREQARFomUClQnGwhUioDwMDIbP875pA4I2r1Ro2C3WREItGJBJaNqlOEAEREAEREAFnBMqVKvL5LYT6glfEgasCgcOhSGB+JXoSqF4G4xGzs0GBi86MrbNFQAREQAREYCcCjeV+xhz0RxiUGDZxB43fYNc8CFd3vFAsIZ8vIRwOmiWHQDCA7VkSJBp2MrX+XgREQAREQASuTWD7jz1DC5hKmR78WtU2sYCRcN//negZgcCeccmhUChhs1g2yRnCoaDxKAQDRtLI7iIgAiIgAiIgArsgYNdqxmPP5YRSuWqEAT/G+/tDCPA39hqt4wKh2XExDzQHQdFQZZmHNkVTNnt/HScCIiACIiACfiFALzyFAD+66alnvEGnWtO7GDrVId1HBERABERABETAfQISCO7bQD0QAREQAREQAc8RkEDwnEnUIREQAREQARFwn4AEgvs2UA9EQAREQAREwHMEJBA8ZxJ1SAREQAREQATcJyCB4L4N1AMREAEREAER8BwBCQTPmUQdEgEREAEREAH3CUgguG8D9UAEREAEREAEPEdAAsFzJlGHREAEREAERMB9AhII7ttAPRABERABERABzxGQQPCcSdQhERABERABEXCfgASC+zZQD0RABERABETAcwQkEDxnEnVIBERABERABNwnIIHgvg3UAxEQAREQARHwHAEJBM+ZRB0SAREQAREQAfcJSCC4bwP1QAREQAREQAQ8R+A/YLawN9hwPggAAAAASUVORK5CYII=;" vertex="1" parent="1">
          <mxGeometry x="660" y="170" width="320.38" height="260" as="geometry" />
        </mxCell>
        <mxCell id="ozzDfrlE34gS3G6YLqRV-17" value="公共内容存储" style="shape=cylinder3;whiteSpace=wrap;html=1;boundedLbl=1;backgroundOutline=1;size=15;" vertex="1" parent="1">
          <mxGeometry x="-40" y="210" width="60" height="80" as="geometry" />
        </mxCell>
        <mxCell id="ozzDfrlE34gS3G6YLqRV-18" value="" style="endArrow=none;dashed=1;html=1;dashPattern=1 3;strokeWidth=2;rounded=0;exitX=1;exitY=0.5;exitDx=0;exitDy=0;exitPerimeter=0;" edge="1" parent="1" source="ozzDfrlE34gS3G6YLqRV-17" target="ozzDfrlE34gS3G6YLqRV-2">
          <mxGeometry width="50" height="50" relative="1" as="geometry">
            <mxPoint x="60" y="300" as="sourcePoint" />
            <mxPoint x="70" y="320" as="targetPoint" />
          </mxGeometry>
        </mxCell>
        <mxCell id="ozzDfrlE34gS3G6YLqRV-19" value="个性化内容存储" style="shape=cylinder3;whiteSpace=wrap;html=1;boundedLbl=1;backgroundOutline=1;size=15;" vertex="1" parent="1">
          <mxGeometry x="-40" y="310" width="60" height="80" as="geometry" />
        </mxCell>
        <mxCell id="ozzDfrlE34gS3G6YLqRV-22" value="" style="endArrow=none;dashed=1;html=1;dashPattern=1 3;strokeWidth=2;rounded=0;" edge="1" parent="1" source="ozzDfrlE34gS3G6YLqRV-19" target="ozzDfrlE34gS3G6YLqRV-4">
          <mxGeometry width="50" height="50" relative="1" as="geometry">
            <mxPoint x="20" y="400" as="sourcePoint" />
            <mxPoint x="90.71067811865476" y="350" as="targetPoint" />
          </mxGeometry>
        </mxCell>
      </root>
    </mxGraphModel>
  </diagram>
</mxfile>
